<svg xmlns="http://www.w3.org/2000/svg" xmlns:svg="http://www.w3.org/2000/svg" id="Layer_1" width="16" height="16" x="0" y="0" version="1.1" viewBox="0 0 16 16" xml:space="preserve"><path id="path6" d="m 9.504122,11.274212 c 0.363434,0 0.654083,-0.29326 0.654083,-0.655389 0,-0.360823 -0.290649,-0.6565323 -0.654083,-0.6565323 -0.3621288,0 -0.6565318,0.2957093 -0.6565318,0.6565323 0,0.362129 0.294566,0.655389 0.6565318,0.655389 z M 15.998612,16 c -3.884846,0.05744 -7.9443108,-0.685907 -11.0526768,-3.180988 -0.01909,-0.01779 -0.02807,-0.0421 -0.02807,-0.07017 0,-0.05989 0.04847,-0.10575 0.104608,-0.10575 l 3.063651,0.0038 c 0.146549,0 0.27025,-0.121091 0.27025,-0.270251 0,-0.112277 -0.05092,-0.189958 -0.170864,-0.24985 l -2.768759,-1.322856 c -0.05222,-0.03182 -0.08796,-0.08796 -0.08796,-0.155524 0,-0.04847 0.0204,-0.09302 0.05222,-0.127455 0,0 3.374863,-2.9820543 10.6177638,-2.9171023 V 16.00005 Z" style="fill:#ac39ac;fill-opacity:1;stroke-width:.163195"/><path id="path8" d="m 14.415629,1.0003817 c -2.398144,0.02676 -4.402926,0.503772 -7.0370498,2.663488 -0.09824,-0.02676 -0.3370621,-0.1063071 -0.3370621,-0.1063071 -0.418105,0 -0.758528,0.339118 -0.758528,0.75608 0,0 0.02938,0.14149 0.04716,0.228146 -0.08013,0.0754 -2.487106,2.5077346 -2.487106,2.5077346 L 2.0979066,8.7525517 C 1.9283476,8.9080767 1.7255864,8.9472498 1.4948294,8.9369688 1.2666834,8.9255488 1.1224536,8.8480939 0.96954061,8.6798399 c -0.147854,-0.1645 -0.220639,-0.3156983 -0.220639,-0.5209973 0,-0.233368 0.0384475,-0.4798306 0.22334749,-0.6480836 C 1.3612226,7.1746309 3.0740983,5.7545559 3.998612,5 H 0.73897122 L 1.3824346,6.1181793 C 0.99861199,6.3480646 0.82335448,6.4209167 0.369669,6.9595614 -0.08401648,7.4982061 -0.16629685,8.6510895 0.38464318,9.2617635 0.93917818,9.8737425 2.057613,9.999854 2.668287,9.446461 l 0.01665,-0.0204 1.684904,-1.664501 c 0,0 2.4958136,-2.4131229 2.5646816,-2.4795439 0.101996,0.02807 0.302236,0.07784 0.302236,0.07784 0.416962,0 0.754775,-0.339118 0.754775,-0.757386 0,0 -0.01909,-0.110972 -0.03443,-0.189958 2.5474664,-2.095908 4.2593164,-2.3549295 6.4911644,-2.3803885 0.457761,-0.0051 0.824949,-0.00636 1.426647,0.121094 l 0.123701,0.02807 V 1.1916387 l -0.08029,-0.01779 c -0.621772,-0.132677 -1.03139,-0.178535 -1.503022,-0.173476 z" style="fill:#ac39ac;fill-opacity:1;stroke-width:.163195"/><metadata id="metadata12"/></svg>