<svg xmlns="http://www.w3.org/2000/svg" xmlns:svg="http://www.w3.org/2000/svg" id="svg2" width="100%" height="100%" version="1.1" viewBox="0 0 16 16"><metadata id="metadata8"/><rect style="fill:none;stroke:none;visibility:hidden" id="canvas" width="16" height="16" x="0" y="0"/><rect style="fill:#fff;stroke:none" id="shield" width="12" height="13" x="2" y="2" rx="2" ry="2"/><path style="fill:#ac39ac;fill-opacity:1" id="news" d="m 1,1 0,13 12,0 0,-13 z m 1,1 10,0 0,11 -10,0 z m 1,1 0,2 8,0 0,-2 z M 3,6 3,6.5 6,6.5 6,6 z m 5,4 0,0.5 3,0 0,-0.5 z M 3,7 3,7.5 6,7.5 6,7 z m 5,4 0,0.5 3,0 0,-0.5 z M 3,8 3,8.5 6,8.5 6,8 z M 3,9 3,9.5 6,9.5 6,9 z m 5,-3 0,3 3,0 0,-3 z m -5,4 0,0.5 3,0 0,-0.5 z m 0,1 0,0.5 3,0 0,-0.5 z" transform="translate(1,1)"/></svg>