<svg xmlns="http://www.w3.org/2000/svg" xmlns:svg="http://www.w3.org/2000/svg" id="svg2" width="16" height="11" version="1.1" viewBox="0 0 16 11"><defs id="defs4"><filter id="filter3680" width="1.382" height="1.382" x="-.191" y="-.191" style="color-interpolation-filters:sRGB"><feGaussianBlur id="feGaussianBlur3682" stdDeviation=".321"/></filter></defs><g id="layer1" transform="translate(-219.14,-732.22999)"><rect style="fill:#ecece9;stroke:#000;stroke-width:.07712828" id="rect2830" width="15.923" height="10.922" x="219.179" y="732.269" rx=".316" ry=".294"/><path style="fill:none;stroke:#000;stroke-width:.07712828;stroke-linejoin:round" id="rect2832" d="m 221.93752,733.33645 c -0.85985,0 -1.55171,0.644 -1.55171,1.44287 0,0.79891 0.69186,1.44173 1.55171,1.44173 h 13.16426 v -2.8846 z"/><path style="fill:none;stroke:#000;stroke-width:.07712828;stroke-linejoin:round" id="rect2834" d="m 221.79414,733.73732 v 2.08313 h 13.30764 v -2.08313 z"/><path style="fill:#666;stroke:#000;stroke-width:.07712828;stroke-linejoin:round" id="path2956" d="m 226.30797,736.80864 c -0.25476,0 -0.46022,0.18973 -0.46022,0.42644 0,0.23671 0.20547,0.4276 0.46022,0.4276 h 1.19333 v -0.85404 z"/><path style="fill:#666;stroke:#000;stroke-width:.07712828;stroke-linejoin:round" id="path2954" d="m 227.96015,736.80864 v 0.85404 h 1.60327 v -0.85404 z"/><path style="fill:#666;stroke:#000;stroke-width:.07712828;stroke-linejoin:round" id="path2952" d="m 229.92111,736.80864 v 0.85404 h 1.60326 v -0.85404 z"/><path style="fill:#666;stroke:#000;stroke-width:.07712828;stroke-linejoin:round" id="path2950" d="m 231.98328,736.80864 v 0.85404 h 1.19333 c 0.25476,0 0.45897,-0.1909 0.45897,-0.4276 0,-0.23671 -0.20421,-0.42644 -0.45897,-0.42644 z"/><path style="fill:#666;stroke:#000;stroke-width:.07712828;stroke-linejoin:round" id="path2948" d="m 226.30797,738.02373 c -0.25476,0 -0.46022,0.18973 -0.46022,0.42644 0,0.23671 0.20547,0.4276 0.46022,0.4276 h 1.19333 v -0.85404 z"/><path style="fill:#666;stroke:#000;stroke-width:.07712828;stroke-linejoin:round" id="path2946" d="m 227.96015,738.02373 v 0.85404 h 1.60327 v -0.85404 z"/><path style="fill:#666;stroke:#000;stroke-width:.07712828;stroke-linejoin:round" id="path2944" d="m 229.92111,738.02373 v 0.85404 h 1.60326 v -0.85404 z"/><path style="fill:#666;stroke:#000;stroke-width:.07712828;stroke-linejoin:round" id="path2942" d="m 231.98328,738.02373 v 0.85404 h 1.19333 c 0.25476,0 0.45897,-0.1909 0.45897,-0.4276 0,-0.23671 -0.20421,-0.42644 -0.45897,-0.42644 z"/><path style="fill:#666;stroke:#000;stroke-width:.07712828;stroke-linejoin:round" id="path2940" d="m 226.30797,739.23882 c -0.25476,0 -0.46022,0.18973 -0.46022,0.42644 0,0.23671 0.20547,0.4276 0.46022,0.4276 h 1.19333 v -0.85404 z"/><path style="fill:#666;stroke:#000;stroke-width:.07712828;stroke-linejoin:round" id="path2938" d="m 227.96015,739.23882 v 0.85404 h 1.60327 v -0.85404 z"/><path style="fill:#666;stroke:#000;stroke-width:.07712828;stroke-linejoin:round" id="path2936" d="m 229.92111,739.23882 v 0.85404 h 1.60326 v -0.85404 z"/><path style="fill:#666;stroke:#000;stroke-width:.07712828;stroke-linejoin:round" id="path2934" d="m 231.98328,739.23882 v 0.85404 h 1.19333 c 0.25476,0 0.45897,-0.1909 0.45897,-0.4276 0,-0.23671 -0.20421,-0.42644 -0.45897,-0.42644 z"/><path style="fill:#666;stroke:#000;stroke-width:.07712828;stroke-linejoin:round" id="path2932" d="m 226.41488,740.7611 c -0.31448,0 -0.56713,0.23473 -0.56713,0.52693 0,0.29219 0.25264,0.52692 0.56713,0.52692 h 1.08645 v -1.05385 z"/><path style="fill:#666;stroke:#000;stroke-width:.07712828;stroke-linejoin:round" id="path2930" d="m 227.96015,740.7611 v 1.05385 h 1.60327 v -1.05385 z"/><path style="fill:#666;stroke:#000;stroke-width:.07712828;stroke-linejoin:round" id="path2928" d="m 229.92111,740.7611 v 1.05385 h 1.60326 v -1.05385 z"/><path style="fill:#666;stroke:#000;stroke-width:.07712828;stroke-linejoin:round" id="rect2844" d="m 231.98328,740.7611 v 1.05385 h 1.08517 c 0.31449,0 0.56713,-0.23472 0.56713,-0.52692 0,-0.29219 -0.25264,-0.52693 -0.56713,-0.52693 z"/><path style="color:#000;text-indent:0;text-transform:none;fill:none;stroke:#000;stroke-width:.07712828" id="path2863" d="m 220.543,737.41975 a 0.20121489,0.1869531 0 0 0 -0.16599,0.27222 l 2.88839,5.49943 h 0.44765 l -2.97388,-5.66418 a 0.20121489,0.1869531 0 0 0 -0.17605,-0.10748 0.20121489,0.1869531 0 0 0 -0.0201,0 z m -0.11443,1.6567 a 0.20121489,0.1869531 0 0 0 -0.16598,0.27106 l 2.01823,3.84392 h 0.44764 l -2.10372,-4.00867 a 0.20121489,0.1869531 0 0 0 -0.19617,-0.10632 z m -0.14461,1.65554 a 0.20121489,0.1869531 0 0 0 -0.16472,0.27105 l 1.14806,2.18829 h 0.44765 l -1.23484,-2.35185 a 0.20121489,0.1869531 0 0 0 -0.19617,-0.10749 z"/><path style="fill:#0c080a;stroke-width:.03085131" id="path3652" d="m 221.79414,733.73732 v 2.08313 h 11.95728 v -2.08313 z"/><rect style="fill:#837a76;stroke-width:.03085131" id="rect2838" width="7.185" height="1.309" x="226.249" y="734.125"/><rect style="fill:#5ef804;stroke-width:.03085131" id="rect2840" width="6.941" height="1.095" x="226.371" y="734.232"/><path style="fill:#837a76;stroke:#000;stroke-width:.07712828;stroke-linejoin:round" id="path3649" d="m 221.79414,733.73732 v 2.08313 h 3.66537 l -0.73311,-1.43239 c -0.0315,0.0135 -0.0662,0.0211 -0.10311,0.0211 -0.13706,0 -0.24898,-0.10398 -0.24898,-0.23132 0,-0.0904 0.0566,-0.16879 0.13832,-0.20681 l -0.11945,-0.23366 H 221.794 Z"/><circle style="fill:#d43307;filter:url(#filter3680)" id="path3641" cx="354.564" cy="501.324" r="2.02" transform="matrix(0.11065587,0,0,0.10281276,185.38905,682.63664)"/></g><metadata id="metadata99"/></svg>