<svg xmlns="http://www.w3.org/2000/svg" xmlns:svg="http://www.w3.org/2000/svg" id="svg2" width="24" height="24" version="1.1" viewBox="0 0 24 24"><defs id="defs4"><linearGradient id="path3873_7_" x1="56.017" x2="56.017" y1="-15.335" y2="22.229" gradientTransform="matrix(0.59662907,0,0,-0.59662907,-20.933676,1042.846)" gradientUnits="userSpaceOnUse"><stop id="stop3102" offset="0" stop-color="#C72118"/><stop id="stop3104" offset="1" stop-color="#D2534F"/></linearGradient><linearGradient id="path3873_8_" x1="-35.564" x2="-35.564" y1="3.176" y2="22.228" gradientTransform="matrix(0.59662907,0,0,-0.59662907,33.705614,1042.8454)" gradientUnits="userSpaceOnUse"><stop id="stop3107" offset="0" stop-color="#983A38"/><stop id="stop3109" offset="1" stop-color="#B83D3B"/></linearGradient><linearGradient id="path3873_9_" x1="135.47" x2="135.47" y1="-15.335" y2="22.229" gradientTransform="matrix(1,0,0,-1,-28.706,44.038)" gradientUnits="userSpaceOnUse"><stop id="stop3116" offset="0" stop-color="#7CB928"/><stop id="stop3118" offset="1" stop-color="#A2C857"/></linearGradient><linearGradient id="path3873_10_" x1="43.886" x2="43.886" y1="3.176" y2="22.228" gradientTransform="matrix(1,0,0,-1,62.874,44.037)" gradientUnits="userSpaceOnUse"><stop id="stop3121" offset="0" stop-color="#74963A"/><stop id="stop3123" offset="1" stop-color="#89B63E"/></linearGradient></defs><metadata id="metadata7"/><g id="layer1" transform="translate(0,-1029.3622)"><g id="g871" transform="matrix(0.54690998,0,0,0.54690998,-45.884169,1018.6376)"><rect id="rect3919" width="16.838" height="17.462" x="98.328" y="26.094" style="fill:#fff;fill-rule:evenodd"/><g id="g3113" style="stroke-width:1.10000002;stroke-linecap:round"><linearGradient id="linearGradient1017" x1="135.47" x2="135.47" y1="-15.335" y2="22.229" gradientTransform="matrix(1,0,0,-1,-28.706,44.038)" gradientUnits="userSpaceOnUse"><stop id="stop1013" offset="0" stop-color="#7CB928"/><stop id="stop1015" offset="1" stop-color="#A2C857"/></linearGradient><linearGradient id="linearGradient1023" x1="43.886" x2="43.886" y1="3.176" y2="22.228" gradientTransform="matrix(1,0,0,-1,62.874,44.037)" gradientUnits="userSpaceOnUse"><stop id="stop1019" offset="0" stop-color="#74963A"/><stop id="stop1021" offset="1" stop-color="#89B63E"/></linearGradient><path id="path3873_4_" d="m 106.8,21.988 c -6.572,0 -12.045,5.691 -12.045,11.865 0,2.777 1.564,6.309 2.693,8.747 l 9.307,17.871 9.262,-17.871 c 1.131,-2.438 2.738,-5.792 2.738,-8.747 0,-6.174 -5.38,-11.865 -11.96,-11.865 z m -1.18,20.069 c -0.521,0 -1.025,-0.215 -1.389,-0.604 -0.025,-0.027 -2.609,-2.793 -3.945,-3.996 -0.779,-0.703 -0.841,-1.904 -0.139,-2.684 0.703,-0.781 1.904,-0.842 2.684,-0.139 0.64,0.576 1.501,1.438 2.275,2.232 1.244,-2.398 3.327,-6 5.765,-8.545 0.726,-0.758 1.929,-0.783 2.687,-0.057 0.758,0.725 0.783,1.928 0.058,2.686 -3.412,3.562 -6.228,9.906 -6.255,9.971 -0.258,0.584 -0.792,1 -1.422,1.108 -0.11,0.018 -0.22,0.028 -0.32,0.028 z" connector-curvature="0" export-filename="C:\Users\dave.STK\Desktop\git\Leaflet\Leaflet\dist\images\marker-icon@2x.png" export-xdpi="180" export-ydpi="180" nodetypes="zscccszcscsc" style="clip-rule:evenodd;fill:url(#path3873_9_);fill-rule:evenodd;stroke:url(#path3873_10_)"/><path id="path3792_6_" d="m 106.79,23.093 c -5.943,0 -10.938,5.221 -10.938,10.75 0,2.359 1.443,5.832 2.562,8.25 0.006,0.012 0.025,0.021 0.031,0.031 l 8.312,15.969 8.25,-15.969 c 0.006,-0.012 0.025,-0.02 0.031,-0.031 1.135,-2.448 2.625,-5.706 2.625,-8.25 0.01,-5.537 -4.93,-10.75 -10.87,-10.75 z m 5.45,3.543 c -0.814,0 -1.604,0.338 -2.166,0.926 -2.09,2.18 -3.914,5.074 -5.236,7.471 -0.502,-0.498 -0.928,-0.904 -1.273,-1.217 -0.553,-0.498 -1.266,-0.771 -2.009,-0.771 -0.849,0 -1.661,0.361 -2.228,0.992 -1.107,1.227 -1.01,3.129 0.219,4.236 1.288,1.16 3.85,3.901 3.874,3.926 0.569,0.609 1.368,0.957 2.196,0.957 0.166,0 0.334,-0.014 0.498,-0.041 1.002,-0.172 1.841,-0.824 2.248,-1.75 0.029,-0.064 2.805,-6.271 6.043,-9.652 0.555,-0.578 0.851,-1.34 0.834,-2.141 -0.018,-0.801 -0.346,-1.547 -0.925,-2.102 -0.57,-0.537 -1.3,-0.834 -2.08,-0.834 z" export-filename="C:\Users\dave.STK\Desktop\git\Leaflet\Leaflet\dist\images\marker-icon@2x.png" export-xdpi="180" export-ydpi="180" original="M 416.53125 503.625 C 409.95868 503.625 404.5 509.29393 404.5 515.46875 C 404.5 518.24668 406.05726 521.78106 407.1875 524.21875 L 416.5 542.09375 L 425.75 524.21875 C 426.88024 521.78106 428.5 518.42346 428.5 515.46875 C 428.5 509.29393 423.10382 503.625 416.53125 503.625 z M 416.53125 510.78125 C 419.11574 510.79795 421.21875 512.88037 421.21875 515.46875 C 421.21875 518.05715 419.11574 520.13969 416.53125 520.15625 C 413.94676 520.13975 411.875 518.05715 411.875 515.46875 C 411.875 512.88038 413.94676 510.79802 416.53125 510.78125 z" radius="-1.093" type="inkscape:offset" style="fill:none;stroke:#fff;stroke-opacity:.12159998"/></g></g></g></svg>