<svg xmlns="http://www.w3.org/2000/svg" xmlns:svg="http://www.w3.org/2000/svg" id="svg2" width="24" height="24" version="1.1" viewBox="0 0 24 24"><defs id="defs4"><linearGradient id="path3873_7_" x1="56.017" x2="56.017" y1="-15.335" y2="22.229" gradientTransform="matrix(0.59662907,0,0,-0.59662907,-20.933676,1042.846)" gradientUnits="userSpaceOnUse"><stop id="stop3102" offset="0" stop-color="#C72118"/><stop id="stop3104" offset="1" stop-color="#D2534F"/></linearGradient><linearGradient id="path3873_8_" x1="-35.564" x2="-35.564" y1="3.176" y2="22.228" gradientTransform="matrix(0.59662907,0,0,-0.59662907,33.705614,1042.8454)" gradientUnits="userSpaceOnUse"><stop id="stop3107" offset="0" stop-color="#983A38"/><stop id="stop3109" offset="1" stop-color="#B83D3B"/></linearGradient><linearGradient id="path3873_9_" x1="135.47" x2="135.47" y1="-15.335" y2="22.229" gradientTransform="matrix(1,0,0,-1,-28.706,44.038)" gradientUnits="userSpaceOnUse"><stop id="stop3116" offset="0" stop-color="#7CB928"/><stop id="stop3118" offset="1" stop-color="#A2C857"/></linearGradient><linearGradient id="path3873_10_" x1="43.886" x2="43.886" y1="3.176" y2="22.228" gradientTransform="matrix(1,0,0,-1,62.874,44.037)" gradientUnits="userSpaceOnUse"><stop id="stop3121" offset="0" stop-color="#74963A"/><stop id="stop3123" offset="1" stop-color="#89B63E"/></linearGradient><linearGradient id="path3873_11_" x1="188.85" x2="188.85" y1="-15.335" y2="22.229" gradientTransform="matrix(1,0,0,-1,-28.706,44.038)" gradientUnits="userSpaceOnUse"><stop id="stop3129" offset="0" stop-color="#286EB5"/><stop id="stop3131" offset="1" stop-color="#4D9CD1"/></linearGradient><linearGradient id="path3873_12_" x1="97.272" x2="97.272" y1="3.176" y2="22.228" gradientTransform="matrix(1,0,0,-1,62.874,44.037)" gradientUnits="userSpaceOnUse"><stop id="stop3134" offset="0" stop-color="#306D98"/><stop id="stop3136" offset="1" stop-color="#3984B8"/></linearGradient></defs><metadata id="metadata7"/><g id="layer1" transform="translate(0,-1029.3622)"><g id="g876" transform="matrix(0.54693067,0,0,0.54690998,-75.085175,1018.6375)"><rect id="rect3921" width="15.119" height="16.809" x="89.713" y="136.43" transform="matrix(0.66179,-0.74969,0.66179,0.74969,0,0)" style="fill:#fff;fill-rule:evenodd"/><path id="path3873_2_" d="m 160.19,21.988 c -6.572,0 -12.044,5.691 -12.044,11.865 0,2.777 1.563,6.309 2.693,8.747 l 9.307,17.871 9.262,-17.871 c 1.13,-2.438 2.737,-5.792 2.737,-8.747 -0.01,-6.174 -5.39,-11.865 -11.96,-11.865 v 0 z m 2.05,10.861 v -4.816 c 0,-1.105 -0.895,-2 -2,-2 -1.104,0 -2.001,0.897 -2,2 v 4.815 h -4.815 c -1.104,-10e-4 -2,0.896 -2,2 0,1.104 0.895,2 2,2 h 4.815 v 4.815 c -0.001,1.104 0.896,2 2,2 0.552,0 1.052,-0.224 1.414,-0.586 0.361,-0.361 0.586,-0.861 0.586,-1.414 v -4.815 h 4.815 c 0.551,0 1.052,-0.224 1.414,-0.586 0.361,-0.362 0.585,-0.862 0.586,-1.415 0.001,-1.104 -0.896,-2.001 -2,-2 -0.008,0.0044 -4.815,0.002 -4.815,0.002 z" connector-curvature="0" export-filename="C:\Users\dave.STK\Desktop\git\Leaflet\Leaflet\dist\images\marker-icon@2x.png" export-xdpi="180" export-ydpi="180" nodetypes="zscccszcscsc" style="clip-rule:evenodd;fill:url(#path3873_11_);fill-rule:evenodd;stroke:url(#path3873_12_);stroke-width:1.10000002;stroke-linecap:round"/><path id="path3792_2_" d="m 160.18,23.093 c -5.944,0 -10.938,5.221 -10.938,10.75 0,2.359 1.442,5.832 2.562,8.25 0.005,0.012 0.025,0.021 0.03,0.031 l 8.313,15.969 8.25,-15.969 c 0.005,-0.012 0.025,-0.02 0.03,-0.031 1.136,-2.448 2.625,-5.706 2.625,-8.25 0.01,-5.537 -4.92,-10.75 -10.86,-10.75 v 0 z m -2.13,2.757 c -0.586,0.586 -0.908,1.365 -0.908,2.194 l 0.001,3.714 -3.716,-10e-4 c -0.827,0 -1.606,0.322 -2.192,0.908 -0.586,0.585 -0.908,1.365 -0.906,2.193 -0.001,0.828 0.321,1.606 0.906,2.191 0.586,0.585 1.365,0.908 2.193,0.908 l 3.714,-10e-4 0.001,3.716 c -0.001,0.826 0.321,1.605 0.907,2.191 0.586,0.586 1.365,0.908 2.191,0.907 0.828,10e-4 1.606,-0.322 2.191,-0.907 0.587,-0.587 0.909,-1.365 0.909,-2.193 l 0.001,-3.713 3.714,-10e-4 c 0.827,0 1.605,-0.322 2.191,-0.908 0.586,-0.586 0.909,-1.365 0.908,-2.192 0.002,-0.827 -0.322,-1.606 -0.907,-2.191 -0.585,-0.585 -1.364,-0.909 -2.191,-0.907 h -3.717 l 0.002,-3.715 c 0,-0.828 -0.323,-1.607 -0.908,-2.192 -0.586,-0.585 -1.364,-0.908 -2.193,-0.908 -0.8,-0.002 -1.58,0.321 -2.17,0.907 v 0 z" export-filename="C:\Users\dave.STK\Desktop\git\Leaflet\Leaflet\dist\images\marker-icon@2x.png" export-xdpi="180" export-ydpi="180" original="M 416.53125 503.625 C 409.95868 503.625 404.5 509.29393 404.5 515.46875 C 404.5 518.24668 406.05726 521.78106 407.1875 524.21875 L 416.5 542.09375 L 425.75 524.21875 C 426.88024 521.78106 428.5 518.42346 428.5 515.46875 C 428.5 509.29393 423.10382 503.625 416.53125 503.625 z M 416.53125 510.78125 C 419.11574 510.79795 421.21875 512.88037 421.21875 515.46875 C 421.21875 518.05715 419.11574 520.13969 416.53125 520.15625 C 413.94676 520.13975 411.875 518.05715 411.875 515.46875 C 411.875 512.88038 413.94676 510.79802 416.53125 510.78125 z" radius="-1.093" type="inkscape:offset" style="fill:none;stroke:#fff;stroke-width:1.10000002;stroke-linecap:round;stroke-opacity:.12159998"/></g></g></svg>