<svg xmlns="http://www.w3.org/2000/svg" xmlns:svg="http://www.w3.org/2000/svg" xmlns:xlink="http://www.w3.org/1999/xlink" id="svg2" width="32" height="32" version="1.1" viewBox="0 0 32 32" style="shape-rendering:crispEdges"><defs id="defs4"><linearGradient id="linearGradient917"><stop style="stop-color:#54ce44;stop-opacity:1" id="stop913" offset="0"/><stop style="stop-color:#3dc42b;stop-opacity:1" id="stop915" offset="1"/></linearGradient><clipPath id="clipPath4183" clipPathUnits="userSpaceOnUse"><path id="path4185" d="m 95.669,486.904 h 45.733 v 45.76 H 95.669 Z"/></clipPath><clipPath id="clipPath4199" clipPathUnits="userSpaceOnUse"><path id="path4201" d="m 52.61,497.831 h 22.253 v 22.253 H 52.61 Z"/></clipPath><clipPath id="clipPath4529" clipPathUnits="userSpaceOnUse"><path id="path4531" d="M 41.646,321.322 H 351.354 V 475.715 H 41.646 Z"/></clipPath><clipPath id="clipPath4717" clipPathUnits="userSpaceOnUse"><path id="path4719" d="m 46.417,390.434 c 0,-35.151 28.496,-63.649 63.648,-63.649 v 0 c 35.152,0 63.649,28.498 63.649,63.649 v 0 c 0,35.153 -28.497,63.647 -63.649,63.647 v 0 c -35.152,0 -63.648,-28.494 -63.648,-63.647"/></clipPath><clipPath id="clipPath4873" clipPathUnits="userSpaceOnUse"><path id="path4875" d="M 41.646,321.322 H 351.354 V 475.715 H 41.646 Z"/></clipPath><clipPath id="clipPath4985" clipPathUnits="userSpaceOnUse"><path id="path4987" d="m 263.065,171.339 h 76.201 v 154.305 h -76.201 z"/></clipPath><clipPath id="clipPath5069" clipPathUnits="userSpaceOnUse"><path id="path5071" d="m 263.065,171.339 h 76.201 v 154.305 h -76.201 z"/></clipPath><clipPath id="clipPath5345" clipPathUnits="userSpaceOnUse"><path id="path5347" d="M 0,0 H 396.85 V 595.276 H 0 Z"/></clipPath><clipPath id="clipPath5365" clipPathUnits="userSpaceOnUse"><path id="path5367" d="M 0,0 H 396.85 V 595.276 H 0 Z"/></clipPath><clipPath id="clipPath865" clipPathUnits="userSpaceOnUse"><rect id="rect867" width="258.28" height="1284.375" x="212.5" y="-191.388" transform="scale(-1,1)" style="opacity:1;fill:#1c3fff;fill-opacity:1;stroke:none;stroke-width:22;stroke-linecap:butt;stroke-linejoin:round;stroke-miterlimit:4;stroke-dasharray:176,22;stroke-dashoffset:220;stroke-opacity:.92424245;paint-order:stroke fill markers"/></clipPath><clipPath id="clipPath851" clipPathUnits="userSpaceOnUse"><rect style="opacity:1;fill:#f9f9fb;fill-opacity:1;stroke:none;stroke-width:33;stroke-linecap:round;stroke-linejoin:miter;stroke-miterlimit:4;stroke-dasharray:none;stroke-dashoffset:220.00001526;stroke-opacity:1;paint-order:stroke fill markers" id="rect853" width="562.022" height="1118.592" x="1128.405" y="-55.182"/></clipPath><clipPath id="clipPath880" clipPathUnits="userSpaceOnUse"><path style="opacity:1;fill:#f9f9fb;fill-opacity:1;stroke:none;stroke-width:33;stroke-linecap:round;stroke-linejoin:miter;stroke-miterlimit:4;stroke-dasharray:none;stroke-dashoffset:220.00001526;stroke-opacity:1;paint-order:stroke fill markers" id="path882" d="m 1085.1563,92.987121 39.4531,46.484369 -81.25,16.01563 -8.2031,5.07812 -38.67188,3.90625 -37.5,15.625 -24.60938,25.39063 -5.07812,21.09375 5.85937,23.4375 22.26563,22.26563 -107.42188,19.14062 -83.59375,36.32813 -16.01563,30.07813 -12.89063,6.25 -38.67187,83.59375 -16.40625,56.64063 -7.8125,58.98438 -4.29688,95.3125 6.64063,55.85938 3.90625,6.64062 4.6875,22.26563 78.125,65.23438 111.71876,62.10938 98.82813,37.5 82.4219,8.59375 52.6172,-2.85381 -41.2391,192.16303 250.8845,-38.217 -22.7015,-111.3523 -36.5797,-52.93312 59.2157,-27.57412 111.6195,11.23291 -24.1517,181.25523 551.7435,2.2018 L 1930.0866,380.62781 1806.7673,239.40226 1689.3224,93.348551 Z"/></clipPath><linearGradient id="linearGradient919" x1="945.899" x2="1056.445" y1="845.721" y2="767.596" gradientTransform="matrix(0.18861476,-0.01782944,0.01773557,0.18961368,833.35636,367.61411)" gradientUnits="userSpaceOnUse" xlink:href="#linearGradient917"/><radialGradient id="radialGradient2078" cx="23.25" cy="35.375" r="18.5" fx="23.25" fy="35.375" gradientTransform="matrix(0.79694569,0,0,0.2082697,1011.0704,507.26055)" gradientUnits="userSpaceOnUse" xlink:href="#linearGradient2072"/><linearGradient id="linearGradient2072"><stop style="stop-color:#000;stop-opacity:1" id="stop2074" offset="0"/><stop style="stop-color:#000;stop-opacity:0" id="stop2076" offset="1"/></linearGradient></defs><metadata id="metadata7"/><g id="layer1" transform="translate(-1016.805,-487.03293)"><path style="opacity:1;fill:url(#linearGradient919);fill-opacity:1;stroke:#39882f;stroke-width:1.40608537;stroke-linecap:round;stroke-linejoin:round;stroke-miterlimit:4;stroke-dasharray:none;stroke-dashoffset:220.00001526;stroke-opacity:1;paint-order:stroke fill markers" id="path911" d="m 1021.1048,500.2496 c 2.5699,2.265 5.0971,4.56181 7.211,7.16422 5.4316,-6.86722 11.6079,-13.13926 18.6385,-17.67789 l 1.1478,8.29783 c -7.4915,2.84031 -14.1567,7.79554 -19.4368,16.29618 -2.9581,-3.70648 -5.5172,-7.53627 -11.1573,-10.41517 z"/><ellipse style="color:#000;display:inline;overflow:visible;visibility:visible;opacity:.10100002;fill:url(#radialGradient2078);fill-opacity:1;fill-rule:evenodd;stroke:none;stroke-width:1.29061604;stroke-linecap:round;stroke-linejoin:round;stroke-miterlimit:4;stroke-dasharray:none;stroke-dashoffset:0;stroke-opacity:1;marker:none;marker-start:none;marker-mid:none;marker-end:none" id="path1344" cx="1029.6" cy="514.628" rx="14.743" ry="3.853"/></g><g id="layer2" transform="translate(-1016.805,-514.67076)"><path style="color:#000;clip-rule:nonzero;display:inline;overflow:visible;visibility:visible;opacity:1;isolation:auto;mix-blend-mode:normal;color-interpolation:sRGB;color-interpolation-filters:linearRGB;solid-color:#000;solid-opacity:1;fill:#fff;fill-opacity:1;fill-rule:nonzero;stroke:none;stroke-width:40;stroke-linecap:round;stroke-linejoin:round;stroke-miterlimit:4;stroke-dasharray:none;stroke-dashoffset:0;stroke-opacity:.60355033;color-rendering:auto;image-rendering:auto;shape-rendering:auto;text-rendering:auto;enable-background:accumulate" id="rect4135" d="m -3022.377,-2265.7715 v 5611.543 h 7964.754 v -5611.543 z M 0,0 H 1920 V 1080 H 0 Z"/></g></svg>