<svg xmlns="http://www.w3.org/2000/svg" xmlns:svg="http://www.w3.org/2000/svg" xmlns:xlink="http://www.w3.org/1999/xlink" id="svg3168" width="16" height="16" version="1.1"><defs id="defs3170"><linearGradient id="linearGradient3119" x1="289.3" x2="289.3" y1="429.13" y2="420.68" gradientTransform="matrix(0.41617105,0,0,0.41617105,-126.67713,868.66389)" gradientUnits="userSpaceOnUse" xlink:href="#linearGradient4893"/><linearGradient id="linearGradient4893"><stop id="stop4895" offset="0" style="stop-color:#729fcf"/><stop id="stop4897" offset="1" style="stop-color:#eeeeec"/></linearGradient><linearGradient id="linearGradient3130" x1="329.03" x2="329.03" y1="434.63" y2="433.06" gradientTransform="matrix(-0.44571125,0,0,0.6143848,152.78674,775.21573)" gradientUnits="userSpaceOnUse" xlink:href="#linearGradient2194"/><linearGradient id="linearGradient2194"><stop id="stop2196" offset="0" style="stop-color:#babdb6"/><stop id="stop2198" offset="1" style="stop-color:#eeeeec"/></linearGradient><linearGradient id="linearGradient3133" x1="225.76" x2="225.76" y1="288.59" y2="309.36" gradientTransform="matrix(0.29251852,0,0,0.29251852,343.00012,452.99408)" gradientUnits="userSpaceOnUse" xlink:href="#linearGradient2204"/><linearGradient id="linearGradient2204"><stop id="stop2206" offset="0" style="stop-color:#babdb6"/><stop id="stop2208" offset=".811" style="stop-color:#7b7f76"/><stop id="stop2210" offset="1" style="stop-color:#50524e"/></linearGradient><linearGradient id="linearGradient3166" x1="225.76" x2="225.76" y1="288.59" y2="309.36" gradientTransform="matrix(-0.22468586,0,0,0.22468586,51.292604,978.93786)" gradientUnits="userSpaceOnUse" xlink:href="#linearGradient2204"/></defs><metadata id="metadata3173"/><g id="layer1" transform="translate(0,-1036.3622)"><path id="path3943" d="m 11.496014,1039.8927 c 0.548183,0 0.990268,0.4067 1.043321,0.946 0.327145,0.115 0.557025,0.4157 0.557025,0.7781 v 6.3838 c 0,0.4598 -0.37135,0.8311 -0.831117,0.8311 H 3.3616253 c -0.4597665,0 -0.8311238,-0.3713 -0.8311238,-0.8311 v -6.3838 c 0,-0.4598 0.3713573,-0.8311 0.8311238,-0.8311 H 9.073377 c 0.079576,-0.5128 0.4951379,-0.893 1.02564,-0.893 z" style="fill:url(#linearGradient3166);stroke-width:.76810813"/><path id="path3859" d="m 9.2944232,1041.0863 c 0.0265,0.6985 -0.3713572,1.1583 -0.8488056,1.1583 H 2.7515477 v -0.4244 c 0,-0.3183 0.2652508,-0.557 0.6100776,-0.557 H 9.073377 c 0.1149397,0 0.2122053,-0.08 0.2210462,-0.1769 z" style="fill:url(#linearGradient3130);stroke-width:.76810813"/><path id="path3857" d="m 11.496014,1039.3622 c 0.689653,0 1.211314,0.4863 1.423512,1.1141 0.406721,0.2299 0.707343,0.6366 0.707343,1.1405 v 6.3838 c 0,0.7427 -0.618926,1.3616 -1.361626,1.3616 H 3.3616253 C 2.6100776,1049.3622 2,1048.7433 2,1048.0006 v -6.3838 c 0,-0.7515 0.6100776,-1.3616 1.3616253,-1.3616 h 5.4288191 c 0.2652508,-0.504 0.7073354,-0.893 1.3085726,-0.893 z m 0,1.061 h -1.396997 c -0.2740919,0 -0.459767,0.1768 -0.4951384,0.4421 -0.044166,0.2564 -0.2652508,0.4509 -0.5305016,0.4421 H 3.3616253 c -0.1768339,0 -0.3094631,0.1326 -0.3094631,0.3094 v 6.3838 c 0,0.1768 0.1326292,0.3006 0.3094631,0.3006 h 8.9036177 c 0.176834,0 0.300615,-0.1238 0.300615,-0.3006 v -6.3838 c 0,-0.1415 -0.07958,-0.2387 -0.203357,-0.274 -0.194515,-0.071 -0.327145,-0.2476 -0.353667,-0.451 -0.0265,-0.2741 -0.229887,-0.4686 -0.51282,-0.4686 z" style="fill:#555753;stroke-width:.76810813"/><circle id="path3869" cx="-9.714" cy="1042.67" r=".971" transform="scale(-1,1)" style="fill:#ef2929;stroke-width:.86323512"/><circle id="path3843" cx="-6.508" cy="1045.583" r="2.601" transform="scale(-1,1)" style="fill:url(#linearGradient3119);stroke:#555753;stroke-width:1.22633135;stroke-linecap:round;stroke-linejoin:round;stroke-miterlimit:2.41420007"/><path id="path3951" d="m 13.971696,1042.0855 h -2.404955 c -0.459766,0 -0.831116,0.3802 -0.831116,0.8399 0.318297,1.2909 0.265251,2.5907 0,3.8815 0,0.4598 0.37135,0.8311 0.831116,0.8311 h 2.404955 c 0.610077,-0.6188 0.0265,-1.7417 0.03533,-2.847 0.0088,-1.0433 0.654289,-2.0778 -0.03533,-2.7055 z" style="fill:#555753;stroke-width:.76810813"/><path id="path3871" d="m 14.245787,1043.2083 c -0.04424,0.3184 -0.150311,0.6808 -0.221046,1.0522 h -1.91865 c -0.371357,0 -0.671971,-0.2033 -0.671971,-0.4686 v -0.1149 c 0,-0.2653 0.300614,-0.4687 0.671971,-0.4687 z" style="fill:#babdb6;stroke-width:.76810813"/><path id="path3873" d="m 14.0159,1045.3746 c 0.05308,0.3802 0.150311,0.7338 0.194524,1.061 H 12.08841 c -0.371358,0 -0.671972,-0.2122 -0.671972,-0.4687 v -0.1149 c 0,-0.2652 0.300614,-0.4774 0.671972,-0.4774 z" style="fill:#babdb6;stroke-width:.76810813"/></g></svg>