<svg xmlns="http://www.w3.org/2000/svg" xmlns:svg="http://www.w3.org/2000/svg" xmlns:xlink="http://www.w3.org/1999/xlink" id="svg2" width="16" height="16" version="1.1" viewBox="0 0 16 16"><defs id="defs4"><linearGradient id="linearGradient856"><stop style="stop-color:#fff;stop-opacity:1" id="stop852" offset="0"/><stop style="stop-color:#fff;stop-opacity:0" id="stop854" offset="1"/></linearGradient><linearGradient id="linearGradient858" x1="2" x2="2" y1="1041.362" y2="1046.362" gradientUnits="userSpaceOnUse" xlink:href="#linearGradient856"/><linearGradient id="linearGradient866" x1="5" x2="5" y1="1039.362" y2="1047.362" gradientUnits="userSpaceOnUse" xlink:href="#linearGradient856"/></defs><metadata id="metadata7"/><g id="layer1" transform="translate(0,-1037.3622)"><rect style="opacity:1;fill:#b5b7b3;fill-opacity:1;fill-rule:nonzero;stroke:#646662;stroke-width:1.048;stroke-linecap:round;stroke-miterlimit:4;stroke-dasharray:none;stroke-dashoffset:.83990926;stroke-opacity:1;paint-order:normal" id="rect827" width="2.952" height="6.952" x=".524" y="1041.886"/><path style="fill:#b5b7b3;fill-opacity:1;stroke:#646662;stroke-width:1px;stroke-linecap:butt;stroke-linejoin:miter;stroke-opacity:1" id="path874" d="m 3.5,1042.3621 3,-3 v 12 l -3,-3 z"/><path style="opacity:1;fill:none;fill-opacity:1;fill-rule:nonzero;stroke:#3465a4;stroke-width:1.09984004;stroke-linecap:round;stroke-miterlimit:4;stroke-dasharray:none;stroke-dashoffset:.83990926;stroke-opacity:.94901961;paint-order:stroke fill markers" id="path876" d="m 8.5973366,1042.76 a 2.9990315,3.5001121 0 0 1 0.899599,2.5337 2.9990315,3.5001121 0 0 1 -0.9417285,2.5128"/><path style="opacity:1;fill:none;fill-opacity:1;fill-rule:nonzero;stroke:#3465a4;stroke-width:1.09984004;stroke-linecap:round;stroke-miterlimit:4;stroke-dasharray:none;stroke-dashoffset:.83990926;stroke-opacity:.94901961;paint-order:stroke fill markers" id="path876-7" d="m 11,1040.8189 a 4.9990001,6.3000002 0 0 1 1.499516,4.5606 4.9990001,6.3000002 0 0 1 -1.569741,4.5229"/><path style="fill:url(#linearGradient866);fill-opacity:1;stroke:none;stroke-width:1px;stroke-linecap:butt;stroke-linejoin:miter;stroke-opacity:1" id="path848" d="M 3.9888452,1042.6076 5.9921123,1040.5831 6,1050.1492 3.9960562,1048.1453 Z"/><rect style="opacity:1;fill:url(#linearGradient858);fill-opacity:1;fill-rule:nonzero;stroke:none;stroke-width:1.04799998;stroke-linecap:round;stroke-miterlimit:4;stroke-dasharray:none;stroke-dashoffset:.83990926;stroke-opacity:1;paint-order:normal" id="rect850" width="2" height="6" x="1" y="1042.362"/></g></svg>