<svg xmlns="http://www.w3.org/2000/svg" xmlns:svg="http://www.w3.org/2000/svg" xmlns:xlink="http://www.w3.org/1999/xlink" id="svg249" width="16" height="16" version="1.1"><defs id="defs3"><radialGradient id="radialGradient6275" cx="62.2" cy="-8.726" r="9.755" fx="62.2" fy="-8.726" gradientTransform="matrix(0.374118,0,0,0.37412633,-15.28062,41.861349)" gradientUnits="userSpaceOnUse" xlink:href="#linearGradient8647"/><radialGradient id="radialGradient6273" cx="62.625" cy="4.625" r="10.625" fx="62.625" fy="4.625" gradientTransform="matrix(0.33333333,0,0,0.11372533,-12.979334,42.373816)" gradientUnits="userSpaceOnUse" xlink:href="#linearGradient8838"/><linearGradient id="linearGradient3656"><stop style="stop-color:#fff;stop-opacity:1" id="stop3658" offset="0"/><stop style="stop-color:#fff;stop-opacity:0" id="stop3660" offset="1"/></linearGradient><linearGradient id="linearGradient5640" x1="-26.754" x2="-24.75" y1="11.566" y2="9.688" gradientUnits="userSpaceOnUse" xlink:href="#linearGradient3656"/><linearGradient id="linearGradient3520"><stop style="stop-color:#000;stop-opacity:.77521008" id="stop3522" offset="0"/><stop style="stop-color:#030303;stop-opacity:0" id="stop3524" offset="1"/></linearGradient><linearGradient id="linearGradient5638" x1="-18.589" x2="-31.959" y1="11.053" y2="16.898" gradientTransform="matrix(0.30935673,0,0,0.3061907,19.268027,32.441924)" gradientUnits="userSpaceOnUse" xlink:href="#linearGradient3520"/><linearGradient id="linearGradient3671"><stop style="stop-color:#fff;stop-opacity:1" id="stop3673" offset="0"/><stop id="stop3691" offset=".475" style="stop-color:#fff;stop-opacity:1"/><stop style="stop-color:#fff;stop-opacity:0" id="stop3675" offset="1"/></linearGradient><radialGradient id="radialGradient5636" cx="-26.305" cy="10.108" r="7.042" fx="-26.305" fy="10.108" gradientTransform="matrix(0.13662735,-0.09327557,0.25190774,0.36441522,11.641501,29.187412)" gradientUnits="userSpaceOnUse" xlink:href="#linearGradient3671"/><linearGradient id="linearGradient3741"><stop style="stop-color:#fff;stop-opacity:1" id="stop3743" offset="0"/><stop style="stop-color:#fff;stop-opacity:0" id="stop3745" offset="1"/></linearGradient><radialGradient id="radialGradient5634" cx="4" cy="5.3" r="17" fx="4" fy="5.3" gradientTransform="matrix(1.8860258,0,0,1.1764706,-3.5441033,-4.2352941)" gradientUnits="userSpaceOnUse" xlink:href="#linearGradient3741"/><linearGradient id="linearGradient3613"><stop style="stop-color:#888a85;stop-opacity:1" id="stop3615" offset="0"/><stop style="stop-color:#babdb6;stop-opacity:1" id="stop3617" offset="1"/></linearGradient><linearGradient id="linearGradient5632" x1="-47.5" x2="-62.75" y1="49.021" y2="-22.502" gradientTransform="matrix(0.37050867,0,0,0.36820617,21.352226,31.163051)" gradientUnits="userSpaceOnUse" xlink:href="#linearGradient3613"/><linearGradient id="linearGradient3683"><stop id="stop3685" offset="0" style="stop-color:#f6f6f5;stop-opacity:1"/><stop id="stop3689" offset="1" style="stop-color:#d3d7cf;stop-opacity:1"/></linearGradient><radialGradient id="radialGradient5630" cx="-30.25" cy="35.357" r="18" fx="-30.25" fy="35.357" gradientTransform="matrix(1.4804598,0,0,0.71249244,54.928245,19.687016)" gradientUnits="userSpaceOnUse" xlink:href="#linearGradient3683"/><linearGradient id="linearGradient8930"><stop id="stop8932" offset="0" style="stop-color:#cee14b"/><stop id="stop8934" offset="1" style="stop-color:#9db029"/></linearGradient><linearGradient id="linearGradient8924"><stop id="stop8926" offset="0" style="stop-color:#cee14b"/><stop id="stop8928" offset="1" style="stop-color:#9db029"/></linearGradient><linearGradient id="linearGradient8918"><stop id="stop8920" offset="0" style="stop-color:#cee14b"/><stop id="stop8922" offset="1" style="stop-color:#9db029"/></linearGradient><linearGradient id="linearGradient8912"><stop style="stop-color:#cee14b" id="stop8914" offset="0"/><stop style="stop-color:#9db029" id="stop8916" offset="1"/></linearGradient><linearGradient id="linearGradient8838"><stop style="stop-color:#000;stop-opacity:1" id="stop8840" offset="0"/><stop style="stop-color:#000;stop-opacity:0" id="stop8842" offset="1"/></linearGradient><linearGradient id="linearGradient8647"><stop style="stop-color:#8fb1dc;stop-opacity:1" id="stop8649" offset="0"/><stop style="stop-color:#3465a4;stop-opacity:1" id="stop8651" offset="1"/></linearGradient><linearGradient id="linearGradient3702"><stop id="stop3704" offset="0" style="stop-color:black;stop-opacity:0"/><stop style="stop-color:black;stop-opacity:1" id="stop3710" offset=".5"/><stop id="stop3706" offset="1" style="stop-color:black;stop-opacity:0"/></linearGradient></defs><metadata id="metadata4"/><g id="layer6" transform="translate(0,-32)"><rect style="display:inline;opacity:0;fill:#000;fill-opacity:1;stroke:none;stroke-width:.33437285;stroke-miterlimit:4;stroke-dasharray:none" id="rect5512" width="16.1" height="16" x="-.036" y="32"/><path style="display:inline;fill:url(#radialGradient5630);fill-opacity:1;stroke:url(#linearGradient5632);stroke-width:.92301971;stroke-miterlimit:4;stroke-dasharray:none" id="path5536" d="m 2.2798708,32.451773 c 0,0 6.4750615,0 7.0308245,0 1.4364817,0.02685 2.4083067,0.920517 3.3345767,1.841031 0.926272,0.920517 1.707188,1.934048 1.852546,3.313855 0,0.552309 0,9.196371 0,9.196371 0,0.41284 -0.334435,0.745197 -0.749855,0.745197 H 2.2798708 c -0.4154215,0 -0.7498575,-0.332357 -0.7498575,-0.745197 V 33.19697 c 0,-0.41284 0.334436,-0.745197 0.7498575,-0.745197 z"/><path style="display:inline;opacity:.68016196;fill:url(#radialGradient5634);fill-opacity:1;stroke:none;stroke-width:1;stroke-miterlimit:4" id="path5538" d="m 8.53125,3.9863281 c -0.8581697,0 -1.5449219,0.6867521 -1.5449219,1.5449219 v 36.9375 c 0,0.85817 0.6867521,1.544922 1.5449219,1.544922 h 30.9375 c 0.858169,0 1.544922,-0.686754 1.544922,-1.544922 V 17.5 c 0,-1.39197 -0.500651,-4.299479 -2.357422,-6.15625 l -5,-5 C 31.799479,4.4869792 28.89197,3.9863281 27.5,3.9863281 Z" transform="matrix(0.33541666,0,0,0.33333225,-0.03608499,32.000026)"/><path style="display:inline;fill:url(#radialGradient5636);fill-opacity:1;stroke:none;stroke-width:.33437285;stroke-miterlimit:4" id="path5540" d="m 9.1878733,33.333355 c -0.465857,0 -0.014121,0.165695 0.450716,0.374998 0.4648277,0.209304 1.6679867,1.071681 1.3940757,2.29166 1.450111,-0.143528 2.240292,1.04079 2.347917,1.427078 0.107625,0.38629 0.335417,0.869211 0.335417,0.406249 0.0095,-1.268523 -0.954405,-2.143893 -1.624674,-2.885407 -0.670271,-0.741514 -1.677909,-1.455658 -2.9034517,-1.614578 z"/><path style="display:inline;opacity:.87854249;fill:url(#linearGradient5638);fill-opacity:1;stroke:none;stroke-width:.33437285;stroke-miterlimit:4" id="path5542" d="m 9.5571268,33.671472 c 0.3093547,0 1.0090812,2.065214 0.6997262,3.443071 1.440601,-0.142585 2.969572,0.02939 3.123729,0.312548 -0.107625,-0.386288 -0.897806,-1.570606 -2.347917,-1.427078 0.290021,-1.291742 -1.0688288,-2.205759 -1.4755382,-2.328541 z"/><path style="display:inline;fill:none;fill-opacity:1;stroke:url(#linearGradient5640);stroke-width:2.79900002;stroke-miterlimit:4;stroke-dasharray:none" id="path5544" d="m -51.46875,4.4941406 c -0.583166,0 -1.037109,0.4539436 -1.037109,1.0371094 v 36.9375 c 0,0.583165 0.453945,1.037109 1.037109,1.037109 h 30.9375 c 0.583165,0 1.037109,-0.453945 1.037109,-1.037109 V 17.5 c 0,-1.279029 -0.501953,-4.089844 -2.208984,-5.796875 l -5,-5 C -28.410156,4.9960937 -31.220971,4.4941406 -32.5,4.4941406 Z" transform="matrix(0.33531422,0,0,0.33583172,20.085226,31.961788)"/><ellipse id="path8836" cx="7.896" cy="42.9" rx="3.542" ry="1.208" style="display:inline;overflow:visible;visibility:visible;opacity:.45;fill:url(#radialGradient6273);fill-opacity:1;fill-rule:evenodd;stroke:none;stroke-width:.33333328;stroke-linecap:butt;stroke-linejoin:round;stroke-miterlimit:4;stroke-dasharray:none;stroke-dashoffset:0;stroke-opacity:1;marker:none;marker-start:none;marker-mid:none;marker-end:none"/><path id="path6495" d="m 11.07475,40.335056 c 0,1.703945 -1.3813454,3.085275 -3.0850554,3.085275 -1.703866,0 -3.085134,-1.381346 -3.085134,-3.085275 0,-1.703866 1.381268,-3.085055 3.085134,-3.085055 1.70371,0 3.0850554,1.381189 3.0850554,3.085055 z" style="fill:url(#radialGradient6275);fill-opacity:1;fill-rule:nonzero;stroke:#204a87;stroke-width:.33333334;stroke-miterlimit:4"/><path style="opacity:.35714285;fill:none;fill-opacity:1;fill-rule:nonzero;stroke:#fff;stroke-width:.33333334;stroke-miterlimit:4;stroke-opacity:1" id="path8655" d="m 10.75347,40.335068 c 0,1.526403 -1.2374174,2.763807 -2.7636104,2.763807 -1.526333,0 -2.763683,-1.237418 -2.763683,-2.763807 0,-1.526334 1.23735,-2.763611 2.763683,-2.763611 1.526193,0 2.7636104,1.237277 2.7636104,2.763611 z"/><path style="fill:#9db029;fill-opacity:1;stroke:none;stroke-width:.3266497px;stroke-linecap:butt;stroke-linejoin:miter;stroke-opacity:1" id="path1091" d="m 6.8314806,42.988813 0.785132,-1.636708 -2.17842,-1.281495 2.858765,-2.390657 -1.139394,-0.02909 -1.92803,1.867847 0.0207,0.818299 z"/><path style="fill:#9db029;fill-opacity:1;stroke:none;stroke-width:.33333334px;stroke-linecap:butt;stroke-linejoin:miter;stroke-opacity:1" id="path1093" d="m 9.2224376,42.66033 -0.317787,-1.768372 -0.852293,-0.237948 0.200165,-1.807192 0.833762,-0.880492 1.5560734,1.228815 -1.4199204,3.465189 v 0"/></g></svg>