<svg xmlns="http://www.w3.org/2000/svg" xmlns:svg="http://www.w3.org/2000/svg" xmlns:xlink="http://www.w3.org/1999/xlink" id="svg2" width="16" height="16" version="1.1" viewBox="0 0 16 16"><defs id="defs4"><linearGradient id="linearGradient893"><stop id="stop889" offset="0" style="stop-color:#ebf4ff;stop-opacity:1"/><stop id="stop891" offset="1" style="stop-color:#91ea9e;stop-opacity:1"/></linearGradient><linearGradient id="e" x1="35" x2="27.3" y1="11" y2="24" gradientTransform="matrix(-1,0,0,1,48,13)" gradientUnits="userSpaceOnUse"><stop id="stop6" offset="0" stop-color="#ebf4ff"/><stop id="stop8" offset="1" stop-color="#ace"/></linearGradient><radialGradient id="b" cx="17" cy="38" r="15" gradientTransform="matrix(0.50820309,0,0,0.19910193,-0.37708322,1033.1635)" gradientUnits="userSpaceOnUse"><stop id="stop16" offset="0"/><stop id="stop18" offset="1" stop-opacity="0"/></radialGradient><linearGradient id="linearGradient895" x1="1.999" x2="20.494" y1="1031.372" y2="1046.69" gradientTransform="matrix(0.70288547,0,0,0.71810114,-0.40485281,289.73298)" gradientUnits="userSpaceOnUse" xlink:href="#linearGradient893"/></defs><metadata id="metadata7"/><g id="layer1" transform="translate(0,-1029.3622)"><ellipse style="opacity:.2;fill:url(#b);stroke-width:.666666" id="i" cx="8.262" cy="1040.729" rx="7.623" ry="2.987"/><path style="fill:url(#linearGradient895);fill-opacity:1;stroke:#005800;stroke-width:.8;stroke-miterlimit:4;stroke-dasharray:none;stroke-opacity:1" id="use28" d="m 11.833532,1040.541 c 1.484201,0 2.679063,-1.1956 2.679063,-2.6808 v -4.2892 c 0,-1.4853 -1.194862,-2.6808 -2.679063,-2.6808 H 4.22499 c -1.4842016,0 -2.6790641,1.1955 -2.6790641,2.6808 v 4.2892 c 0,1.4852 1.0704824,2.6808 2.4260888,2.6808 0.1446696,0.9597 -0.5293114,3.0223 -0.9150966,3.5477 2.1613124,-0.4767 4.4506166,-2.926 4.8203279,-3.5479 l 3.956286,2e-4"/><path id="path845" d="m 4.8477397,1038.8041 2.6666666,-6 2.6666637,6" style="fill:none;stroke:#000;stroke-width:1;stroke-linecap:round;stroke-linejoin:round;stroke-miterlimit:4;stroke-dasharray:none;stroke-opacity:1"/><path id="path847" d="M 6,1036.8622 H 9" style="fill:none;stroke:#000;stroke-width:1;stroke-linecap:butt;stroke-linejoin:miter;stroke-miterlimit:4;stroke-dasharray:none;stroke-opacity:1"/></g></svg>