<svg xmlns="http://www.w3.org/2000/svg" xmlns:svg="http://www.w3.org/2000/svg" xmlns:xlink="http://www.w3.org/1999/xlink" id="svg3445" width="16" height="16" version="1.1" viewBox="0 0 16 16"><title id="title4354">Push Pin 02b</title><defs id="defs3447"><linearGradient id="linearGradient836"><stop style="stop-color:#63bfff;stop-opacity:1" id="stop832" offset="0"/><stop style="stop-color:#2d72a2;stop-opacity:1" id="stop834" offset="1"/></linearGradient><linearGradient id="linearGradient4289"><stop style="stop-color:#0076c9;stop-opacity:1" id="stop4295" offset="0"/><stop style="stop-color:#0d9bff;stop-opacity:1" id="stop4291" offset="1"/></linearGradient><linearGradient id="linearGradient4271"><stop style="stop-color:#67c0ff;stop-opacity:1" id="stop4273" offset="0"/><stop style="stop-color:#007bd1;stop-opacity:1" id="stop4275" offset="1"/></linearGradient><radialGradient id="radialGradient4277" cx="49.023" cy="617.356" r="90.419" fx="49.023" fy="617.356" gradientTransform="matrix(0.03819605,-3.6980631e-5,9.1952535e-5,0.02700031,-12.267034,-11.882471)" gradientUnits="userSpaceOnUse" spreadMethod="pad" xlink:href="#linearGradient4271"/><linearGradient id="linearGradient4287" x1="283.958" x2="350.924" y1="445.632" y2="516.632" gradientTransform="matrix(-0.04964523,0,0,0.05016717,24.023982,-16.25555)" gradientUnits="userSpaceOnUse" xlink:href="#linearGradient4289"/><linearGradient id="linearGradient4487" x1="282.175" x2="430.081" y1="514.185" y2="557.185" gradientTransform="matrix(-0.07739786,0.00903498,0.00879586,0.06673064,30.184026,-25.84271)" gradientUnits="userSpaceOnUse" xlink:href="#linearGradient4481"/><linearGradient id="linearGradient4481"><stop id="stop4483" offset="0" style="stop-color:#909090;stop-opacity:0"/><stop id="stop4485" offset="1" style="stop-color:#ddd;stop-opacity:1"/></linearGradient><radialGradient id="radialGradient838" cx="55.045" cy="81.179" r="72.111" fx="55.045" fy="81.179" gradientTransform="matrix(0.05,0,0,0.03984384,-13.532794,-6.59811)" gradientUnits="userSpaceOnUse" xlink:href="#linearGradient836"/></defs><metadata id="metadata3450"/><path style="opacity:1;fill:url(#linearGradient4487);fill-opacity:1;stroke:none;stroke-width:.02447031;stroke-linecap:round;stroke-linejoin:round;stroke-miterlimit:4;stroke-dasharray:none;stroke-opacity:1" id="path3728-9" d="m 11.852662,9.71817 a 2.2992099,1.8818859 36.10408 0 1 1.077505,0.82771 2.2992099,1.8818859 36.10408 0 1 -0.254205,2.77355 2.2992099,1.8818859 36.10408 0 1 -2.644744,-0.36519 c -0.2958839,0.10599 -0.6188524,0.24528 -0.9637084,0.41139 a 2.8740123,2.3523573 36.104086 0 1 -0.909489,2.19925 2.8740123,2.3523573 36.104086 0 1 -3.811229,-0.97021 2.8740123,2.3523573 36.104086 0 1 -0.011297,-0.0152 c -0.5044431,0.12373 -0.9797171,0.23831 -1.0285075,0.25045 -0.1088595,0.0271 -2.33805959,0.60118 -2.34985209,0.57674 -0.0118095,-0.0244 1.99174259,-1.06627 2.08881009,-1.11781 0.041589,-0.0221 0.4325985,-0.23336 0.857297,-0.46092 a 2.8740123,2.3523573 36.104086 0 1 0.7613002,-2.70013 2.8740123,2.3523573 36.104086 0 1 3.5159465,0.64586 c 0.3560794,-0.0663 0.684605,-0.13831 0.9782005,-0.21756 A 2.2992099,1.8818859 36.10408 0 1 9.8811614,9.76975 2.2992099,1.8818859 36.10408 0 1 11.852665,9.71815 Z"/><path style="opacity:1;fill:#4d4d4d;fill-opacity:1;stroke:none;stroke-width:.02447031;stroke-linecap:round;stroke-linejoin:round;stroke-miterlimit:4;stroke-dasharray:none;stroke-opacity:1" id="path3728" d="M 0.8,15.49972 6.067281,11.507537 4.1447826,9.7517878 Z"/><ellipse id="ellipse3726" cx="-10.338" cy="4.785" rx="4.476" ry="3.56" transform="matrix(-0.8653927,-0.50109428,-0.49666975,0.86793961,0,0)" style="opacity:1;fill:url(#radialGradient4277);fill-opacity:1;stroke:#0073c3;stroke-width:.05000005;stroke-linecap:round;stroke-linejoin:round;stroke-miterlimit:4;stroke-dasharray:none;stroke-opacity:1"/><path style="opacity:1;fill:url(#linearGradient4287);fill-opacity:1;stroke:#0073c3;stroke-width:.04999973;stroke-linecap:round;stroke-linejoin:round;stroke-miterlimit:4;stroke-dasharray:none;stroke-opacity:1" id="rect3717" d="m 12.682119,5.4719095 c -1.015469,0.0441 -2.284454,1.60635 -3.6586495,3.79774 -0.938471,1.4965605 -2.2656786,0.57909 -2.7098756,0.13964 -0.4157505,-0.4113 -1.2710864,-1.60895 0.1864575,-2.59951 2.1342696,-1.45046 3.6466766,-2.77538 3.6586496,-3.79774 l 1.261708,1.22993 z"/><ellipse style="opacity:1;fill:url(#radialGradient838);fill-opacity:1;stroke:#0073c3;stroke-width:.05000032;stroke-linecap:round;stroke-linejoin:round;stroke-miterlimit:4;stroke-dasharray:none;stroke-opacity:1" id="path3715" cx="-11.898" cy="-2.559" rx="3.581" ry="2.848" transform="matrix(-0.8653927,-0.50109428,-0.49666975,0.86793961,0,0)"/><rect style="opacity:1;fill:#000;fill-opacity:1;fill-rule:nonzero;stroke:none;stroke-width:1;stroke-linecap:round;stroke-linejoin:round;stroke-miterlimit:4;stroke-dasharray:none;stroke-dashoffset:.83990926;stroke-opacity:1;paint-order:normal" id="rect837" width="5" height="1" x="0" y="2"/><rect style="opacity:1;fill:#000;fill-opacity:1;fill-rule:nonzero;stroke:none;stroke-width:1;stroke-linecap:round;stroke-linejoin:round;stroke-miterlimit:4;stroke-dasharray:none;stroke-dashoffset:.83990926;stroke-opacity:1;paint-order:normal" id="rect839" width="1" height="5" x="2" y="0"/></svg>