<svg xmlns="http://www.w3.org/2000/svg" xmlns:svg="http://www.w3.org/2000/svg" id="svg4376" width="24" height="24" version="1.1" viewBox="0 0 24 24"><defs id="defs3"><radialGradient id="radialGradient2714" cx="29.288" cy="15.721" r="8.902" fx="29.158" fy="15.756" gradientTransform="matrix(1.123333,0,0,1.1233331,-22.949918,-10.353011)" gradientUnits="userSpaceOnUse"><stop id="stop3292" offset="0" style="stop-color:#fffcde"/><stop id="stop3294" offset=".645" style="stop-color:#f6e76a"/><stop id="stop3296" offset="1" style="stop-color:#ffb738"/></radialGradient><radialGradient id="aigrd2" cx="25.053" cy="39.593" r="15.757" gradientTransform="matrix(0.67407527,0,0,-0.67407534,-4.5786179,38.264536)" gradientUnits="userSpaceOnUse"><stop id="stop8602" offset="0" style="stop-color:#343434;stop-opacity:1"/><stop id="stop8604" offset="1" style="stop-color:#000"/></radialGradient><radialGradient id="radialGradient4571" cx="24.714" cy="38.571" r="19.714" gradientTransform="matrix(0.5,0,0,0.166665,-0.33038157,13.859002)" gradientUnits="userSpaceOnUse"><stop id="stop4567" offset="0" style="stop-color:#000"/><stop id="stop4569" offset="1" style="stop-color:#000;stop-opacity:0"/></radialGradient></defs><g id="layer1"><ellipse id="path4563" cx="12.027" cy="20.288" rx="9.857" ry="3.286" style="color:#000;opacity:.53165;fill:url(#radialGradient4571);fill-rule:evenodd;stroke-width:.5"/><circle id="path4320" cx="12" cy="11" r="9.73" style="color:#000;fill:url(#radialGradient2714);fill-rule:evenodd;stroke:#9c8c0a;stroke-width:.539246;stroke-linecap:round;stroke-linejoin:round"/><ellipse id="path4322" cx="12.001" cy="11.001" rx="9.248" ry="9.248" style="color:#000;opacity:.67722;fill:none;stroke:#fff;stroke-width:.539269;stroke-linecap:round;stroke-linejoin:round"/><path id="path1387" d="m 17.257863,15.629251 c -2.007667,-2.245481 -2.999367,-3.036575 -5.151014,-3.036575 -2.103655,0 -3.5046524,0.91027 -5.0555651,3.226932 1.8518198,-1.266182 2.9415963,-2.264634 4.9907841,-2.264634 2.001736,0 3.023161,0.863636 5.215795,2.074277 z" style="color:#000;opacity:.36;fill:#fff;stroke-width:.539259"/><path id="path8606" d="m 17.257863,15.435493 c -2.007667,-2.24548 -2.983742,-3.208989 -5.135389,-3.208989 -2.103655,0 -3.5202774,1.082686 -5.0711901,3.399348 1.8518198,-1.266723 2.9572211,-2.249012 5.0064091,-2.249012 2.001736,0 3.007536,0.847475 5.20017,2.058653 z" style="fill:url(#aigrd2);stroke-width:.539;stroke-miterlimit:4;stroke-dasharray:none"/><g style="stroke-width:.934603" id="g861" transform="matrix(1.1448378,0,0,1,-1.6139068,0)"><path id="path8610" d="m 10.652956,8.0927636 c 0,1.3481508 -0.606668,2.4266714 -1.3481521,2.4266714 -0.7414828,0 -1.4155581,-1.0785206 -1.4155581,-2.4266714 0,-1.3481507 0.6066678,-2.4266713 1.3481506,-2.4266713 0.7414846,0 1.3481526,1.0785206 1.3481526,2.4266713 z" style="opacity:.36;fill:#fff;stroke-width:.503995"/><path id="path8614" d="m 10.740305,7.7557259 c 0,1.3481508 -0.646009,2.4266711 -1.4355759,2.4266711 -0.7895655,0 -1.4355735,-1.0785203 -1.4355735,-2.4266711 0,-1.3481507 0.646008,-2.4266713 1.4355735,-2.4266713 0.7895669,0 1.4355759,1.0785206 1.4355759,2.4266713 z" style="fill:#000;stroke-width:.503995"/></g><g style="stroke-width:.904475" id="g857" transform="matrix(1.2224154,0,0,1,-3.0058366,0)"><path id="path8612" d="m 16.079506,8.0927636 c 0,1.3481508 -0.606668,2.4266714 -1.348151,2.4266714 -0.741482,0 -1.34815,-1.0785206 -1.34815,-2.4266714 0,-1.3481507 0.606668,-2.4266713 1.34815,-2.4266713 0.741483,0 1.348151,1.0785206 1.348151,2.4266713 z" style="opacity:.36;fill:#fff;stroke-width:.487739"/><path id="path8616" d="m 16.079506,7.7557259 c 0,1.3481508 -0.606668,2.4266711 -1.348151,2.4266711 -0.741482,0 -1.34815,-1.0785203 -1.34815,-2.4266711 0,-1.3481507 0.606668,-2.4266713 1.34815,-2.4266713 0.741483,0 1.348151,1.0785206 1.348151,2.4266713 z" style="fill:#000;stroke-width:.487739"/></g></g><metadata id="metadata25"/></svg>