<svg xmlns="http://www.w3.org/2000/svg" xmlns:svg="http://www.w3.org/2000/svg" id="svg1306" width="24" height="24" version="1.1"><defs id="defs1308"><radialGradient id="radialGradient3976" cx="23.857" cy="40" r="17.143" gradientTransform="matrix(1,0,0,0.5,0,20)" gradientUnits="userSpaceOnUse"><stop id="stop4128" offset="0"/><stop id="stop4130" offset="1" stop-opacity="0"/></radialGradient><linearGradient id="linearGradient3980" x1="43.936" x2="20.065" y1="53.836" y2="-8.563" gradientUnits="userSpaceOnUse"><stop id="stop2481" offset="0" stop-color="#ffe69b"/><stop id="stop2483" offset="1" stop-color="#fff"/></linearGradient></defs><metadata id="metadata1311"/><g id="layer2" transform="matrix(0.5,0,0,0.5,-5.9943626e-5,8e-6)"><path id="path6548" d="M 41,40 A 17.143,8.5714 0 1 1 6.714,40 17.143,8.5714 0 1 1 41,40 Z" display="block" transform="matrix(1.0706,0,0,0.525,-0.89276,22.5)" style="color:#000;display:block;opacity:.6;fill:url(#radialGradient3976)"/></g><g id="layer1" transform="matrix(0.5,0,0,0.5,-5.9943626e-5,8e-6)"><g id="g4006"><path id="path1314" d="M 46.857,23.929 C 46.857,36.829 36.4,47.286 23.5,47.286 10.6,47.286 0.143,36.829 0.143,23.929 0.143,11.029 10.6,0.572 23.5,0.572 c 12.9,0 23.357,10.457 23.357,23.357 z" transform="matrix(0.92049,0,0,0.92049,2.3685,0.97408)" style="fill:#3465a4;stroke:#204a87;stroke-width:1.08640003"/><path id="path3560" d="m 49.902,26.635 c 0,13.25 -10.741,23.991 -23.991,23.991 -13.25,0 -23.991,-10.741 -23.991,-23.991 0,-13.25 10.741,-23.991 23.991,-23.991 13.25,0 23.991,10.741 23.991,23.991 z" transform="matrix(0.85448,0,0,0.85448,1.86,0.24062)" style="opacity:.34659005;fill-opacity:0;stroke:url(#linearGradient3980);stroke-width:1.17030001"/></g></g><g id="layer3" transform="matrix(0.5,0,0,0.5,-5.9943626e-5,8e-6)" style="fill:#fff"><path id="path3684" d="M 24,3 C 12.954,3 4,11.954 4,23 c 0,1.6861 0.23214,3.3108 0.625,4.875 3.204,4.7933 13.254,-0.12014 20.219,-5.5938 8.008,-6.2931 17.842,8.3593 19.125,1.4375 0.008,-0.239 0.031,-0.478 0.031,-0.719 0,-11.046 -8.954,-20 -20,-20 z" style="opacity:.25"/><g id="g13674" transform="translate(2.8959,-3.6973)"><path id="text3246" d="m 21.104,13.697 c -0.86423,0.01942 -1.5754,0.30821 -2.1336,0.86638 -0.55819,0.55821 -0.84699,1.2694 -0.86638,2.1336 0.01939,0.86424 0.30819,1.5754 0.86638,2.1336 0.55818,0.55821 1.2694,0.847 2.1336,0.86638 0.86422,-0.01938 1.5754,-0.30817 2.1336,-0.86638 0.55818,-0.55817 0.84697,-1.2694 0.86638,-2.1336 -0.01941,-0.8642 -0.3082,-1.5754 -0.86638,-2.1336 C 22.6794,14.00521 21.9682,13.71642 21.104,13.697 Z"/><path id="path13678" d="m 15.104,21.697 v 3 h 2 c 0.55228,0 1,0.44772 1,1 v 9 c 0,0.55228 -0.44772,1 -1,1 h -2 v 3 h 12 v -3 h -2 c -0.55228,0 -1,-0.44772 -1,-1 v -13 z"/></g></g></svg>