<svg xmlns="http://www.w3.org/2000/svg" xmlns:svg="http://www.w3.org/2000/svg" id="svg12" width="24" height="24" version="1.1"><metadata id="metadata18"/><path style="fill:#e3f2e3;fill-opacity:1;stroke-width:1;stroke-miterlimit:4;stroke-dasharray:none" id="path2" fill="#fff7c9" stroke="#000" stroke-width="2" d="m 3.5,3.5 h 12 v 5 h 5 v 12 h -12 v -5 h -5 z"/><path style="stroke-width:1;stroke-miterlimit:4;stroke-dasharray:none" id="path4" fill="none" stroke="#777" stroke-width="2" d="M 8.5,15 V 8.5 l 6.5,0 M 15.5,9 v 6.5 H 9"/><path style="fill:#b4e4b4;fill-opacity:1" id="path6" fill="#ffd800" d="m 9,9 h 6 v 6 H 9 Z"/><path id="path8" fill="#fff" stroke="#df421e" d="m 1.5,1.5 h 4 v 4 h -4 z m 12,0 h 4 v 4 h -4 z m -12,12 h 4 v 4 h -4 z m 17,-7 h 4 v 4 h -4 z m 0,12 h 4 v 4 h -4 z m -12,0 h 4 v 4 h -4 z"/><path style="stroke-width:.999999" id="path10" fill="#fff" stroke="#eb937e" d="M 6.4999998,6.5000002 H 10.5 V 10.500001 H 6.4999998 Z"/><path id="path10-1" fill="#fff" stroke="#eb937e" d="m 13.499999,13.499999 h 4 V 17.5 h -4 z" style="stroke-width:.999999"/></svg>