<svg xmlns="http://www.w3.org/2000/svg" xmlns:svg="http://www.w3.org/2000/svg" xmlns:xlink="http://www.w3.org/1999/xlink" id="svg54" width="16" height="16" version="1.1" viewBox="42 119 16 16"><metadata id="metadata60"/><linearGradient id="a"><stop id="stop2" offset="0" stop-color="#fff"/><stop id="stop4" offset="1" stop-color="#fff" stop-opacity="0"/></linearGradient><linearGradient id="b" x1="11.5" x2="11.779" y1="20.58" y2="14.26" gradientTransform="matrix(31.442825,0,0,15.721413,163.64608,98.870782)" gradientUnits="userSpaceOnUse" xlink:href="#a"/><linearGradient id="c" x1="14.218" x2="17.859" y1="6.88" y2="3.957" gradientTransform="matrix(31.442825,0,0,14.809689,-182.22526,119.54828)" gradientUnits="userSpaceOnUse" xlink:href="#a"/><linearGradient id="d" x1="10.907" x2="30.875" y1="25.002" y2="36.127" gradientTransform="matrix(0.27180498,0,0,0.28662498,43.482032,120.46309)" gradientUnits="userSpaceOnUse"><stop id="stop9" offset="0" stop-color="#fff"/><stop id="stop11" offset="1" stop-color="#fff" stop-opacity=".495"/></linearGradient><linearGradient id="e" x1="6.727" x2="40.938" y1="32.162" y2="32.162" gradientTransform="matrix(0.29385832,0,0,0.32581782,42.948635,118.80836)" gradientUnits="userSpaceOnUse"><stop id="stop14" offset="0" stop-color="#fce94f"/><stop id="stop16" offset=".21" stop-color="#ffec41"/><stop id="stop18" offset=".84" stop-color="#edd400"/><stop id="stop20" offset="1" stop-color="#c4a00f" stop-opacity=".941"/></linearGradient><linearGradient id="f" x1="31.63" x2="8.671" y1="41.792" y2="25.794" gradientTransform="matrix(0.29385832,0,0,0.32581782,42.948635,119.14403)" gradientUnits="userSpaceOnUse"><stop id="stop23" offset="0" stop-color="#8f5902"/><stop id="stop25" offset="1" stop-color="#c17d11"/></linearGradient><linearGradient id="g" x1="12.887" x2="20.087" y1="4.36" y2="18.414" gradientTransform="matrix(0.28787009,0,0,0.30327025,42.91536,119.62284)" gradientUnits="userSpaceOnUse"><stop id="stop28" offset="0" stop-color="#babdb6"/><stop id="stop30" offset=".5" stop-color="#eeeeec"/><stop id="stop32" offset="1" stop-color="#babdb6"/></linearGradient><linearGradient id="h" x1="19.251" x2="16.198" y1="9.664" y2="6.04" gradientTransform="matrix(0.28787009,0,0,0.30327025,42.91536,119.62284)" gradientUnits="userSpaceOnUse"><stop id="stop35" offset="0" stop-color="#555753"/><stop id="stop37" offset="1" stop-color="#888a85"/></linearGradient><path id="path42" d="m 45.919302,126.43429 v -2.33052 c 0,-2.38677 1.572501,-3.47492 3.910701,-3.44509 2.350931,0.0299 3.903067,1.06823 3.903067,3.48308 l -0.0039,2.29253 h -1.434357 v -1.69234 c -0.03853,-0.58744 0.160047,-2.55515 -2.448353,-2.55515 -2.626395,0 -2.472019,1.97482 -2.46261,2.56685 v 1.68064 h -1.464535 z" style="fill:url(#g);fill-rule:evenodd;stroke:url(#h);stroke-width:.71615541"/><rect style="fill:url(#e);fill-rule:evenodd;stroke:url(#f);stroke-width:.71615547;stroke-linecap:round;stroke-linejoin:round" id="rect44" width="10.284" height="7.177" x="44.858" y="126.465" rx="1.587" ry="1.744"/><rect style="fill:none;stroke:url(#d);stroke-width:.71615613;stroke-linecap:round;stroke-linejoin:round;stroke-opacity:.60109301" id="rect46" width="8.978" height="5.756" x="45.512" y="127.17" rx=".994" ry="1.197"/><g id="g52" transform="matrix(0.01869159,0,0,0.01901541,43.122272,117.63448)" style="fill-rule:evenodd"><path id="path48" d="m 163.64595,347.00672 c 4.16875,-92.93931 30.00738,-162.92832 202.36234,-168.86158 -111.60142,15.72802 -172.30435,48.31298 -172.30435,145.47854 0,0 -2.78392,120.42879 -2.78392,120.42879 h -27.27407 z" style="fill:url(#c)"/><path id="path50" d="m 509.51706,287.52774 h 31.44282 v 157.21413 h -31.44282 z" style="fill:url(#b)"/></g></svg>