<svg xmlns="http://www.w3.org/2000/svg" xmlns:svg="http://www.w3.org/2000/svg" xmlns:xlink="http://www.w3.org/1999/xlink" id="svg13" width="16" height="16" version="1.1"><metadata id="metadata17"/><defs id="defs7"><linearGradient id="gradient" x1="2.352" x2="13.992" y1="2.501" y2="14.141" gradientTransform="matrix(1.0401188,0,0,0.96142865,-16,0)" gradientUnits="userSpaceOnUse"><stop id="stop2" offset="30%" stop-color="#fde411"/><stop id="stop4" offset="70%" stop-color="#fbb41b"/></linearGradient><radialGradient id="radialGradient3271" cx="38.659" cy="9.341" r="8.342" fx="38.659" fy="9.341" gradientTransform="matrix(1.14985,0,0,1.14985,92.404762,0.490895)" gradientUnits="userSpaceOnUse" xlink:href="#linearGradient2378"/><linearGradient id="linearGradient2378"><stop style="stop-color:#fff;stop-opacity:1" id="stop2380" offset="0"/><stop id="stop4146" offset=".25" style="stop-color:#fefede;stop-opacity:.91836733"/><stop id="stop2386" offset=".5" style="stop-color:#f5f328;stop-opacity:1"/><stop style="stop-color:#f5f32d;stop-opacity:.12234043" id="stop2382" offset="1"/></linearGradient></defs><path style="fill:#bee6be;fill-opacity:1;stroke:none;stroke-width:1px;stroke-linecap:butt;stroke-linejoin:miter;stroke-opacity:1" id="path945" d="M 13,13 H 6 V 11 L 11,8 6,6 V 3 h 7 z"/><rect style="fill:#bee6be;fill-opacity:1;stroke:none;stroke-width:1;stroke-linecap:round;stroke-miterlimit:4;stroke-dasharray:none" id="rect941" width="3" height="10" x="3" y="3"/><path style="fill:none;stroke:#000;stroke-width:1px;stroke-linecap:butt;stroke-linejoin:miter;stroke-opacity:1" id="path939" d="m 5.5,10.5 5,-2 -5,-3 z"/><rect style="fill:none;stroke:#000;stroke-width:1;stroke-linecap:round;stroke-miterlimit:4;stroke-dasharray:none" id="rect901" width="11" height="11" x="2.5" y="2.5"/><rect style="opacity:1;fill:#fff;fill-opacity:1;fill-rule:nonzero;stroke:#df421e;stroke-width:1;stroke-linecap:round;stroke-linejoin:miter;stroke-miterlimit:4;stroke-dasharray:none;stroke-dashoffset:1;stroke-opacity:1;paint-order:normal" id="rect900-926-1-3" width="2" height="2" x="12.5" y="12.5"/><rect style="opacity:1;fill:#fff;fill-opacity:1;fill-rule:nonzero;stroke:#df421e;stroke-width:1;stroke-linecap:round;stroke-linejoin:miter;stroke-miterlimit:4;stroke-dasharray:none;stroke-dashoffset:1;stroke-opacity:1;paint-order:normal" id="rect900-926-2-5" width="2" height="2" x="1.5" y="12.5"/><rect style="opacity:1;fill:#fff;fill-opacity:1;fill-rule:nonzero;stroke:#df421e;stroke-width:1;stroke-linecap:round;stroke-linejoin:miter;stroke-miterlimit:4;stroke-dasharray:none;stroke-dashoffset:1;stroke-opacity:1;paint-order:normal" id="rect900-926-1-4-36" width="2" height="2" x="12.5" y="1.5"/><rect style="opacity:1;fill:#fff;fill-opacity:1;fill-rule:nonzero;stroke:#df421e;stroke-width:1;stroke-linecap:round;stroke-linejoin:miter;stroke-miterlimit:4;stroke-dasharray:none;stroke-dashoffset:1;stroke-opacity:1;paint-order:normal" id="rect900-926-1-4-3-0" width="2" height="2" x="1.5" y="1.5"/><rect id="rect900-926-1-4-3-0-0" width="2" height="2" x="4.5" y="4.5" style="opacity:1;fill:#fff;fill-opacity:1;fill-rule:nonzero;stroke:#df421e;stroke-width:1;stroke-linecap:round;stroke-linejoin:miter;stroke-miterlimit:4;stroke-dasharray:none;stroke-dashoffset:1;stroke-opacity:1;paint-order:normal"/><rect style="opacity:1;fill:#fff;fill-opacity:1;fill-rule:nonzero;stroke:#df421e;stroke-width:1;stroke-linecap:round;stroke-linejoin:miter;stroke-miterlimit:4;stroke-dasharray:none;stroke-dashoffset:1;stroke-opacity:1;paint-order:normal" id="rect900-926-1-4-3-0-0-1" width="2" height="2" x="4.5" y="9.5"/><rect style="opacity:1;fill:#fff;fill-opacity:1;fill-rule:nonzero;stroke:#df421e;stroke-width:1;stroke-linecap:round;stroke-linejoin:miter;stroke-miterlimit:4;stroke-dasharray:none;stroke-dashoffset:1;stroke-opacity:1;paint-order:normal" id="rect900-926-1-4-3-0-0-3" width="2" height="2" x="9.5" y="7.5"/><g style="display:inline" id="g874" transform="matrix(0.36490083,0,0,0.36490083,-37.439103,-0.59849665)"><circle id="path2388" cx="136.857" cy="11.232" r="9.592" style="fill:url(#radialGradient3271);fill-opacity:1;fill-rule:evenodd;stroke:none;stroke-width:1.14985px;stroke-linecap:butt;stroke-linejoin:miter;stroke-opacity:1"/><path id="path1345" d="m 44.520054,15.50279 c -0.507171,0.878446 -4.594703,-0.160823 -5.521351,0.251748 -0.926648,0.41257 -2.889414,4.145604 -3.88159,3.934711 -0.992177,-0.210894 -1.266891,-4.419519 -1.945618,-5.173323 -0.678728,-0.753803 -4.835582,-1.466933 -4.94161,-2.475719 -0.106028,-1.008786 3.811722,-2.5705906 4.318893,-3.4490369 0.507171,-0.8784463 -0.09914,-5.0522193 0.827507,-5.4647895 0.926648,-0.4125703 3.622664,2.8308064 4.614841,3.0417001 0.992176,0.2108936 4.77431,-1.6555099 5.453037,-0.9017066 0.678728,0.7538034 -1.572792,4.3201254 -1.466764,5.3289109 0.106027,1.008786 3.049826,4.029058 2.542655,4.907505 z" transform="matrix(0.674116,0.299577,-0.299577,0.674116,115.46429,-7.192469)" style="color:#000;display:inline;overflow:visible;visibility:visible;opacity:1;fill:#fff;fill-opacity:1;fill-rule:evenodd;stroke:none;stroke-width:.5;stroke-linecap:butt;stroke-linejoin:miter;stroke-miterlimit:4;stroke-dasharray:none;stroke-dashoffset:0;stroke-opacity:1;marker:none;marker-start:none;marker-mid:none;marker-end:none"/></g></svg>