<svg xmlns="http://www.w3.org/2000/svg" xmlns:svg="http://www.w3.org/2000/svg" xmlns:xlink="http://www.w3.org/1999/xlink" id="svg2" width="24" height="24" version="1.1" viewBox="0 0 24 24"><defs id="defs4"><linearGradient id="path3873_7_" x1="56.017" x2="56.017" y1="-15.335" y2="22.229" gradientTransform="matrix(0.59662907,0,0,-0.59662907,-20.918052,1042.846)" gradientUnits="userSpaceOnUse"><stop id="stop3102" offset="0" stop-color="#C72118"/><stop id="stop3104" offset="1" stop-color="#D2534F"/></linearGradient><linearGradient id="path3873_8_" x1="-35.564" x2="-35.564" y1="3.176" y2="22.228" gradientTransform="matrix(0.59662907,0,0,-0.59662907,33.721238,1042.8454)" gradientUnits="userSpaceOnUse"><stop id="stop3107" offset="0" stop-color="#983A38"/><stop id="stop3109" offset="1" stop-color="#B83D3B"/></linearGradient><linearGradient id="path3873_7_-2" x1="56.017" x2="56.017" y1="-15.335" y2="22.229" gradientTransform="matrix(1,0,0,-1,-28.706,44.038)" gradientUnits="userSpaceOnUse"><stop id="stop3102-9" offset="0" stop-color="#C72118"/><stop id="stop3104-3" offset="1" stop-color="#D2534F"/></linearGradient><linearGradient id="path3873_8_-4" x1="-35.564" x2="-35.564" y1="3.176" y2="22.228" gradientTransform="matrix(1,0,0,-1,62.874,44.037)" gradientUnits="userSpaceOnUse"><stop id="stop3107-3" offset="0" stop-color="#983A38"/><stop id="stop3109-0" offset="1" stop-color="#B83D3B"/></linearGradient><linearGradient id="linearGradient3250" x1="3.5" x2="46.779" y1="35.743" y2="45.743" gradientUnits="userSpaceOnUse" xlink:href="#linearGradient3244"/><linearGradient id="linearGradient3244"><stop style="stop-color:#000;stop-opacity:0" id="stop3246" offset="0"/><stop id="stop3274" offset=".081" style="stop-color:#000;stop-opacity:0"/><stop style="stop-color:#000;stop-opacity:.24705882" id="stop3276" offset=".615"/><stop id="stop3272" offset=".749" style="stop-color:#000;stop-opacity:.49803922"/><stop style="stop-color:#000;stop-opacity:1" id="stop3248" offset="1"/></linearGradient><filter id="filter3268" width="1.177" height="1.767" x="-.089" y="-.384"><feGaussianBlur id="feGaussianBlur3270" stdDeviation="1.598"/></filter><radialGradient id="radialGradient4925" cx="17.062" cy="28.851" r="13.5" fx="17.062" fy="28.851" gradientTransform="matrix(0.60045495,0,0,0.54340803,4.6528512,1031.5265)" gradientUnits="userSpaceOnUse" xlink:href="#linearGradient4919"/><linearGradient id="linearGradient4919"><stop style="stop-color:#fefeff;stop-opacity:1" id="stop4921" offset="0"/><stop style="stop-color:#545454;stop-opacity:1" id="stop4923" offset="1"/></linearGradient><radialGradient id="radialGradient4960" cx="16.83" cy="24.744" r="16.925" fx="16.83" fy="24.744" gradientTransform="matrix(0.77451997,-0.20753197,0.18406022,0.6869505,16.934657,1030.6002)" gradientUnits="userSpaceOnUse" xlink:href="#linearGradient4952"/><linearGradient id="linearGradient4952"><stop style="stop-color:#fff;stop-opacity:1" id="stop4954" offset="0"/><stop style="stop-color:#fff;stop-opacity:0" id="stop4956" offset="1"/></linearGradient><radialGradient id="radialGradient1411" cx="59.787" cy="10.902" r="10.556" fx="59.787" fy="10.902" gradientTransform="matrix(0,-0.93672302,0.9238108,0,8.8744006,1102.8288)" gradientUnits="userSpaceOnUse" xlink:href="#linearGradient2617"/><linearGradient id="linearGradient2617"><stop id="stop2619" offset="0" style="stop-color:#fbfbfa;stop-opacity:1"/><stop id="stop2621" offset="1" style="stop-color:#d3d7cf"/></linearGradient><linearGradient id="linearGradient1421" x1="81.332" x2="82.92" y1="55.107" y2="53.511" gradientUnits="userSpaceOnUse" xlink:href="#linearGradient2698"/><linearGradient id="linearGradient2698"><stop id="stop2700" offset="0" style="stop-color:#555753"/><stop style="stop-color:#a3a5a2;stop-opacity:1" id="stop2706" offset=".702"/><stop id="stop2702" offset="1" style="stop-color:#888a85"/></linearGradient><linearGradient id="linearGradient1423" x1="81.096" x2="83.629" y1="57.148" y2="54.615" gradientUnits="userSpaceOnUse" xlink:href="#linearGradient2690"/><linearGradient id="linearGradient2690"><stop id="stop2692" offset="0" style="stop-color:#2e3436"/><stop id="stop2694" offset="1" style="stop-color:#555753"/></linearGradient><linearGradient id="linearGradient19906" x1="40.25" x2="43.063" y1="41" y2="38.435" gradientTransform="matrix(0.34711773,0,0,0.34711773,7.2613806,1036.3269)" gradientUnits="userSpaceOnUse" xlink:href="#linearGradient19900"/><linearGradient id="linearGradient19900"><stop style="stop-color:#888a85" id="stop19902" offset="0"/><stop style="stop-color:#d3d7cf" id="stop19904" offset="1"/></linearGradient><linearGradient id="linearGradient19920" x1="33.985" x2="37.211" y1="32.046" y2="35.272" gradientTransform="matrix(0.34711773,0,0,0.34711773,7.2613806,1036.3269)" gradientUnits="userSpaceOnUse" xlink:href="#linearGradient19914"/><linearGradient id="linearGradient19914"><stop style="stop-color:#000;stop-opacity:1" id="stop19916" offset="0"/><stop style="stop-color:#000;stop-opacity:0" id="stop19918" offset="1"/></linearGradient><radialGradient id="radialGradient1409" cx="45.095" cy="-2.694" r="10.498" fx="45.095" fy="-2.694" gradientTransform="matrix(0,0.65490041,-0.71433635,-7.1511758e-7,8.7323787,1009.6166)" gradientUnits="userSpaceOnUse" xlink:href="#linearGradient2609"/><linearGradient id="linearGradient2609"><stop id="stop2611" offset="0" style="stop-color:#fff;stop-opacity:1"/><stop id="stop2613" offset="1" style="stop-color:#eeeeec"/></linearGradient><linearGradient id="linearGradient4937" x1="54.113" x2="50.08" y1="12.847" y2="-3.881" gradientTransform="matrix(0.50442177,0,0,0.50442281,-11.584175,1040.9993)" gradientUnits="userSpaceOnUse" xlink:href="#linearGradient4931"/><linearGradient id="linearGradient4931"><stop style="stop-color:#babdb6;stop-opacity:1" id="stop4933" offset="0"/><stop style="stop-color:#888a85" id="stop4935" offset="1"/></linearGradient><radialGradient id="radialGradient11108" cx="8.04" cy="9.528" r="9.813" fx="8.04" fy="9.528" gradientTransform="matrix(0.4354227,0,0,0.4354227,9.422848,1037.5492)" gradientUnits="userSpaceOnUse" xlink:href="#linearGradient4952"/></defs><metadata id="metadata7"/><g id="layer1" transform="translate(0,-1029.3622)"><g id="g1057" transform="matrix(0.54693276,0,0,0.54690998,-2.4333055,1018.6376)"><path id="path3925" d="m 17.566,30.771 5.7167,-6.1325 9.4586,0.20788 4.4695,7.068 -2.8064,11.33 -8.835,0.72759 -5.4049,-1.4552 -2.3906,-6.4443 z" style="fill:#fff"/><g id="g3099" style="stroke-width:1.10000002;stroke-linecap:round"><linearGradient id="linearGradient1078" x1="56.017" x2="56.017" y1="-15.335" y2="22.229" gradientTransform="matrix(1,0,0,-1,-28.706,44.038)" gradientUnits="userSpaceOnUse"><stop id="stop1074" offset="0" stop-color="#C72118"/><stop id="stop1076" offset="1" stop-color="#D2534F"/></linearGradient><linearGradient id="linearGradient1084" x1="-35.564" x2="-35.564" y1="3.176" y2="22.228" gradientTransform="matrix(1,0,0,-1,62.874,44.037)" gradientUnits="userSpaceOnUse"><stop id="stop1080" offset="0" stop-color="#983A38"/><stop id="stop1082" offset="1" stop-color="#B83D3B"/></linearGradient><path id="path3873_3_" d="m 27.355,21.988 c -6.572,0 -12.044,5.691 -12.044,11.865 0,2.777 1.563,6.309 2.693,8.747 L 27.311,60.471 36.573,42.6 c 1.13,-2.438 2.737,-5.792 2.737,-8.747 10e-4,-6.174 -5.382,-11.865 -11.955,-11.865 z m 2.875,12.86 3.547,-3.547 c 0.781,-0.781 0.781,-2.047 0,-2.828 -0.782,-0.781 -2.049,-0.781 -2.829,0 l -3.547,3.547 -3.547,-3.547 c -0.779,-0.781 -2.047,-0.781 -2.828,0 -0.781,0.781 -0.781,2.047 0,2.828 l 3.547,3.547 -3.547,3.546 c -0.781,0.78 -0.781,2.048 0,2.828 0.391,0.391 0.902,0.586 1.414,0.586 0.512,0 1.024,-0.195 1.414,-0.586 l 3.547,-3.546 3.547,3.546 c 0.39,0.391 0.902,0.586 1.414,0.586 0.512,0 1.023,-0.195 1.415,-0.586 0.781,-0.78 0.781,-2.048 0,-2.828 z" connector-curvature="0" export-filename="C:\Users\dave.STK\Desktop\git\Leaflet\Leaflet\dist\images\marker-icon@2x.png" export-xdpi="180" export-ydpi="180" nodetypes="zscccszcscsc" style="clip-rule:evenodd;fill:url(#path3873_7_-2);fill-rule:evenodd;stroke:url(#path3873_8_-4)"/><path id="path3792_3_" d="m 27.343,23.093 c -5.944,0 -10.938,5.221 -10.938,10.75 0,2.359 1.442,5.832 2.562,8.25 0.005,0.012 0.025,0.021 0.03,0.031 l 8.313,15.969 8.25,-15.969 c 0.005,-0.012 0.025,-0.02 0.03,-0.031 1.136,-2.448 2.625,-5.706 2.625,-8.25 0.002,-5.537 -4.929,-10.75 -10.872,-10.75 z m 5.02,3.706 c -0.829,0 -1.607,0.323 -2.193,0.909 l -2.768,2.769 -2.769,-2.77 c -0.585,-0.585 -1.363,-0.908 -2.192,-0.908 -0.828,0 -1.607,0.323 -2.191,0.909 -0.586,0.585 -0.908,1.363 -0.908,2.191 0,0.828 0.322,1.606 0.908,2.192 l 2.769,2.768 -2.769,2.77 c -0.586,0.584 -0.908,1.363 -0.908,2.191 0,0.828 0.322,1.607 0.908,2.191 0.585,0.586 1.363,0.908 2.191,0.908 0.829,0 1.607,-0.322 2.193,-0.908 l 2.768,-2.767 2.769,2.767 c 0.585,0.586 1.363,0.908 2.192,0.908 0.828,0 1.607,-0.322 2.191,-0.908 0.586,-0.583 0.908,-1.363 0.908,-2.191 0,-0.828 -0.322,-1.607 -0.908,-2.191 l -2.769,-2.77 2.769,-2.768 c 0.586,-0.586 0.908,-1.364 0.908,-2.192 0,-0.828 -0.322,-1.606 -0.908,-2.192 -0.583,-0.584 -1.363,-0.908 -2.191,-0.908 z" export-filename="C:\Users\dave.STK\Desktop\git\Leaflet\Leaflet\dist\images\marker-icon@2x.png" export-xdpi="180" export-ydpi="180" original="M 416.53125 503.625 C 409.95868 503.625 404.5 509.29393 404.5 515.46875 C 404.5 518.24668 406.05726 521.78106 407.1875 524.21875 L 416.5 542.09375 L 425.75 524.21875 C 426.88024 521.78106 428.5 518.42346 428.5 515.46875 C 428.5 509.29393 423.10382 503.625 416.53125 503.625 z M 416.53125 510.78125 C 419.11574 510.79795 421.21875 512.88037 421.21875 515.46875 C 421.21875 518.05715 419.11574 520.13969 416.53125 520.15625 C 413.94676 520.13975 411.875 518.05715 411.875 515.46875 C 411.875 512.88038 413.94676 510.79802 416.53125 510.78125 z" radius="-1.093" type="inkscape:offset" style="fill:none;stroke:#fff;stroke-opacity:.12159998"/></g></g><path style="display:inline;overflow:visible;visibility:visible;opacity:.6;fill:url(#linearGradient3250);fill-opacity:1;fill-rule:nonzero;stroke:none;stroke-width:.67653471;stroke-linecap:round;stroke-linejoin:round;stroke-miterlimit:4;stroke-dashoffset:0;stroke-opacity:1;marker:none;marker-start:none;marker-mid:none;marker-end:none;filter:url(#filter3268)" id="path2462" d="m 21,35.742942 c -9.66,0 -17.5,1.813013 -17.5,4.046903 0,2.233891 7.84,4.046903 17.5,4.046903 4.496436,0 8.586827,-0.395406 11.6875,-1.040632 L 33.5,43.742802 c 0.02528,0.0212 0.08684,0.04271 0.15625,0.05781 l 7.96875,1.85724 c 0.356813,0.08259 0.882656,0.1013 1.53125,0.07227 0.648594,-0.02903 1.411565,-0.124081 2.21875,-0.310744 0.800523,-0.185122 1.205812,-0.349872 1.34375,-0.498637 0.137937,-0.148764 0.03928,-0.279981 -0.3125,-0.36133 L 38.375,42.716623 c -0.07874,-0.01787 -0.171854,-0.03236 -0.28125,-0.03613 L 34,42.492598 c 2.790145,-0.717035 4.5,-1.662945 4.5,-2.702753 0,-2.23389 -7.84,-4.046903 -17.5,-4.046903 z" transform="matrix(0.34711773,0,0,0.31240596,8.1291749,1038.1775)"/><ellipse style="color:#000;display:inline;overflow:visible;visibility:visible;opacity:.6;fill:url(#radialGradient4925);fill-opacity:1;fill-rule:nonzero;stroke:none;stroke-width:.81528348;stroke-linecap:round;stroke-linejoin:round;stroke-miterlimit:4;stroke-dasharray:none;stroke-dashoffset:0;stroke-opacity:1;marker:none;marker-start:none;marker-mid:none;marker-end:none" id="path1425" cx="14.898" cy="1043.269" rx="5.554" ry="5.554"/><path style="color:#000;display:inline;overflow:visible;visibility:visible;opacity:.5;fill:url(#radialGradient4960);fill-opacity:1;fill-rule:nonzero;stroke:none;stroke-width:.69423544;stroke-linecap:round;stroke-linejoin:round;stroke-miterlimit:4;stroke-dasharray:none;stroke-dashoffset:0;stroke-opacity:1;marker:none;marker-start:none;marker-mid:none;marker-end:none" id="path4939" d="m 34.699924,1037.5418 c -2.956111,0.1124 -5.320924,2.5511 -5.320924,5.5345 0,0.839 0.487047,1.6391 0.864777,2.3299 -0.163864,-1.8843 0.647936,-2.2956 1.186989,-2.1283 1.635446,0.5078 4.473425,0.9693 7.38914,-0.5531 1.022146,-0.5337 1.618216,0.7739 1.577374,-0.4013 -0.326096,-2.7057 -2.68321,-4.7817 -5.483705,-4.7817 -0.0716,0 -0.142704,0 -0.213651,0 z"/><circle id="path2607" cx="14.898" cy="1043.269" r="5.554" style="color:#000;display:inline;overflow:visible;visibility:visible;fill:none;fill-opacity:1;fill-rule:nonzero;stroke:url(#radialGradient1411);stroke-width:1.04135311;stroke-linecap:round;stroke-linejoin:miter;stroke-miterlimit:4;stroke-dasharray:none;stroke-dashoffset:0;stroke-opacity:1;marker:none;marker-start:none;marker-mid:none;marker-end:none"/><g id="g2708" transform="matrix(0.53596783,0,0,0.53317839,-22.09699,1020.8992)"><path style="color:#000;display:inline;overflow:visible;visibility:visible;fill:url(#linearGradient1421);fill-opacity:1;fill-rule:nonzero;stroke:url(#linearGradient1423);stroke-width:.67653471;stroke-linecap:round;stroke-linejoin:round;stroke-miterlimit:4;stroke-dashoffset:0;stroke-opacity:1;marker:none;marker-start:none;marker-mid:none;marker-end:none" id="path2682" d="m 76.796351,49.768459 0.647647,3.255175 5.181173,5.213494 c 0.192503,0.193704 0.97147,0.320302 1.942939,-0.65625 0.97147,-0.976552 0.895574,-1.70388 0.647647,-1.953105 l -5.181173,-5.208279 z"/><path style="color:#000;display:inline;overflow:visible;visibility:visible;opacity:.19215686;fill:#fff;fill-opacity:1;fill-rule:nonzero;stroke:none;stroke-width:.99999964;stroke-linecap:round;stroke-linejoin:miter;stroke-miterlimit:4;stroke-dashoffset:0;stroke-opacity:1;marker:none;marker-start:none;marker-mid:none;marker-end:none" id="path2687" d="m 79.567301,51.320041 c -0.003,0.0112 0.294101,0.324318 -0.245291,0.864982 -0.539399,0.540663 -1.007144,0.373988 -0.993486,0.360259 l -0.269149,-1.521577 z"/></g><path id="path17267" d="m 19.509306,1047.8784 0.216104,1.1112 2.603243,2.6204 c 0.128029,0.1288 0.324156,0.076 0.64831,-0.2486 0.324156,-0.3241 0.407734,-0.4864 0.246786,-0.6483 l -2.603243,-2.6186 z" style="color:#000;display:inline;overflow:visible;visibility:visible;opacity:1;fill:none;fill-opacity:1;fill-rule:nonzero;stroke:url(#linearGradient19906);stroke-width:.34711751;stroke-linecap:round;stroke-linejoin:miter;stroke-miterlimit:4;stroke-dasharray:none;stroke-dashoffset:0;stroke-opacity:1;marker:none;marker-start:none;marker-mid:none;marker-end:none"/><path style="color:#000;display:inline;overflow:visible;visibility:visible;opacity:.15294118;fill:url(#linearGradient19920);fill-opacity:1;fill-rule:nonzero;stroke:none;stroke-width:.23483719;stroke-linecap:round;stroke-linejoin:round;stroke-miterlimit:4;stroke-dashoffset:0;stroke-opacity:1;marker:none;marker-start:none;marker-mid:none;marker-end:none" id="path19908" d="m 19.005043,1047.2582 c -0.09019,0.03 -0.141397,0.1249 -0.117243,0.2166 l 0.351728,1.7328 c 0.0088,0.032 0.02615,0.061 0.05025,0.083 l 2.763584,2.7825 c 0.123857,0.124 0.31083,0.1602 0.535968,0.1167 0.225139,-0.044 0.490266,-0.1864 0.770454,-0.4666 0.277876,-0.2778 0.421091,-0.5264 0.468972,-0.7498 0.04788,-0.2233 0.0049,-0.4277 -0.117244,-0.5498 l -2.780332,-2.7659 c -0.02733,-0.027 -0.06252,-0.044 -0.100494,-0.05 l -1.725147,-0.3499 c -0.03283,-0.01 -0.06767,-0.01 -0.100494,0 z"/><circle id="path2605" cx="14.898" cy="1043.269" r="5.727" style="color:#000;display:inline;overflow:visible;visibility:visible;fill:none;fill-opacity:1;fill-rule:nonzero;stroke:url(#radialGradient1409);stroke-width:.34711781;stroke-linecap:round;stroke-linejoin:miter;stroke-miterlimit:4;stroke-dasharray:none;stroke-dashoffset:0;stroke-opacity:1;marker:none;marker-start:none;marker-mid:none;marker-end:none"/><circle id="path2599" cx="14.898" cy="1043.269" r="6.075" style="color:#000;display:inline;overflow:visible;visibility:visible;fill:none;fill-opacity:1;fill-rule:nonzero;stroke:#4f504d;stroke-width:.34711751;stroke-linecap:round;stroke-linejoin:miter;stroke-miterlimit:4;stroke-dasharray:none;stroke-dashoffset:0;stroke-opacity:1;marker:none;marker-start:none;marker-mid:none;marker-end:none"/><ellipse id="path4927" cx="14.898" cy="1043.269" rx="5.044" ry="5.044" style="color:#000;display:inline;overflow:visible;visibility:visible;fill:none;fill-opacity:1;fill-rule:nonzero;stroke:url(#linearGradient4937);stroke-width:.3471179;stroke-linecap:round;stroke-linejoin:miter;stroke-miterlimit:4;stroke-dasharray:none;stroke-dashoffset:0;stroke-opacity:1;marker:none;marker-start:none;marker-mid:none;marker-end:none"/><circle style="color:#000;display:inline;overflow:visible;visibility:visible;opacity:.16078431;fill:url(#radialGradient11108);fill-opacity:1;fill-rule:nonzero;stroke:none;stroke-width:.45987615;stroke-linecap:round;stroke-linejoin:miter;stroke-miterlimit:4;stroke-dasharray:none;stroke-dashoffset:0;stroke-opacity:1;marker:none;marker-start:none;marker-mid:none;marker-end:none" id="path11092" cx="14.898" cy="1043.269" r="4.513"/></g></svg>