<svg xmlns="http://www.w3.org/2000/svg" xmlns:svg="http://www.w3.org/2000/svg" xmlns:xlink="http://www.w3.org/1999/xlink" id="svg5105" width="16" height="16" version="1.1" viewBox="0 0 16 16" xml:space="preserve"><metadata id="metadata5189"/><defs id="defs5187"><linearGradient id="linearGradient6684"><stop style="stop-color:#d5dbff;stop-opacity:1" id="stop6686" offset="0"/><stop style="stop-color:#6579ff;stop-opacity:0" id="stop6688" offset="1"/></linearGradient><linearGradient id="linearGradient6665"><stop id="stop6667" offset="0" style="stop-color:#000;stop-opacity:1"/><stop id="stop6669" offset="1" style="stop-color:#000;stop-opacity:0"/></linearGradient><linearGradient id="linearGradient6625"><stop style="stop-color:#1d2349;stop-opacity:1" id="stop6627" offset="0"/><stop id="stop6637" offset=".353" style="stop-color:#4c5279;stop-opacity:1"/><stop id="stop6633" offset=".466" style="stop-color:#b3bdff;stop-opacity:1"/><stop style="stop-color:#727cbe;stop-opacity:1" id="stop6635" offset=".65"/><stop style="stop-color:#323c7e;stop-opacity:1" id="stop6629" offset="1"/></linearGradient><linearGradient id="linearGradient6617"><stop style="stop-color:#fff;stop-opacity:.24742268" id="stop6619" offset="0"/><stop style="stop-color:#fff;stop-opacity:0" id="stop6621" offset="1"/></linearGradient><linearGradient id="linearGradient6604"><stop style="stop-color:#ffa196;stop-opacity:1" id="stop6606" offset="0"/><stop style="stop-color:#ff1f06;stop-opacity:0" id="stop6608" offset="1"/></linearGradient><radialGradient id="radialGradient5199" cx="28.789" cy="20.971" r="13.281" fx="28.789" fy="20.971" gradientUnits="userSpaceOnUse" xlink:href="#aigrd1"/><radialGradient id="radialGradient5201" cx="19.292" cy="13.544" r="14.694" fx="19.292" fy="13.544" gradientUnits="userSpaceOnUse" xlink:href="#aigrd2"/><linearGradient id="linearGradient5203" x1="18.229" x2="23.412" y1="11.599" y2="16.723" gradientUnits="userSpaceOnUse" xlink:href="#aigrd3"/><radialGradient id="aigrd1" cx="28.789" cy="20.971" r="13.281" fx="28.789" fy="20.971" gradientUnits="userSpaceOnUse"><stop style="stop-color:#e41e08" id="stop5115" offset="0"/><stop style="stop-color:#901505" id="stop5117" offset="1"/></radialGradient><radialGradient id="aigrd2" cx="19.292" cy="13.544" r="14.694" fx="19.292" fy="13.544" gradientUnits="userSpaceOnUse"><stop style="stop-color:#e41e08" id="stop5122" offset="0"/><stop style="stop-color:#901505" id="stop5124" offset="1"/></radialGradient><linearGradient id="aigrd3" x1="18.229" x2="23.412" y1="11.599" y2="16.723" gradientUnits="userSpaceOnUse"><stop style="stop-color:#fff" id="stop5137" offset="0"/><stop style="stop-color:#901505" id="stop5139" offset="1"/></linearGradient><linearGradient id="linearGradient5274" x1="18.229" x2="23.412" y1="11.599" y2="16.723" gradientTransform="matrix(1.135551,0,0,1.135551,-3.259995,-3.266773)" gradientUnits="userSpaceOnUse" xlink:href="#aigrd3"/><radialGradient id="radialGradient5281" cx="19.292" cy="13.544" r="14.694" fx="19.292" fy="13.544" gradientTransform="matrix(1.135551,0,0,1.135551,-4.540325,-2.077433)" gradientUnits="userSpaceOnUse" xlink:href="#aigrd2"/><radialGradient id="radialGradient5284" cx="28.789" cy="20.971" r="13.281" fx="28.789" fy="20.971" gradientTransform="matrix(-0.43679533,0,0,0.43679533,18.92759,-1.458659)" gradientUnits="userSpaceOnUse" xlink:href="#aigrd1"/><linearGradient id="linearGradient6610" x1="15.339" x2="43.141" y1="5.924" y2="49.895" gradientTransform="matrix(-0.32524266,0,0,0.31034433,16.090696,0.65946399)" gradientUnits="userSpaceOnUse" xlink:href="#linearGradient6604"/><linearGradient id="linearGradient6623" x1="18.57" x2="29.957" y1="9.444" y2="22.783" gradientTransform="matrix(-0.34289,0,0,0.324043,16.473472,0.39644666)" gradientUnits="userSpaceOnUse" xlink:href="#linearGradient6617"/><linearGradient id="linearGradient6631" x1="38.506" x2="38.251" y1="22.886" y2="35.018" gradientTransform="matrix(-0.28131266,0,0,0.394974,16.473472,0.56311333)" gradientUnits="userSpaceOnUse" xlink:href="#linearGradient6625"/><radialGradient id="radialGradient6663" cx="24.452" cy="19.819" r="33.156" fx="24.452" fy="19.819" gradientTransform="matrix(-0.34149266,0,0,0.325369,15.733583,-0.17677633)" gradientUnits="userSpaceOnUse" xlink:href="#linearGradient6665"/><radialGradient id="radialGradient6675" cx="24.452" cy="19.819" r="33.156" fx="24.452" fy="19.819" gradientTransform="matrix(-0.34149266,0,0,0.325369,15.49788,-0.11785067)" gradientUnits="userSpaceOnUse" xlink:href="#linearGradient6665"/><radialGradient id="radialGradient6678" cx="26.887" cy="20.479" r="14.694" fx="26.887" fy="20.479" gradientTransform="matrix(-0.378517,0,0,0.378517,17.560137,-0.69247766)" gradientUnits="userSpaceOnUse" xlink:href="#aigrd2"/><linearGradient id="linearGradient6690" x1="37.503" x2="36.499" y1="35.458" y2="27.404" gradientTransform="matrix(-0.28131266,0,0,0.394974,16.046696,0)" gradientUnits="userSpaceOnUse" xlink:href="#linearGradient6684"/><radialGradient id="radialGradient5172" cx="33" cy="45.5" r="2.047" fx="33" fy="45.5" gradientTransform="matrix(1.465649,0,0,1.221374,-3.36641,-10.07252)" gradientUnits="userSpaceOnUse" xlink:href="#linearGradient6665"/><radialGradient id="radialGradient5176" cx="33" cy="45.5" r="2.047" fx="33" fy="45.5" gradientTransform="matrix(1.465649,0,0,1.221374,-84.36641,-101.0725)" gradientUnits="userSpaceOnUse" xlink:href="#linearGradient6665"/><linearGradient id="linearGradient5186" x1="39" x2="39" y1="48" y2="43" gradientUnits="userSpaceOnUse" xlink:href="#linearGradient5180"/><linearGradient id="linearGradient5180"><stop id="stop5182" offset="0" style="stop-color:#000;stop-opacity:0"/><stop id="stop5188" offset=".5" style="stop-color:#000;stop-opacity:1"/><stop id="stop5184" offset="1" style="stop-color:#000;stop-opacity:0"/></linearGradient><radialGradient id="radialGradient5172-8" cx="33" cy="45.5" r="2.047" fx="33" fy="45.5" gradientTransform="matrix(1.465649,0,0,1.221374,-3.36641,-10.07252)" gradientUnits="userSpaceOnUse" xlink:href="#linearGradient6665"/><radialGradient id="radialGradient5176-5" cx="33" cy="45.5" r="2.047" fx="33" fy="45.5" gradientTransform="matrix(1.465649,0,0,1.221374,-84.36641,-101.0725)" gradientUnits="userSpaceOnUse" xlink:href="#linearGradient6665"/><linearGradient id="linearGradient5186-6" x1="39" x2="39" y1="48" y2="43" gradientUnits="userSpaceOnUse" xlink:href="#linearGradient5180"/></defs><path id="path6671" d="m 7.5836585,6.4350127 c 0,0 1.9682884,2.7253223 1.9682884,3.9744283 0,1.249106 -2.271102,0.567776 -3.1795427,1.476217 -0.9084405,0.90844 2.1196953,3.255246 2.1196953,3.255246 l -3.0281358,-0.832738 -1.211254,1.286958 c 0,-1.55192 -1.77903,-2.801026 -0.870589,-3.747318 0.946292,-0.946293 3.6337625,-0.832738 3.7851692,-2.0818437 0.151407,-1.249106 0.378517,-3.293098 0.378517,-3.293098 z" style="color:#000;display:inline;overflow:visible;visibility:visible;opacity:.480447;fill:url(#radialGradient6675);fill-opacity:1;fill-rule:nonzero;stroke:none;stroke-width:.333333;stroke-linecap:round;stroke-linejoin:round;stroke-miterlimit:4;stroke-dashoffset:0;stroke-opacity:1;marker:none;marker-start:none;marker-mid:none;marker-end:none"/><path id="path6639" d="m 3.7413087,3.1315506 c -0.440509,1.0191254 -1.214377,0.9672727 -1.233516,2.3275051 -0.01092,0.7585873 -0.610819,1.1569143 -0.610819,1.931839 0,0.7749243 1.338339,1.157824 1.794177,1.6136613 0.455838,0.4558387 -0.03596,1.624809 1.200676,1.96832 1.2248872,0.340246 1.8233525,-0.136751 2.5982772,-0.136751 0.7749253,0 2.6292731,1.494229 3.3130311,0.810472 0.683757,-0.683757 0.698345,-2.1779867 1.290934,-2.770576 0.638174,-0.6381737 1.646479,-1.5298 1.646479,-2.6693953 0,-1.139595 -0.658069,-1.7411954 -1.600895,-2.8006617 -0.972758,-1.0931016 -1.002844,-2.73502913 -2.1424395,-2.73502913 -1.139595,0 -1.576394,0.3126033 -2.5463213,0.28809066 C 5.9047807,0.91995113 5.7153127,0.18458488 4.5782017,0.7611922 3.5756347,1.2695753 4.0861497,2.3337566 3.7413087,3.1315506 Z" style="opacity:.480447;fill:url(#radialGradient6663);fill-opacity:1;fill-rule:nonzero;stroke:none;stroke-width:.333333;stroke-linecap:round;stroke-linejoin:round;stroke-miterlimit:4;stroke-opacity:1"/><path style="fill:url(#linearGradient6631);fill-opacity:1;fill-rule:nonzero;stroke:#1f254f;stroke-width:.333333;stroke-miterlimit:6.6;stroke-opacity:1" id="path5112" d="m 8.1729152,6.022533 c 0,0 1.9682888,2.7253223 1.9682888,3.9744287 0,1.2491063 -2.2711025,0.5677753 -3.1795431,1.4762163 -0.9084407,0.908441 2.1196953,3.255246 2.1196953,3.255246 l -3.028136,-0.832737 -1.2112545,1.286957 c 0,-1.551919 -1.779029,-2.801025 -0.870589,-3.747318 0.946293,-0.946292 3.6337632,-0.832737 3.7851698,-2.0818433 0.151407,-1.249106 0.378517,-3.293098 0.378517,-3.293098 z"/><path id="path6680" d="m 9.1122909,10.53414 c -1.5173334,0.149462 -2.476338,0.411842 -2.6022074,1.329703 -0.110038,0.802413 1.4107144,2.244319 1.4107144,2.244319 L 5.9728357,13.56658 5.0257127,14.553564 c -0.220971,-1.23698 -1.454936,-2.074002 -0.892969,-2.834868 0.704896,-0.954383 2.9886825,-0.747823 3.0978658,-1.648584 0.1091834,-0.9007623 2.7780205,0.374871 1.8816814,0.464028 z" style="fill:none;fill-opacity:1;fill-rule:nonzero;stroke:url(#linearGradient6690);stroke-width:.240375;stroke-miterlimit:6.6;stroke-opacity:1"/><path style="fill:url(#radialGradient5284);fill-rule:nonzero;stroke:#4c0901;stroke-width:.333333;stroke-linecap:round;stroke-linejoin:round;stroke-miterlimit:4;stroke-opacity:1" id="path5119" d="m 4.4015337,3.0822696 c -0.422107,0.9765514 -1.163647,0.9268651 -1.181986,2.2302737 -0.01046,0.7268974 -0.585302,1.1085844 -0.585302,1.8511364 0,0.742552 1.28243,1.109456 1.719225,1.546251 0.436796,0.436796 -0.03446,1.5569323 1.150519,1.8860933 1.1737168,0.326033 1.7471812,-0.131038 2.4897335,-0.131038 0.7425527,0 2.5194358,1.431808 3.1746288,0.776614 0.655194,-0.655193 0.669172,-2.087001 1.237006,-2.654835 0.611514,-0.611514 1.577698,-1.4658927 1.577698,-2.5578813 0,-1.0919887 -0.630578,-1.668457 -1.534018,-2.6836644 -0.932122,-1.0474369 -0.96095,-2.620773 -2.052939,-2.620773 -1.0919891,0 -1.5105408,0.2995443 -2.4399495,0.2760557 C 6.4746259,0.9630599 6.2930732,0.25841354 5.2034657,0.81093313 4.2427807,1.2980786 4.7319687,2.3178038 4.4015337,3.0822696 Z"/><path style="fill:url(#radialGradient6678);fill-rule:nonzero;stroke:none;stroke-width:.333333;stroke-miterlimit:4" id="path5126" d="m 4.3877457,5.8558663 c 0,2.0818437 1.7033262,3.78517 3.7851695,3.78517 2.0818438,0 3.7851708,-1.7033263 3.7851708,-3.78517 0,-2.0818433 -1.703327,-3.7851699 -3.7851708,-3.7851699 -2.0818433,0 -3.7851695,1.7033266 -3.7851695,3.7851699 z"/><path id="path6600" d="m 4.7503717,3.3433747 c -0.38442,0.8893623 -1.059753,0.844112 -1.076455,2.031149 -0.0095,0.661998 -0.533044,1.009607 -0.533044,1.685862 0,0.676255 1.16793,1.0104006 1.565727,1.4081973 0.397798,0.397798 -0.03138,1.4179257 1.047797,1.717698 1.0689248,0.296923 1.5911888,-0.119339 2.2674442,-0.119339 0.6762553,0 2.2944931,1.303973 2.8911901,0.707276 0.596695,-0.596695 0.609426,-1.9006677 1.126562,-2.417804 0.556917,-0.5569163 1.436836,-1.3350137 1.436836,-2.3295067 0,-0.994493 -0.574278,-1.519493 -1.397056,-2.4440596 -0.848899,-0.953919 -0.875154,-2.3867834 -1.869647,-2.3867834 -0.9944935,0 -1.3756758,0.2728002 -2.2221045,0.2514086 C 6.6383725,1.4133739 6.4730292,0.77164013 5.4807057,1.2748293 4.6057927,1.7184811 5.0513047,2.6471625 4.7503717,3.3433747 Z" style="fill:none;fill-rule:nonzero;stroke:url(#linearGradient6610);stroke-width:.333333;stroke-linecap:round;stroke-linejoin:round;stroke-miterlimit:4;stroke-opacity:1"/><path style="color:#000;display:inline;overflow:visible;visibility:visible;opacity:1;fill:url(#linearGradient6623);fill-opacity:1;fill-rule:nonzero;stroke:none;stroke-width:.333333;stroke-linecap:round;stroke-linejoin:round;stroke-miterlimit:4;stroke-dashoffset:0;stroke-opacity:1;marker:none;marker-start:none;marker-mid:none;marker-end:none" id="path6612" d="m 8.1589452,2.3508199 c 1.9559388,0 3.5487548,1.5807441 3.5487548,3.5366834 0,1.2236644 -0.661235,2.2602094 -1.605389,2.896942 C 7.6888202,7.485458 8.1177092,5.182716 4.8998857,4.5355963 5.4328877,3.2525623 6.6837479,2.3508199 8.1589452,2.3508199 Z"/><g id="g1135"><g id="g5190" transform="matrix(0.43713333,0,0,0.4669713,-5.1988417,-6.482829)" style="opacity:.6"><rect id="rect4279" width="3" height="5" x="45" y="43" style="opacity:1;fill:url(#radialGradient5172-8);fill-opacity:1;stroke:none;stroke-width:1;stroke-linecap:butt;stroke-linejoin:miter;stroke-miterlimit:4;stroke-dasharray:none;stroke-dashoffset:1.2;stroke-opacity:1"/><rect id="rect5174" width="3" height="5" x="-36" y="-48" transform="scale(-1)" style="opacity:1;fill:url(#radialGradient5176-5);fill-opacity:1;stroke:none;stroke-width:1;stroke-linecap:butt;stroke-linejoin:miter;stroke-miterlimit:4;stroke-dasharray:none;stroke-dashoffset:1.2;stroke-opacity:1"/><rect id="rect5178" width="9" height="5" x="36" y="43" style="opacity:1;fill:url(#linearGradient5186-6);fill-opacity:1;stroke:none;stroke-width:1;stroke-linecap:butt;stroke-linejoin:miter;stroke-miterlimit:4;stroke-dasharray:none;stroke-dashoffset:1.2;stroke-opacity:1"/></g><rect id="rect2021" width="5.553" height="5.527" x="9.727" y="9.793" rx=".688" ry=".685" style="display:inline;fill:#ef2929;fill-opacity:1;stroke:#c00;stroke-width:.459925;stroke-linecap:round;stroke-linejoin:round;stroke-miterlimit:4;stroke-dasharray:none;stroke-dashoffset:1.2;stroke-opacity:1"/><rect id="rect3795" width="4.626" height="4.605" x="10.191" y="10.255" rx=".225" ry=".224" style="display:inline;opacity:.3;fill:none;fill-opacity:1;stroke:#fff;stroke-width:.461545;stroke-linecap:round;stroke-linejoin:round;stroke-miterlimit:4;stroke-dasharray:none;stroke-dashoffset:1.2;stroke-opacity:1"/><path id="path4682" d="m 11.347283,11.352478 2.313038,2.302427" style="fill:none;fill-rule:evenodd;stroke:#fff;stroke-width:.892;stroke-linecap:round;stroke-linejoin:miter;stroke-miterlimit:4;stroke-dasharray:none;stroke-opacity:1"/><path id="path4684" d="m 13.660321,11.352478 -2.313038,2.302427" style="display:inline;fill:none;fill-rule:evenodd;stroke:#fff;stroke-width:.892;stroke-linecap:round;stroke-linejoin:miter;stroke-miterlimit:4;stroke-dasharray:none;stroke-opacity:1"/></g></svg>