<svg xmlns="http://www.w3.org/2000/svg" xmlns:svg="http://www.w3.org/2000/svg" id="svg2" width="24" height="24" version="1.0"><defs id="defs4"><radialGradient id="radialGradient4354" cx="11.25" cy="19.031" r="8.063" gradientTransform="matrix(1.2403,0,0,0.34109623,-1.9839233,14.727768)" gradientUnits="userSpaceOnUse"><stop id="stop5107" offset="0"/><stop id="stop5109" offset="1" stop-opacity="0"/></radialGradient><linearGradient id="linearGradient5315" x1="30.377" x2="-7.651" y1="11.133" y2="43.153" gradientTransform="matrix(-0.40301173,0,0,0.43571531,19.916493,1.1975918)" gradientUnits="userSpaceOnUse"><stop id="stop5115" offset="0" stop-color="#fff"/><stop id="stop5117" offset="1" stop-color="#fff" stop-opacity="0"/></linearGradient><linearGradient id="linearGradient5315-3" x1="30.377" x2="11.726" y1="11.133" y2="41.419" gradientTransform="matrix(0,0.46674706,0.40461699,0,17.453559,-1.434236)" gradientUnits="userSpaceOnUse"><stop id="stop5115-8" offset="0" stop-color="#fff"/><stop id="stop5117-1" offset="1" stop-color="#fff" stop-opacity="0"/></linearGradient><linearGradient id="linearGradient9647"><stop style="stop-color:#fff;stop-opacity:1" id="stop9649" offset="0"/><stop style="stop-color:#dbdbdb;stop-opacity:1" id="stop9651" offset="1"/></linearGradient><linearGradient id="linearGradient2256"><stop style="stop-color:#ff0202;stop-opacity:1" id="stop2258" offset="0"/><stop style="stop-color:#ff9b9b;stop-opacity:1" id="stop2260" offset="1"/></linearGradient><linearGradient id="linearGradient11780"><stop style="stop-color:#ff8b8b;stop-opacity:1" id="stop11782" offset="0"/><stop style="stop-color:#ec1b1b;stop-opacity:1" id="stop11784" offset="1"/></linearGradient><linearGradient id="linearGradient4981"><stop style="stop-color:#c00;stop-opacity:1" id="stop4983" offset="0"/><stop style="stop-color:#b30000;stop-opacity:1" id="stop4985" offset="1"/></linearGradient><linearGradient id="linearGradient5315-0" x1="30.377" x2="11.726" y1="11.133" y2="41.419" gradientTransform="matrix(0,0.40301173,0.43571531,0,6.187296,0.08919091)" gradientUnits="userSpaceOnUse"><stop id="stop5115-9" offset="0" stop-color="#fff"/><stop id="stop5117-7" offset="1" stop-color="#fff" stop-opacity="0"/></linearGradient></defs><metadata id="metadata7"/><path style="color:#000;fill:#5286c8;fill-opacity:1;stroke:#204a87;stroke-width:1;stroke-miterlimit:4;stroke-dasharray:none;stroke-linejoin:round" id="path4348-5" d="M 21.505131,9.5025 V 2.4942869 L 14.5,2.494703 v 7.004594 z"/><path style="color:#000;opacity:.35393001;fill:#98b9dc;fill-opacity:1;stroke-width:.44183943" id="path4352-5" d="m 15.004857,3.000229 3.017423,0.00952 -0.04456,6.990511 -2.982578,-4.845e-4 z"/><path style="color:#000;opacity:.35400008;fill:none;stroke:url(#linearGradient5315-0);stroke-width:1;stroke-miterlimit:4;stroke-dasharray:none" id="path4360-61" d="M 20.5,10.664 V 3.488 l -4.99555,0.012345 -0.0089,7.01131 z"/><path style="color:#000;opacity:.16292001;fill:url(#radialGradient4354);stroke-width:1.22277617" id="path4346" d="m 21.96875,21.219385 a 9.9999187,2.7499866 0 1 1 -19.9985969,0 9.9999187,2.7499866 0 1 1 19.9985969,0 z"/><path style="color:#000;fill:#5286c8;fill-opacity:1;stroke:#204a87;stroke-width:1;stroke-miterlimit:4;stroke-dasharray:none" id="path4348" d="M 10.506803,4.1728474 1.7676105,12.52898 10.503012,20.843094 v -4.343293 h 7.008385 C 20,16.503275 21.501766,15 21.5,13 c -0.0018,-2.000434 -0.0197,-6 0,-8 -0.0078,1 -1.5,3.4244224 -3.988603,3.5081568 h -7.004594 z"/><path style="color:#000;opacity:.35393;fill:#98b9dc;fill-opacity:1;stroke-width:.441839" id="path4352" d="M 17.005692,9.0043809 C 18.826496,9 19.991397,8.3680209 21,7.239453 L 20.996,10.322 C 21,11.272507 19.768855,12.629809 18.018,12.605494 L 2.5051377,12.518582 10.02824,5.3252068 10.00615,8.9946648 Z"/><path style="color:#000;opacity:.35400008;fill:none;stroke:url(#linearGradient5315);stroke-width:1;stroke-miterlimit:4;stroke-dasharray:none" id="path4360" d="M 9.5071477,6.5154704 3.227177,12.522308 9.502813,18.517309 9.497293,15.523836 17.5,15.517 c 1.58161,-0.04506 2.727459,-0.684961 3,-2.517 V 8.3984375 C 19.377018,9.4323944 17.666859,9.5036592 17.5,9.507 L 9.4937759,9.49827 Z"/></svg>