<svg xmlns="http://www.w3.org/2000/svg" xmlns:svg="http://www.w3.org/2000/svg" xmlns:xlink="http://www.w3.org/1999/xlink" id="svg44" width="24" height="24" version="1.1" viewBox="0 0 24 24"><metadata id="metadata48"/><defs id="0"><linearGradient id="linearGradient960"><stop id="stop956" stop-color="#204a87" style="stop-color:#216620;stop-opacity:1"/><stop id="stop958" offset="1" stop-color="#183768" style="stop-color:#1b5418;stop-opacity:1"/></linearGradient><linearGradient id="linearGradient954"><stop id="stop950" stop-color="#729fcf" style="stop-color:#77ca6c;stop-opacity:1"/><stop id="stop952" offset="1" stop-color="#3465a4" style="stop-color:#3c9a34;stop-opacity:1"/></linearGradient><linearGradient id="8"><stop id="P"/><stop id="Q" offset="1" stop-opacity="0"/></linearGradient><linearGradient id="9"><stop id="R" stop-color="#2e3436" style="stop-color:#2e3436;stop-opacity:.72058821"/><stop id="S" offset="1" stop-color="#2e3436" stop-opacity="0"/></linearGradient><linearGradient id="A"><stop id="T" stop-color="#fff" stop-opacity=".4"/><stop id="U" offset="1" stop-color="#fff" stop-opacity="0"/></linearGradient><linearGradient id="C"><stop id="X" stop-color="#fff"/><stop id="Y" offset="1" stop-color="#fff" stop-opacity="0"/></linearGradient><linearGradient id="D"><stop id="Z" stop-color="#fff" stop-opacity=".8" style="stop-opacity:.585"/><stop id="a" offset="1" stop-color="#fff" stop-opacity="0"/></linearGradient><linearGradient id="F"><stop id="d" stop-color="#2e3436" style="stop-color:#949798;stop-opacity:1"/><stop id="e" offset="1" stop-color="#555753" style="stop-color:#6d6d6d;stop-opacity:1"/></linearGradient><filter id="G" style="color-interpolation-filters:sRGB"><feGaussianBlur id="f" stdDeviation=".755"/></filter><linearGradient id="H" x2="0" y1="1.781" y2="41.75" gradientTransform="matrix(0.42317778,0,0,0.44992108,1.8437334,1.9971318)" gradientUnits="userSpaceOnUse" xlink:href="#A"/><radialGradient id="I" cx="24.919" cy="48.2" r="25.941" gradientTransform="matrix(0.45965928,0,0,0.03310681,0.60329196,20.960882)" gradientUnits="userSpaceOnUse" xlink:href="#9"/><linearGradient id="K" x2="0" y1="10.144" y2="42.775" gradientTransform="matrix(0.45592171,0,0,0.36596813,1.0935768,6.1693349)" gradientUnits="userSpaceOnUse" xlink:href="#linearGradient960"/><radialGradient id="L" cx="35.488" cy="26.2" r="23" gradientTransform="matrix(0.44156249,-0.65885066,0.59329938,0.44947552,-24.721772,17.506273)" gradientUnits="userSpaceOnUse" xlink:href="#F"/><linearGradient id="M" x2="0" y1="11.188" y2="41.75" gradientTransform="matrix(0.44636857,0,0,0.35797025,1.3438824,6.3814943)" gradientUnits="userSpaceOnUse" xlink:href="#D"/><linearGradient id="N" x1="7.935" x2="20.05" y1="-28.25" y2="36.1" gradientTransform="matrix(0.45592171,0,0,0.36596808,1.11565,6.1698019)" gradientUnits="userSpaceOnUse" xlink:href="#C"/><linearGradient id="O" x1="46.47" x2="44.025" y1="22.11" y2="2.818" gradientUnits="userSpaceOnUse" xlink:href="#8"/><linearGradient id="J-2" x2="0" y1="10.144" y2="42.775" gradientTransform="matrix(0.45592171,0,0,0.36596813,1.0935768,6.169335)" gradientUnits="userSpaceOnUse" xlink:href="#linearGradient954"/></defs><path id="1" d="m 23.981697,22.556772 a 11.923926,0.85881732 0 1 1 -23.84785128,0 11.923926,0.85881732 0 1 1 23.84785128,0 z" style="fill:url(#I);stroke-width:.78598011"/><path id="2" d="M 2.4784999,2.5573826 V 21.017381 H 21.5215 V 5.4889949 H 13.551011 L 11.224493,2.5573826 Z" style="fill:url(#L);stroke:#2e3436;stroke-width:.9569999;stroke-linecap:square;stroke-linejoin:round"/><path id="3" d="M 2.9149017,3.0235146 V 20.556376 H 21.085098 V 5.9480014 h -7.537857 a 0.43447465,0.46193189 0 0 1 -0.330605,-0.16872 L 11.021401,3.0235146 Z" style="opacity:.8;fill:none;stroke:url(#H);stroke-width:.95744669;stroke-linecap:square;stroke-linejoin:round"/><path id="4" d="m 18.074648,11.1875 -2.875,8.530745 c -0.09035,0.19375 -0.286252,0.316189 -0.5,0.3125 H 2.7429209 L 3.3752493,41.75 H 45.448256 l 0.196558,-30.5625 z" transform="matrix(0.45592178,0,0,0.36596807,0.9281503,4.4471231)" style="fill:url(#O);stroke-width:2.07730293;filter:url(#G)"/><path id="5-8" d="m 9.4416278,9.864087 -1.384969,3.035998 h -6.507159 l 0.02851,8.740415 H 22.49401 L 22.5219,9.864087 Z" style="fill:url(#J-2);fill-opacity:1;stroke:none;stroke-width:1.04900002;stroke-linecap:square;stroke-linejoin:round;stroke-opacity:.01680675"/><path id="5" d="m 9.4416278,9.8640866 -1.384969,3.0359984 h -6.507159 l 0.02851,8.740415 H 22.49401 L 22.5219,9.8640866 Z" style="fill:none;fill-opacity:1;stroke:url(#K);stroke-width:1.04900002;stroke-linecap:square;stroke-linejoin:round"/><path id="6" d="m 9.8806817,10.632389 -1.213565,2.637108 c -0.089968,0.155147 -0.2888192,0.2472 -0.502165,0.24611 H 2.3482113 l -0.098369,7.56504 H 21.766157 l -9.13e-4,-10.448258 z" style="opacity:.8;fill:none;stroke:url(#M);stroke-width:.949;stroke-linecap:square;stroke-miterlimit:4;stroke-dasharray:none"/><path id="7" d="m 9.7602389,10.384448 -1.2448891,2.794963 c -0.0044,0.0056 -0.00938,0.01073 -0.014848,0.01525 -0.066107,0.104742 -0.3314923,0.224781 -0.4532066,0.222721 l -6.0063243,0.0072 v 4.74762 C 7.5815273,16.295038 15.609842,14.459607 21.990408,13.569229 l 0.0078,-3.204976 z" style="opacity:.8;fill:url(#N);stroke-width:.99999982"/></svg>