<svg xmlns="http://www.w3.org/2000/svg" xmlns:svg="http://www.w3.org/2000/svg" id="svg22" width="24" height="24" version="1.0"><title id="title2">OpenStreetMap area element icon</title><metadata id="metadata4"/><rect style="stroke-width:.0944882" id="rect6" width="22.866" height="22.866" x=".567" y=".567" fill="#fff" stroke="none" ry="3.024"/><rect id="rect18" width="22.866" height="22.866" x=".567" y=".567" fill="none" stroke="#000" stroke-width="1.134" ry="3.024"/><path style="fill:#bee6be;fill-opacity:1;stroke-width:1.16667" id="path4" fill="#bee6be" d="M 5,5 H 19 V 19 H 5 Z m 7,3 -3,4 7,2 z"/><path style="stroke-width:1.1376" id="path6" fill="#000" d="m 5.1673667,2.8892387 c 3.0328802,7.697e-4 3.0323028,4.5484087 -5.772e-4,4.547639 -3.0328799,0 -3.0334572,-4.547639 -5.774e-4,-4.547639 z m 13.6501123,0 c 3.032874,7.828e-4 3.032287,4.5484218 -5.88e-4,4.547639 -3.032872,0 -3.033459,-4.547639 -5.86e-4,-4.547639 z m 0,13.6523603 c 3.032874,7.83e-4 3.032287,4.548422 -5.88e-4,4.54764 -3.032872,0 -3.033459,-4.54764 -5.86e-4,-4.54764 z m -13.6501123,0 c 3.0328802,7.71e-4 3.0323028,4.548408 -5.772e-4,4.54764 -3.0328799,0 -3.0334572,-4.54764 -5.774e-4,-4.54764 z M 11.965617,6.8620355 c 1.516241,0 1.515653,2.2746035 -5.88e-4,2.2738208 -1.516241,0 -1.516829,-2.2738208 -5.88e-4,-2.2738208 z M 9.0164746,10.86319 c 1.5162484,0 1.5156704,2.274591 -5.772e-4,2.27382 -1.5162476,0 -1.5168249,-2.27382 -5.774e-4,-2.27382 z m 7.0087664,2.010877 c 1.516241,0 1.515654,2.274604 -5.87e-4,2.27382 -1.516241,0 -1.516829,-2.27382 -5.87e-4,-2.27382 z"/></svg>