<svg xmlns="http://www.w3.org/2000/svg" xmlns:svg="http://www.w3.org/2000/svg" xmlns:xlink="http://www.w3.org/1999/xlink" id="svg48" width="24" height="24" version="1.1"><metadata id="metadata52"/><defs id="defs28"><linearGradient id="d"><stop id="stop2" offset="0"/><stop id="stop4" offset="1" stop-opacity="0"/></linearGradient><linearGradient id="c"><stop id="stop7" offset="0" stop-color="#858585"/><stop id="stop9" offset=".5" stop-color="#cbcbcb"/><stop id="stop11" offset="1" stop-color="#6b6b6b"/></linearGradient><linearGradient id="b"><stop id="stop14" offset="0" stop-color="#fff"/><stop id="stop16" offset="1" stop-color="#fff" stop-opacity="0"/></linearGradient><linearGradient id="a"><stop id="stop19" offset="0" stop-color="#1e2d69"/><stop id="stop21" offset="1" stop-color="#78a7e0"/></linearGradient><linearGradient id="f" x1="40.885" x2="16.88" y1="71.869" y2="-.389" gradientTransform="matrix(0.48830499,0,0,0.569895,0.28199999,-1.635499)" gradientUnits="userSpaceOnUse" xlink:href="#a"/><linearGradient id="g" x1="13.784" x2="33.075" y1="-.997" y2="55.702" gradientTransform="matrix(0.49271499,0,0,0.57409,0.3205,-1.466999)" gradientUnits="userSpaceOnUse" xlink:href="#b"/><linearGradient id="h" x1="20.125" x2="28.563" y1="21.844" y2="42.469" gradientTransform="matrix(0.53384998,0,0,0.560765,-0.68449998,-2.786999)" gradientUnits="userSpaceOnUse" xlink:href="#c"/><radialGradient id="e" cx="24.313" cy="41.156" r="22.875" fx="24.313" fy="41.156" gradientTransform="matrix(0.45901499,0,0,0.13203787,0.83999998,15.08155)" gradientUnits="userSpaceOnUse" xlink:href="#d"/><radialGradient id="radialGradient3271" cx="38.659" cy="9.341" r="8.342" fx="38.659" fy="9.341" gradientTransform="matrix(0.574925,0,0,0.574925,-3.797664,0.24544681)" gradientUnits="userSpaceOnUse" xlink:href="#linearGradient2378"/><linearGradient id="linearGradient2378"><stop style="stop-color:#fff;stop-opacity:1" id="stop2380" offset="0"/><stop id="stop4146" offset=".25" style="stop-color:#fefede;stop-opacity:.91836733"/><stop id="stop2386" offset=".5" style="stop-color:#f5f328;stop-opacity:1"/><stop style="stop-color:#f5f32d;stop-opacity:.12234043" id="stop2382" offset="1"/></linearGradient></defs><path id="path30" d="m 22.499999,20.515546 a 10.499968,3.0201953 0 1 1 -20.9999355,0 10.499968,3.0201953 0 1 1 20.9999355,0 z" style="opacity:.506;fill:url(#e);stroke-width:.47454962"/><path id="path32" d="M 2.2789999,1.784001 H 21.723999 c 0.295,0 0.532,0.237 0.532,0.5315 v 18.8825 c 0,0.295 -0.2375,0.532 -0.532,0.532 H 3.2789999 l -1.532,-1.532 v -17.8825 a 0.53,0.53 0 0 1 0.532,-0.5315 z" style="fill:url(#f);stroke:#25375f;stroke-width:.5;stroke-linecap:round;stroke-linejoin:round"/><path id="path34" d="M 4.4999999,2.000001 H 19.499999 v 11.5 H 4.4999999 Z" style="fill:#fff;stroke-width:.5"/><rect id="rect36" width="15" height="2" x="4.5" y="2" rx=".063" ry=".063" style="fill:#d31c00;stroke-width:.5"/><rect id="rect38" width="1" height="1" x="3" y="3" rx=".063" ry=".063" style="opacity:.73900003;stroke-width:.5"/><path id="path40" d="M 5.4999997,6.250001 H 18.5 m -13.0000003,2.5 H 18.5 m -13.0000003,2.5 H 18.5" style="opacity:.131;stroke:#000;stroke-width:.5"/><path id="path42" d="M 2.3094999,2.264001 H 21.693499 c 0.035,0 0.0635,0.028 0.0635,0.063 v 18.824 c 0,0.035 -0.0285,0.063 -0.0635,0.063 H 3.4639999 l -1.2175,-1.1955 v -17.6915 c 0,-0.035 0.028,-0.063 0.063,-0.063 z" style="opacity:.597;fill:none;stroke:url(#g);stroke-width:.5;stroke-linecap:round"/><path id="path44" d="m 7.0569999,14.281001 h 9.8749991 c 0.444,0 0.8015,0.3755 0.8015,0.842 v 6.6005 H 6.2550001 v -6.6005 c 0,-0.4665 0.3574997,-0.842 0.8014997,-0.842 z" style="fill:url(#h);stroke:#525252;stroke-width:.5"/><rect id="rect46" width="2.515" height="5.033" x="8.232" y="15.229" rx=".375" ry=".375" style="fill:#4967a2;stroke:#525252;stroke-width:.5"/><circle style="display:inline;fill:url(#radialGradient3271);fill-opacity:1;fill-rule:evenodd;stroke:none;stroke-width:.57492501px;stroke-linecap:butt;stroke-linejoin:miter;stroke-opacity:1" id="path2388" cx="18.428" cy="5.616" r="4.796"/><path style="color:#000;display:inline;overflow:visible;visibility:visible;opacity:1;fill:#fff;fill-opacity:1;fill-rule:evenodd;stroke:none;stroke-width:.5;stroke-linecap:butt;stroke-linejoin:miter;stroke-miterlimit:4;stroke-dasharray:none;stroke-dashoffset:0;stroke-opacity:1;marker:none;marker-start:none;marker-mid:none;marker-end:none" id="path1345" d="m 44.520054,15.50279 c -0.507171,0.878446 -4.594703,-0.160823 -5.521351,0.251748 -0.926648,0.41257 -2.889414,4.145604 -3.88159,3.934711 -0.992177,-0.210894 -1.266891,-4.419519 -1.945618,-5.173323 -0.678728,-0.753803 -4.835582,-1.466933 -4.94161,-2.475719 -0.106028,-1.008786 3.811722,-2.5705906 4.318893,-3.4490369 0.507171,-0.8784463 -0.09914,-5.0522193 0.827507,-5.4647895 0.926648,-0.4125703 3.622664,2.8308064 4.614841,3.0417001 0.992176,0.2108936 4.77431,-1.6555099 5.453037,-0.9017066 0.678728,0.7538034 -1.572792,4.3201254 -1.466764,5.3289109 0.106027,1.008786 3.049826,4.029058 2.542655,4.907505 z" transform="matrix(0.337058,0.1497885,-0.1497885,0.337058,7.7320646,-3.5962352)"/></svg>