<svg xmlns="http://www.w3.org/2000/svg" xmlns:svg="http://www.w3.org/2000/svg" xmlns:xlink="http://www.w3.org/1999/xlink" id="svg53" width="32" height="32" version="1.1"><metadata id="metadata57"/><defs id="defs32"><radialGradient id="g" cx="605.714" cy="486.648" r="117.143" fx="605.714" fy="486.648" gradientTransform="matrix(-0.04183924,0,0,0.01910341,31.031923,20.13303)" gradientUnits="userSpaceOnUse" xlink:href="#a"/><linearGradient id="a"><stop id="stop3" offset="0"/><stop id="stop5" offset="1" stop-opacity="0"/></linearGradient><radialGradient id="f" cx="605.714" cy="486.648" r="117.143" fx="605.714" fy="486.648" gradientTransform="matrix(0.04183924,0,0,0.01910341,0.80459925,20.13303)" gradientUnits="userSpaceOnUse" xlink:href="#a"/><linearGradient id="b"><stop id="stop9" offset="0" stop-opacity="0"/><stop id="stop11" offset=".5"/><stop id="stop13" offset="1" stop-opacity="0"/></linearGradient><linearGradient id="e" x1="302.857" x2="302.857" y1="366.648" y2="609.505" gradientTransform="matrix(0.04183924,0,0,0.01910341,0.79636531,20.13303)" gradientUnits="userSpaceOnUse" xlink:href="#b"/><linearGradient id="d"><stop id="stop17" offset="0" stop-color="#204a87"/><stop id="stop19" offset="1" stop-color="#204a87" stop-opacity="0"/></linearGradient><linearGradient id="c"><stop id="stop22" offset="0" stop-color="#e3eded"/><stop id="stop24" offset="1" stop-color="#f5f5f5"/></linearGradient><linearGradient id="h" x1="22.625" x2="22.625" y1="7.71" y2="40.5" gradientTransform="matrix(0.65966362,0,0,0.66034952,-0.00942856,0.32135177)" gradientUnits="userSpaceOnUse" xlink:href="#c"/><linearGradient id="j" x1="12.364" x2="18.227" y1="11.394" y2="17.581" gradientTransform="matrix(-0.6519897,0,0,-0.65266761,17.911937,17.263338)" gradientUnits="userSpaceOnUse" xlink:href="#d"/><linearGradient id="k" x1="12.364" x2="18.227" y1="11.394" y2="17.581" gradientTransform="matrix(0.6519897,0,0,-0.65266761,14.088059,17.263338)" gradientUnits="userSpaceOnUse" xlink:href="#d"/><linearGradient id="l" x1="12.364" x2="18.227" y1="11.394" y2="17.581" gradientTransform="matrix(-0.6519897,0,0,0.65266761,17.911937,14.736826)" gradientUnits="userSpaceOnUse" xlink:href="#d"/><linearGradient id="m" x1="12.364" x2="18.227" y1="11.394" y2="17.581" gradientTransform="matrix(0.6519897,0,0,0.65266761,14.088059,14.736174)" gradientUnits="userSpaceOnUse" xlink:href="#d"/></defs><path id="path34" d="M 5.8170779,27.137272 H 26.019442 v 4.639413 H 5.8170779 Z" style="color:#000;opacity:.40200004;fill:url(#e);stroke-width:.01209383;marker:none"/><path id="path36" d="m 26.019446,27.137433 c 0,0 0,4.639157 0,4.639157 2.15462,0.0089 5.208813,-1.039397 5.208812,-2.319878 0,-1.280474 -2.404387,-2.319279 -5.208812,-2.319279 z" style="color:#000;opacity:.40200004;fill:url(#f);stroke-width:.01209383;marker:none"/><path id="path38" d="m 5.8170741,27.137433 c 0,0 0,4.639157 0,4.639157 -2.1546179,0.0089 -5.2088157,-1.039397 -5.2088157,-2.319878 0,-1.280474 2.4043904,-2.319279 5.2088157,-2.319279 z" style="color:#000;opacity:.40200004;fill:url(#g);stroke-width:.01209383;marker:none"/><rect style="color:#000;fill:url(#h);fill-rule:evenodd;stroke:#888a85;stroke-width:.65232849;stroke-linecap:round;stroke-linejoin:round;marker:none" id="i" width="27.376" height="27.404" x="2.299" y="2.303" rx="1.222" ry="1.224"/><path id="path41" d="m 3.5178352,2.9719981 c -0.3154186,0 -0.5501164,0.2349408 -0.5501164,0.5506881 V 28.487223 c 0,0.315743 0.2346987,0.550688 0.5501164,0.550688 H 28.130445 c 0.315425,0 0.550119,-0.234945 0.550119,-0.550688 V 3.5226862 c 0,-0.3157473 -0.234694,-0.5506881 -0.550119,-0.5506881 z" style="color:#000;fill:none;stroke:#fff;stroke-width:.65232849;stroke-linecap:round;stroke-linejoin:round;marker:none"/><path id="path43" d="M 14,14 V 5.51532 L 11.371664,8.1463862 6.155746,2.8842537 2.9161726,6.1679878 8.1320899,11.389327 5.5241307,14 Z" style="color:#000;fill:url(#j);fill-rule:evenodd;stroke-width:.65232849;marker:none"/><path id="path45" d="M 18,14 V 5.51532 L 20.628328,8.1463862 25.84425,2.8842537 29.083824,6.1679878 23.867902,11.389327 26.475867,14 Z" style="color:#000;fill:url(#k);fill-rule:evenodd;stroke-width:.65232849;marker:none"/><path id="path47" d="m 14,18 v 8.484678 L 11.371664,23.853613 6.15574,29.115743 2.9161666,25.832011 8.1320839,20.610669 5.5241247,18 Z" style="color:#000;fill:url(#l);fill-rule:evenodd;stroke-width:.65232849;marker:none"/><path id="path49" d="m 18,18 v 8.484678 l 2.628328,-2.631065 5.215922,5.26213 3.239574,-3.283732 L 23.867902,20.610669 26.475867,18 Z" style="color:#000;fill:url(#m);fill-rule:evenodd;stroke-width:.65232849;marker:none"/></svg>