<svg xmlns="http://www.w3.org/2000/svg" xmlns:svg="http://www.w3.org/2000/svg" id="svg2390" width="16" height="16" version="1.0" viewBox="0 0 16 16"><g id="layer1" transform="translate(-21.913,-80.984)"><g id="g2387" transform="matrix(0.09847087,0,0,0.10755831,23.217175,80.212404)" style="fill:#ffb93f;fill-opacity:1"><path id="path2389" d="m 12.473,121.08 c -0.914,1.76 -1.991,3.41 -1.991,5.34 l 0.009,0.81 c 0,4.17 3.266,6.69 7.02,6.69 h 121.32 c 3.76,0 6.99,-3.12 6.99,-7.29 l -0.04,-0.81 c 0,-1.94 -0.95,-3.62 -1.99,-5.35 L 83.707,12.69 C 81.052,9.7442 76.748,9.7442 74.093,12.694 l -61.619,108.39 z" style="fill:#ffb93f;fill-opacity:1;stroke:#000;stroke-width:6.83139992"/></g><ellipse id="path2393" cx="30.939" cy="92.077" rx=".943" ry="1.03" style="fill:#000;stroke-width:.1225092"/><path id="path2395" d="m 30.963646,84.92394 c 0.37039,0 0.945119,0.261292 0.945119,0.585757 l -0.276554,3.371932 c 0,0.324462 -0.298175,0.585753 -0.668565,0.585753 -0.370396,0 -0.668353,-0.261291 -0.668353,-0.585753 l -0.322821,-3.371932 c 0,-0.324465 0.620778,-0.585757 0.991174,-0.585757 z" style="fill:#000;stroke-width:.20344666"/></g><metadata id="metadata8"/></svg>