<svg xmlns="http://www.w3.org/2000/svg" xmlns:svg="http://www.w3.org/2000/svg" id="svg2" width="15" height="8" version="1.1" viewBox="0 0 15 8"><metadata id="metadata7"/><g id="layer1" transform="translate(0,-1045.3622)"><rect style="opacity:1;fill:gray;fill-opacity:1;fill-rule:nonzero;stroke:#000;stroke-width:0;stroke-linecap:round;stroke-linejoin:round;stroke-miterlimit:4;stroke-dasharray:none;stroke-opacity:1;paint-order:normal" id="rect833" width="15" height="5" x="0" y="1048.362" ry="2.455"/><rect style="opacity:1;fill:#fff;fill-opacity:1;fill-rule:nonzero;stroke:#000;stroke-width:0;stroke-linecap:round;stroke-linejoin:round;stroke-miterlimit:4;stroke-dasharray:none;stroke-opacity:1;paint-order:normal" id="rect835" width="13" height="3" x="1" y="1049.362" ry="1.478"/><circle style="opacity:1;fill:#000;fill-opacity:1;fill-rule:nonzero;stroke:#000;stroke-width:0;stroke-linecap:round;stroke-linejoin:round;stroke-miterlimit:4;stroke-dasharray:none;stroke-opacity:1;paint-order:normal" id="path851" cx="2.5" cy="1050.862" r="1.267"/><circle style="opacity:1;fill:#000;fill-opacity:1;fill-rule:nonzero;stroke:#000;stroke-width:0;stroke-linecap:round;stroke-linejoin:round;stroke-miterlimit:4;stroke-dasharray:none;stroke-opacity:1;paint-order:normal" id="path851-0" cx="12.5" cy="1050.862" r="1.267"/><circle style="opacity:1;fill:#000;fill-opacity:1;fill-rule:nonzero;stroke:#000;stroke-width:0;stroke-linecap:round;stroke-linejoin:round;stroke-miterlimit:4;stroke-dasharray:none;stroke-opacity:1;paint-order:normal" id="path851-5" cx="7.5" cy="1050.862" r="1.267"/><path style="fill:#a40;stroke:none;stroke-width:1px;stroke-linecap:butt;stroke-linejoin:miter;stroke-opacity:1" id="path838" d="m 3.5,1048.3622 c 0,0 0.1829812,-0.8041 0.5,-1 0.2835503,-0.1752 0.6920402,0.1276 1,0 0.435521,-0.1804 0.6175768,-0.7244 1,-1 0.6046642,-0.4358 1.2565192,-0.9472 2,-1 1.0514407,-0.075 2.283797,0.2266 3,1 0.466907,0.5042 0.5,2 0.5,2 z"/></g></svg>