<svg xmlns="http://www.w3.org/2000/svg" xmlns:svg="http://www.w3.org/2000/svg" id="svg2" width="16" height="12" version="1.1" viewBox="0 0 16 12"><metadata id="metadata7"/><g id="layer1" transform="translate(0,-1038.3622)"><path id="path4136" d="m 0,1048.9122 c 1,0 3.0357587,0.051 4.0575035,0 3.0714285,-0.1566 -0.3341419,-6 3.0915065,-6 h 1.6954144 c 3.4664896,0.045 0.048835,6.0248 3.1415936,6.0007 0.975145,-0.01 1.586699,-7e-4 4.013982,-7e-4" style="fill:none;fill-rule:evenodd;stroke:#700000;stroke-width:1.1;stroke-linecap:butt;stroke-linejoin:miter;stroke-miterlimit:4;stroke-dasharray:none;stroke-opacity:1"/><path style="fill:none;fill-rule:evenodd;stroke:#700000;stroke-width:1.1;stroke-linecap:butt;stroke-linejoin:miter;stroke-miterlimit:4;stroke-dasharray:none;stroke-opacity:1" id="path4142" d="m 0,1044.9731 c 1,0 1.102723,0.051 2.1244678,0 2.5580357,0.067 -0.1555704,-5.0609 2.9575779,-5.0609 h 5.8293423 c 3.131669,0 0.205082,5.1304 3.163915,5.0616 0.974912,-0.023 -0.502586,-7e-4 1.924697,-7e-4"/></g></svg>