<svg xmlns="http://www.w3.org/2000/svg" xmlns:svg="http://www.w3.org/2000/svg" id="svg4264" width="15" height="16" version="1.1" viewBox="0 0 15 16"><defs id="defs4266"><marker style="overflow:visible" id="EmptyTriangleInL" orient="auto" refX="0" refY="0"><path style="fill:#fff;fill-rule:evenodd;stroke:#000;stroke-width:1pt;stroke-opacity:1" id="path4298" d="M 5.77,0 -2.88,5 V -5 Z" transform="matrix(-0.8,0,0,-0.8,4.8,0)"/></marker><marker style="overflow:visible" id="marker4778" orient="auto" refX="0" refY="0"><path style="fill:#000;fill-opacity:1;fill-rule:evenodd;stroke:#000;stroke-width:1pt;stroke-opacity:1" id="path4780" d="M 0,0 5,-5 -12.5,0 5,5 Z" transform="matrix(0.8,0,0,0.8,10,0)"/></marker><marker style="overflow:visible" id="marker4657" orient="auto" refX="0" refY="0"><path style="fill:#000;fill-opacity:1;fill-rule:evenodd;stroke:#000;stroke-width:1pt;stroke-opacity:1" id="path4659" d="M 0,0 5,-5 -12.5,0 5,5 Z" transform="matrix(0.8,0,0,0.8,10,0)"/></marker><marker id="InfiniteLineStart" orient="auto" refX="0" refY="0" style="overflow:visible"><g style="fill:#000;fill-opacity:1;stroke:#000;stroke-opacity:1" id="g4391" transform="translate(-13)"><circle style="fill:#000;fill-opacity:1;stroke:#000;stroke-opacity:1" id="circle4393" cx="3" cy="0" r=".8"/><circle style="fill:#000;fill-opacity:1;stroke:#000;stroke-opacity:1" id="circle4395" cx="6.5" cy="0" r=".8"/><circle style="fill:#000;fill-opacity:1;stroke:#000;stroke-opacity:1" id="circle4397" cx="10" cy="0" r=".8"/></g></marker><marker style="overflow:visible" id="Arrow2Lstart" orient="auto" refX="0" refY="0"><path style="fill:#000;fill-opacity:1;fill-rule:evenodd;stroke:#000;stroke-width:.625;stroke-linejoin:round;stroke-opacity:1" id="path4165" d="M 8.7185878,4.0337352 -2.2072895,0.01601326 8.7185884,-4.0017078 c -1.7454984,2.3720609 -1.7354408,5.6174519 -6e-7,8.035443 z" transform="matrix(1.1,0,0,1.1,1.1,0)"/></marker><marker style="overflow:visible" id="Arrow1Mstart" orient="auto" refX="0" refY="0"><path style="fill:#000;fill-opacity:1;fill-rule:evenodd;stroke:#000;stroke-width:1pt;stroke-opacity:1" id="path4153" d="M 0,0 5,-5 -12.5,0 5,5 Z" transform="matrix(0.4,0,0,0.4,4,0)"/></marker><marker style="overflow:visible" id="Arrow1Lstart" orient="auto" refX="0" refY="0"><path style="fill:#000;fill-opacity:1;fill-rule:evenodd;stroke:#000;stroke-width:1pt;stroke-opacity:1" id="path4147" d="M 0,0 5,-5 -12.5,0 5,5 Z" transform="matrix(0.8,0,0,0.8,10,0)"/></marker></defs><metadata id="metadata4269"/><g id="layer1" transform="translate(0,-1036.3621)"><rect id="rect904" width="15" height="7" x="0" y="1045.362" style="fill:#a40;fill-opacity:1;stroke-width:.900006;stroke-linecap:square;stroke-linejoin:round;stroke-dasharray:.900006,2.70003"/><rect id="rect921" width="3" height="7" x="6" y="1045.362" style="fill:#000;fill-opacity:1;stroke-width:.900008;stroke-linecap:square;stroke-linejoin:round;stroke-dasharray:.900008,2.70002"/></g></svg>