<svg xmlns="http://www.w3.org/2000/svg" xmlns:svg="http://www.w3.org/2000/svg" id="svg602" width="160" height="160" space="preserve" version="1.0" viewBox="0 0 160 160"><ellipse style="fill:#000;fill-rule:evenodd;stroke-width:.36225697" id="path623" cx="39.265" cy="46.516" rx="39.265" ry="28.606"/><ellipse style="fill:#000;fill-rule:evenodd;stroke-width:.33623713" id="path624" cx="79.549" cy="27.451" rx="34.044" ry="27.451"/><ellipse style="fill:#000;fill-rule:evenodd;stroke-width:.33768514" id="path625" cx="123.303" cy="42.177" rx="36.697" ry="28.894"/><path style="fill:#b85e00;fill-rule:evenodd;stroke:#000;stroke-width:5.39229488" id="path628" d="m 57.245749,87.260101 c 6.359736,0.189796 12.719461,0.379591 19.079185,0.569387 1.225326,9.639617 1.7148,12.916092 5.873588,16.761942 7.338662,-3.46628 11.740525,-6.932529 13.208912,-12.136923 0,0 28.622096,-3.466268 18.346646,0 -6.60278,13.295673 -18.485252,16.612103 -20.686175,27.590283 -2.6904,12.91608 1.00433,24.87321 2.719118,37.19993 -13.701712,-0.18979 -29.624326,0.19979 -43.326052,0 7.585063,-21.76655 11.365372,-25.15291 14.545233,-41.1357 C 66.516742,103.7823 60.668685,97.848696 57.245749,87.260101 Z"/><ellipse style="fill:#000;fill-rule:evenodd;stroke-width:.34008992" id="path626" cx="66.417" cy="71.653" rx="35.594" ry="24.272"/><ellipse style="fill:#000;fill-rule:evenodd;stroke-width:.32833669" id="path627" cx="106.778" cy="73.097" rx="34.125" ry="25.139"/><ellipse style="fill:#80df00;fill-rule:evenodd;stroke-width:.29546815" id="path610" cx="104.215" cy="69.921" rx="30.824" ry="22.538"/><ellipse style="fill:#80df00;fill-rule:evenodd;stroke-width:.29546815" id="path611" cx="66.051" cy="69.047" rx="30.09" ry="21.671"/><ellipse style="fill:#80df00;fill-rule:evenodd;stroke-width:.29546815" id="path612" cx="39.264" cy="46.516" rx="31.925" ry="23.405"/><ellipse style="fill:#80df00;fill-rule:evenodd;stroke-width:.29546815" id="path613" cx="121.095" cy="42.481" rx="32.292" ry="25.139"/><ellipse style="fill:#80df00;fill-rule:evenodd;stroke-width:.29546815" id="path609" cx="79.262" cy="29.753" rx="30.09" ry="23.983"/><ellipse style="fill:red;fill-opacity:1;fill-rule:evenodd;stroke:#000;stroke-width:2.98423839" id="path629" cx="36.051" cy="69.218" rx="11.68" ry="9.197"/><ellipse style="fill:red;fill-rule:evenodd;stroke:#000;stroke-width:2.62898135" id="path630" cx="75.82" cy="76.882" rx="10.29" ry="8.102"/><ellipse style="fill:red;fill-rule:evenodd;stroke:#000;stroke-width:2.45109487" id="path631" cx="130.327" cy="77.1" rx="9.733" ry="7.445"/><ellipse style="fill:red;fill-rule:evenodd;stroke:#000;stroke-width:2.62898135" id="path632" cx="56.907" cy="40.967" rx="10.29" ry="8.102"/><ellipse style="fill:red;fill-rule:evenodd;stroke:#000;stroke-width:2.91231537" id="path633" cx="97.233" cy="52.564" rx="11.124" ry="9.197"/><ellipse style="fill:red;fill-rule:evenodd;stroke:#000;stroke-width:2.30896449" id="path635" cx="125.599" cy="37.026" rx="8.899" ry="7.226"/><metadata id="metadata22"/></svg>