<svg xmlns="http://www.w3.org/2000/svg" xmlns:svg="http://www.w3.org/2000/svg" id="svg2060" width="14" height="16" version="1.0"><metadata id="metadata3"/><defs id="defs2062"><marker id="ArrowEnd" markerHeight="3" markerUnits="strokeWidth" markerWidth="4" orient="auto" refX="0" refY="5" viewBox="0 0 10 10"><path id="path2065" d="M 0,0 10,5 0,10 0,0 Z"/></marker><marker id="ArrowStart" markerHeight="3" markerUnits="strokeWidth" markerWidth="4" orient="auto" refX="10" refY="5" viewBox="0 0 10 10"><path id="path2068" d="M 10,0 0,5 10,10 10,0 Z"/></marker></defs><rect style="opacity:1;fill:#fff;fill-opacity:1;stroke:none;stroke-width:30;stroke-linecap:square;stroke-linejoin:miter;stroke-miterlimit:4;stroke-dasharray:none;stroke-dashoffset:.60000002;stroke-opacity:1" id="rect4167" width="14" height="16" x="0" y="0"/><g id="g2070" transform="matrix(0.03216656,0,0,0.02870469,0.65650753,1.0078511)"><path id="path2072" d="m 194.026,291.861 -0.058,0 -104.733,0 0,33.069 c 0,40.257 -58.238,40.736 -58.238,0 l 0,-33.069 -30.997,0 0,-103.56 C 0,160.505 22.358,145.816 34.984,144.213 L 66.858,62.816 c 6,-15.5 19,-28.748 43.5,-28.748 l 45.539,0 0,-21.252 c 0,-8.5 4.61,-12.816 12.11,-12.816 l 25.961,0 0.058,0 -0.062,0 0.059,0 26.461,0 c 7.5,0 12.11,4.316 12.11,12.816 l 0,21.252 45.016,0 c 24.5,0 37.5,13.248 43.5,28.748 l 31.874,81.397 c 12.626,1.603 35.007,16.292 35.007,44.088 l 0,103.56 -30.997,0 0,33.069 c 0,40.736 -58.238,40.257 -58.238,0 l 0,-33.069 -104.733,0 -0.059,0 0.062,0 z" style="fill:#000;stroke:none"/><g id="g2074"><path id="path2076" d="m 193.964,142.296 -0.059,0 -125.921,0 23.998,-62.98 c 3,-9 7.502,-15.5 18.002,-15.597 l 83.921,0 0.059,0 0.059,0 83.963,0 c 10.5,0.097 15,6.597 18,15.597 l 23.998,62.98 -125.961,0 -0.059,0 z" style="fill:#fff;stroke:none"/><g id="g2078"><g id="g2080"><path id="path2082" d="m 61.043,228.552 c -14.856,0 -26.901,-12.291 -26.901,-27.45 0,-15.159 12.045,-27.449 26.901,-27.449 14.856,0 26.9,12.29 26.9,27.449 0,15.159 -12.044,27.45 -26.9,27.45 z" style="fill:#fff;stroke:none"/><path id="path2084" style="fill:#fff;stroke:none"/></g><g id="g2086"><path id="path2088" d="m 326.926,228.552 c 14.856,0 26.9,-12.291 26.9,-27.45 0,-15.159 -12.044,-27.449 -26.9,-27.449 -14.856,0 -26.901,12.29 -26.901,27.449 0,15.159 12.045,27.45 26.901,27.45 z" style="fill:#fff;stroke:none"/><path id="path2090" style="fill:#fff;stroke:none"/></g></g></g></g><g id="g2232" transform="matrix(0.03718028,0,0,0.02929435,7.1527179,-15.851009)"><g id="g2241" transform="translate(-223.58119,501.2411)"><path style="color:#000;font-style:normal;font-variant:normal;font-weight:400;font-stretch:normal;font-size:171.46453857px;line-height:100%;font-family:'DIN 1451 Mittelschrift';text-indent:0;text-align:center;text-decoration:none;text-decoration-line:none;letter-spacing:normal;word-spacing:normal;text-transform:none;direction:ltr;block-progression:tb;writing-mode:lr-tb;text-anchor:middle;display:inline;overflow:visible;visibility:visible;fill:#000;fill-opacity:1;fill-rule:nonzero;stroke:none;stroke-width:1;stroke-linecap:round;stroke-linejoin:miter;stroke-miterlimit:4;stroke-dashoffset:0;stroke-opacity:1;marker:none;marker-start:none;marker-mid:none;marker-end:none" id="path2243" d="m 83.23651,579.26282 0,-105.5746 -33.405445,0 0,-16.40969 85.313655,0 0,16.40969 -33.40545,0 0,105.5746 -18.50276,0 z"/><path style="color:#000;font-style:normal;font-variant:normal;font-weight:400;font-stretch:normal;font-size:171.46453857px;line-height:100%;font-family:'DIN 1451 Mittelschrift';text-indent:0;text-align:center;text-decoration:none;text-decoration-line:none;letter-spacing:normal;word-spacing:normal;text-transform:none;direction:ltr;block-progression:tb;writing-mode:lr-tb;text-anchor:middle;display:inline;overflow:visible;visibility:visible;fill:#000;fill-opacity:1;fill-rule:nonzero;stroke:none;stroke-width:1;stroke-linecap:round;stroke-linejoin:miter;stroke-miterlimit:4;stroke-dashoffset:0;stroke-opacity:1;marker:none;marker-start:none;marker-mid:none;marker-end:none" id="path2245" d="m 128.57229,579.26283 44.5406,-122.06802 15.23757,0 44.54059,122.06802 -19.42372,0 -9.37696,-27.54484 -46.29878,0 -9.71185,27.54484 -19.50745,0 z m 34.66129,-43.87081 35.33108,0 c -2.56758,-7.53501 -4.59088,-13.43747 -6.06992,-17.7074 -1.47916,-4.2698 -2.76291,-8.05128 -3.85125,-11.34446 -1.08846,-3.29302 -2.19081,-6.64193 -3.30706,-10.04675 -1.11636,-3.40464 -2.59546,-8.0094 -4.43731,-13.81428 -1.95359,6.02814 -3.51641,10.84221 -4.68848,14.44221 -1.17217,3.60016 -2.30243,7.07466 -3.39078,10.4235 -1.08844,3.34898 -2.34429,7.0886 -3.76753,11.21887 -1.42333,4.13039 -3.36291,9.73982 -5.81875,16.82831 l 0,0 z"/><path style="color:#000;font-style:normal;font-variant:normal;font-weight:400;font-stretch:normal;font-size:171.46453857px;line-height:100%;font-family:'DIN 1451 Mittelschrift';text-indent:0;text-align:center;text-decoration:none;text-decoration-line:none;letter-spacing:normal;word-spacing:normal;text-transform:none;direction:ltr;block-progression:tb;writing-mode:lr-tb;text-anchor:middle;display:inline;overflow:visible;visibility:visible;fill:#000;fill-opacity:1;fill-rule:nonzero;stroke:none;stroke-width:1;stroke-linecap:round;stroke-linejoin:miter;stroke-miterlimit:4;stroke-dashoffset:0;stroke-opacity:1;marker:none;marker-start:none;marker-mid:none;marker-end:none" id="path2247" d="m 319.20817,579.26282 -26.70761,-45.37782 -26.79133,45.37782 -20.84701,0 37.34042,-62.54102 -34.99618,-59.44327 20.93073,0 24.36337,42.28008 24.27965,-42.28008 20.93073,0 -34.99618,59.44327 37.42414,62.54102 -20.93073,0 z"/><path style="color:#000;font-style:normal;font-variant:normal;font-weight:400;font-stretch:normal;font-size:171.46453857px;line-height:100%;font-family:'DIN 1451 Mittelschrift';text-indent:0;text-align:center;text-decoration:none;text-decoration-line:none;letter-spacing:normal;word-spacing:normal;text-transform:none;direction:ltr;block-progression:tb;writing-mode:lr-tb;text-anchor:middle;display:inline;overflow:visible;visibility:visible;fill:#000;fill-opacity:1;fill-rule:nonzero;stroke:none;stroke-width:1;stroke-linecap:round;stroke-linejoin:miter;stroke-miterlimit:4;stroke-dashoffset:0;stroke-opacity:1;marker:none;marker-start:none;marker-mid:none;marker-end:none" id="path2249" d="m 357.49438,579.26282 0,-121.98429 18.50277,0 0,121.98429 -18.50277,0 z"/></g></g></svg>