<svg xmlns="http://www.w3.org/2000/svg" xmlns:svg="http://www.w3.org/2000/svg" xmlns:xlink="http://www.w3.org/1999/xlink" id="svg2" width="11" height="16" version="1.1"><defs id="defs4"><linearGradient id="linearGradient4148"><stop id="stop4150" offset="0" style="stop-color:#000;stop-opacity:1"/><stop id="stop4152" offset="1" style="stop-color:#000;stop-opacity:0"/></linearGradient><linearGradient id="linearGradient3020"><stop id="stop3022" offset="0" style="stop-color:#0c0a09;stop-opacity:1"/><stop id="stop3024" offset="1" style="stop-color:#f95;stop-opacity:1"/></linearGradient><linearGradient id="linearGradient3002"><stop id="stop3004" offset="0" style="stop-color:#2b1100;stop-opacity:1"/><stop style="stop-color:#520;stop-opacity:1" id="stop3016" offset=".226"/><stop style="stop-color:#a40;stop-opacity:1" id="stop3014" offset=".433"/><stop style="stop-color:#d45500;stop-opacity:1" id="stop3012" offset=".64"/><stop style="stop-color:#ff7f2a;stop-opacity:1" id="stop3010" offset=".825"/><stop id="stop3006" offset="1" style="stop-color:#f95;stop-opacity:1"/></linearGradient><linearGradient id="linearGradient3008" x1="123.239" x2="636.396" y1="519.002" y2="523.042" gradientUnits="userSpaceOnUse" xlink:href="#linearGradient3002"/><radialGradient id="radialGradient3796" cx="357.27" cy="253.282" r="164.135" fx="357.27" fy="253.282" gradientTransform="matrix(1.5853452,-0.05837025,0.01233656,0.4883433,-212.19091,101.44674)" gradientUnits="userSpaceOnUse" xlink:href="#linearGradient3020"/><linearGradient id="linearGradient4154" x1="193.878" x2="863.72" y1="599.302" y2="572.764" gradientUnits="userSpaceOnUse" xlink:href="#linearGradient4148"/></defs><metadata id="metadata7"/><g id="layer1" transform="translate(-118.18603,-139.70459)"><g id="g4156" transform="matrix(0.01948035,0,0,0.01911645,115.88354,137.03421)"><path style="fill:url(#linearGradient3008);fill-opacity:1;stroke:#000;stroke-width:2;stroke-linecap:butt;stroke-linejoin:miter;stroke-miterlimit:4;stroke-dasharray:none;stroke-opacity:1" id="path2985" d="m 595.04177,168.91751 c -47.90783,20.23011 -136.57236,19.70214 -194.51047,22.92619 -63.14946,2.05735 -180.95693,-3.92308 -198.92304,-25.1481 32.99448,18.17822 46.3775,64.88217 61.01679,95.74185 3.41113,54.8983 5.91028,109.34061 -4.0313,157.56255 -112.20134,41.40137 -133.67824,100.96021 -139.40625,163.65625 5.38748,167.20627 158.26273,363.51016 220.21875,392 l 59.78125,-0.0625 h 2.6875 l 59.78125,0.0625 c 61.95602,-28.48984 214.83127,-224.79373 220.21875,-392 C 676.14699,520.96021 654.67009,461.40137 542.46875,420 c -14.30595,-49.93048 -5.28884,-104.52557 -4.0625,-157.5625 19.95985,-42.82078 30.94353,-79.10788 56.63552,-93.51999 z"/><path style="fill:url(#linearGradient4154);fill-opacity:1;stroke:#000;stroke-width:1px;stroke-linecap:butt;stroke-linejoin:miter;stroke-opacity:1" id="path2991" d="m 238.875,209.90625 c 9.61094,18.02889 16.70738,37.68538 23.75,52.53125 l 1.65505,17.25 c 95.20763,20.97427 182.30755,17.01975 272.14104,0.375 l 1.98516,-17.625 c 7.04347,-14.84766 14.12925,-34.5016 23.75,-52.53125 -102.66091,22.94777 -209.85163,25.5114 -323.28125,0 z M 127.6875,537.1875 c -4.62803,15.13607 -7.05902,30.69646 -8.5,46.46875 0.53158,16.49818 2.51314,33.28065 5.6875,50.15625 183.8125,29.09303 367.625,34.69533 551.4375,-0.75 3.09256,-16.62437 5.03875,-33.15097 5.5625,-49.40625 -1.44098,-15.77229 -3.87197,-31.33268 -8.5,-46.46875 -184.70747,30.92803 -366.36533,28.31031 -545.6875,0 z m 88.59375,307.09375 c 44.60909,67.29729 93.94452,117.95665 123.125,131.375 l 59.78125,-0.0625 h 2.6875 l 59.78125,0.0625 c 29.18048,-13.41835 78.51591,-64.07771 123.125,-131.375 -106.23212,26.08762 -224.66445,33.00348 -368.5,0 z"/><ellipse style="fill:url(#radialGradient3796);fill-opacity:1;stroke:#000;stroke-width:3;stroke-miterlimit:4;stroke-dasharray:none;stroke-opacity:1" id="path3018" cx="356.584" cy="174.54" rx="162.635" ry="25.254" transform="matrix(1.207256,0,0,1,-32.115934,-8.0812204)"/></g></g></svg>