<svg xmlns="http://www.w3.org/2000/svg" xmlns:svg="http://www.w3.org/2000/svg" xmlns:xlink="http://www.w3.org/1999/xlink" id="svg2" width="24" height="24" version="1.1" viewBox="0 0 24 24"><defs id="defs4"><linearGradient id="linearGradient868" x1="4" x2="12" y1="1041.362" y2="1049.362" gradientTransform="translate(4)" gradientUnits="userSpaceOnUse" xlink:href="#linearGradient866"/><linearGradient id="linearGradient866"><stop id="stop862" offset="0" style="stop-color:#dfdfdf;stop-opacity:1"/><stop id="stop864" offset="1" style="stop-color:#949593;stop-opacity:1"/></linearGradient></defs><metadata id="metadata7"/><g id="layer1" transform="translate(0,-1037.3622)"><rect id="rect833" width="13" height="3" x="5.5" y="1043.862" ry=".484" style="opacity:1;fill:#c1c2c0;fill-opacity:1;fill-rule:nonzero;stroke:#555753;stroke-width:1;stroke-linecap:round;stroke-linejoin:round;stroke-miterlimit:4;stroke-dasharray:none;stroke-dashoffset:.839909;stroke-opacity:1;paint-order:normal"/><rect id="rect833-5" width="13" height="3" x="-1051.862" y="10.5" ry=".484" transform="rotate(-90)" style="opacity:1;fill:#c1c2c0;fill-opacity:1;fill-rule:nonzero;stroke:#555753;stroke-width:1;stroke-linecap:round;stroke-linejoin:round;stroke-miterlimit:4;stroke-dasharray:none;stroke-dashoffset:.839909;stroke-opacity:1;paint-order:normal"/><path id="path852" d="M 6.0000001,1044.3622 H 11 v -5 h 2 v 5 h 5 v 2 h -5 v 5 h -2 v -5 H 6.0000001 Z" style="fill:url(#linearGradient868);fill-opacity:1;stroke:none;stroke-width:1px;stroke-linecap:butt;stroke-linejoin:miter;stroke-opacity:1"/><path style="fill:none;stroke:#000;stroke-width:1px;stroke-linecap:butt;stroke-linejoin:round;stroke-opacity:1" id="path894" d="m 9.5,1060.3629 v -7.5457 l 2.144859,4.0407 0.710282,-4e-4 2.144859,-4.0407 v 7.5457"/><path style="fill:none;stroke:#000;stroke-width:1px;stroke-linecap:butt;stroke-linejoin:miter;stroke-opacity:1" id="path896" d="m 4.5,1060.3625 v -8"/><path style="fill:none;stroke:#000;stroke-width:1px;stroke-linecap:butt;stroke-linejoin:miter;stroke-opacity:1" id="path898" d="M 2,1052.8625 H 7"/><path style="fill:none;stroke:#000;stroke-width:1px;stroke-linecap:butt;stroke-linejoin:round;stroke-opacity:1" id="path900" d="m 21.5,1054.3622 v -1.5 l -4,3e-4 v 3 l 4,-3e-4 v 4 l -4,3e-4 v -1.5"/></g></svg>