<svg xmlns="http://www.w3.org/2000/svg" xmlns:svg="http://www.w3.org/2000/svg" xmlns:xlink="http://www.w3.org/1999/xlink" id="svg11300" width="24" height="24" version="1.0"><defs id="defs3"><linearGradient id="linearGradient1913"><stop style="stop-color:#73d216;stop-opacity:1" id="stop1915" offset="0"/><stop style="stop-color:#8ae234;stop-opacity:1" id="stop1917" offset="1"/></linearGradient><linearGradient id="linearGradient5891"><stop style="stop-color:#fff;stop-opacity:1" id="stop5893" offset="0"/><stop style="stop-color:#fff;stop-opacity:0" id="stop5895" offset="1"/></linearGradient><linearGradient id="linearGradient5132"><stop style="stop-color:white;stop-opacity:1" id="stop5134" offset="0"/><stop style="stop-color:white;stop-opacity:0" id="stop5136" offset="1"/></linearGradient><linearGradient id="linearGradient8662"><stop style="stop-color:#000;stop-opacity:1" id="stop8664" offset="0"/><stop style="stop-color:#000;stop-opacity:0" id="stop8666" offset="1"/></linearGradient><radialGradient id="radialGradient8668" cx="24.837" cy="36.421" r="15.645" fx="24.837" fy="36.421" gradientTransform="matrix(0.60723295,0,0,0.19923464,-6.4502963,38.899246)" gradientUnits="userSpaceOnUse" xlink:href="#linearGradient8662"/><linearGradient id="linearGradient5138" x1="21.552" x2="18.072" y1="29.205" y2="55.692" gradientTransform="matrix(0.41038404,0,0,-0.42552236,-2.0206224,48.446188)" gradientUnits="userSpaceOnUse" xlink:href="#linearGradient5132"/><linearGradient id="linearGradient5897" x1="15.457" x2="25.561" y1="8.734" y2="13.526" gradientTransform="matrix(-0.58710981,0,0,-0.60856361,18.763668,47.444183)" gradientUnits="userSpaceOnUse" xlink:href="#linearGradient5891"/><linearGradient id="linearGradient1919" x1="13.188" x2="17.938" y1="35.938" y2="38.875" gradientTransform="matrix(0.41038404,0,0,-0.42552236,-2.0206224,48.446188)" gradientUnits="userSpaceOnUse" xlink:href="#linearGradient1913"/><linearGradient id="linearGradient2790"><stop id="stop2792" offset="0" style="stop-color:#edd400;stop-opacity:1"/><stop id="stop2794" offset="1" style="stop-color:#fce94f;stop-opacity:1"/></linearGradient><radialGradient id="radialGradient2782" cx="24.837" cy="36.421" r="15.645" fx="24.837" fy="36.421" gradientTransform="matrix(1,0,0,0.536723,0,16.87306)" gradientUnits="userSpaceOnUse" xlink:href="#linearGradient8662"/><linearGradient id="linearGradient2784" x1="25.446" x2="25.446" y1="20.688" y2="16.375" gradientUnits="userSpaceOnUse" xlink:href="#linearGradient2790"/><linearGradient id="linearGradient2786" x1="21.677" x2="18.072" y1="29.705" y2="55.692" gradientUnits="userSpaceOnUse" xlink:href="#linearGradient5891"/><linearGradient id="linearGradient2788" x1="15.457" x2="25.561" y1="8.734" y2="13.526" gradientTransform="matrix(-1.430635,0,0,1.430157,50.64595,2.354766)" gradientUnits="userSpaceOnUse" xlink:href="#linearGradient5891"/></defs><metadata id="metadata4"/><g id="layer1" transform="translate(0,-24)"><g id="g855"><ellipse style="color:#000;display:inline;overflow:visible;visibility:visible;opacity:.12999998;fill:url(#radialGradient8668);fill-opacity:1;fill-rule:evenodd;stroke:none;stroke-width:.47477189;stroke-linecap:butt;stroke-linejoin:miter;stroke-miterlimit:10;stroke-dasharray:none;stroke-dashoffset:0;stroke-opacity:1;marker:none;marker-start:none;marker-mid:none;marker-end:none" id="path8660" cx="8.632" cy="46.156" rx="9.5" ry="3.117"/><path id="path1432" d="m 5.130246,30.619595 c -7.0344244,4.02169 -3.0734551,12.546224 3.692451,12.479271 v 3.432472 l 6.598002,-5.982069 -6.598002,-6.273635 c 0,0 0,3.714399 0,3.714399 C 4.6225735,38.166694 2.7729496,34.897753 6.4538265,32.303587 7.5073209,31.561115 6.7775284,29.677818 5.130246,30.619595 Z" style="color:#000;display:block;overflow:visible;visibility:visible;opacity:1;fill:url(#linearGradient1919);fill-opacity:1;fill-rule:nonzero;stroke:#4e9a06;stroke-width:.41788417;stroke-linecap:butt;stroke-linejoin:miter;stroke-miterlimit:4;stroke-dasharray:none;stroke-dashoffset:0;stroke-opacity:1;marker:none;marker-start:none;marker-mid:none;marker-end:none"/><path id="path4247" d="m 9.2392897,45.600507 v -2.499944 c -0.00345,-0.233507 -0.1851842,-0.421934 -0.410384,-0.425522 -3.2132414,0.0318 -5.738144,-1.992051 -6.6302672,-4.44139 -0.8921231,-2.449338 -0.2371033,-5.31529 3.1420028,-7.247177 0.3488995,-0.199472 0.6015508,-0.219455 0.7694701,-0.186166 0.1679193,0.03329 0.2739753,0.126407 0.3462615,0.252654 0.1445726,0.252492 0.1231891,0.641427 -0.230841,0.890937 -0.9673753,0.681776 -1.6041637,1.425932 -1.9236752,2.1941 -0.3195115,0.768167 -0.3036119,1.562661 0.012824,2.233992 0.6328734,1.342662 2.3203237,2.140643 4.527049,2.047826 0.2201776,-0.01054 0.3943815,-0.197003 0.3975595,-0.425522 0,0 0,-1.674048 0,-2.7393 l 5.5658338,5.292434 z" style="color:#000;display:block;overflow:visible;visibility:visible;opacity:.61797755;fill:none;fill-opacity:1;fill-rule:nonzero;stroke:url(#linearGradient5138);stroke-width:.4178842;stroke-linecap:butt;stroke-linejoin:miter;stroke-miterlimit:4;stroke-dashoffset:0;stroke-opacity:1;marker:none;marker-start:none;marker-mid:none;marker-end:none"/><path id="path4920" d="M 15.07607,40.529202 C 7.4634053,41.86109 3.217998,39.614541 1.6174666,36.088563 c -0.063103,5.379825 5.3199753,6.944476 7.4237853,6.779657 l -0.00641,3.194178 z" style="opacity:.45;fill:url(#linearGradient5897);fill-opacity:1;fill-rule:evenodd;stroke:none;stroke-width:.41788465px;stroke-linecap:butt;stroke-linejoin:miter;stroke-opacity:1"/></g><g id="g2776" transform="matrix(-0.41038404,0,0,0.42527003,25.955992,23.536102)"><ellipse style="color:#000;display:inline;overflow:visible;visibility:visible;opacity:.12999998;fill:url(#radialGradient2782);fill-opacity:1;fill-rule:evenodd;stroke:none;stroke-width:1;stroke-linecap:butt;stroke-linejoin:miter;stroke-miterlimit:10;stroke-dasharray:none;stroke-dashoffset:0;stroke-opacity:1;marker:none;marker-start:none;marker-mid:none;marker-end:none" id="path8660-2" cx="24.837" cy="36.421" rx="15.645" ry="8.397" transform="matrix(1.47967,0,0,-0.872353,-13.55145,72.5668)"/><path id="path1432-4" d="M 17.424821,41.893434 C 0.283744,32.442251 9.935604,12.409146 26.422371,12.56649 V 4.4999994 L 42.5,18.558177 26.422371,33.301549 c 0,0 0,-8.729032 0,-8.729032 -10.234617,-0.415164 -14.741673,7.26702 -5.772326,13.363448 2.567094,1.744847 0.788778,6.170696 -3.225224,3.957469 z" style="color:#000;display:block;overflow:visible;visibility:visible;opacity:1;fill:url(#linearGradient2784);fill-opacity:1;fill-rule:nonzero;stroke:#c4a000;stroke-width:.99999887;stroke-linecap:butt;stroke-linejoin:miter;stroke-miterlimit:4;stroke-dasharray:none;stroke-dashoffset:0;stroke-opacity:1;marker:none;marker-start:none;marker-mid:none;marker-end:none"/><path id="path4247-5" d="m 27.4375,6.6875 v 5.875 c -0.0084,0.548754 -0.451246,0.991567 -1,1 C 18.60766,13.487775 12.455124,18.243926 10.28125,24 8.1073762,29.756074 9.7034903,36.491213 17.9375,41.03125 c 0.850178,0.468768 1.465824,0.515729 1.875,0.4375 0.409176,-0.07823 0.667607,-0.297065 0.84375,-0.59375 0.352286,-0.593371 0.30018,-1.507389 -0.5625,-2.09375 -2.357244,-1.602209 -3.908933,-3.351016 -4.6875,-5.15625 -0.778567,-1.805234 -0.739824,-3.672336 0.03125,-5.25 1.542149,-3.155327 5.65403,-5.030625 11.03125,-4.8125 0.536516,0.02478 0.961006,0.462968 0.96875,1 0,0 0,3.934101 0,6.4375 L 41,18.5625 Z" style="color:#000;display:block;overflow:visible;visibility:visible;opacity:.61797755;fill:none;fill-opacity:1;fill-rule:nonzero;stroke:url(#linearGradient2786);stroke-width:.99999893;stroke-linecap:butt;stroke-linejoin:miter;stroke-miterlimit:4;stroke-dashoffset:0;stroke-opacity:1;marker:none;marker-start:none;marker-mid:none;marker-end:none"/><path id="path4920-6" d="M 41.660227,18.605336 C 23.110128,15.475328 12.765166,20.754837 8.865084,29.04107 8.711319,16.398198 21.828491,12.721185 26.954933,13.108518 l -0.01563,-7.5064859 z" style="opacity:.45;fill:url(#linearGradient2788);fill-opacity:1;fill-rule:evenodd;stroke:none;stroke-width:1px;stroke-linecap:butt;stroke-linejoin:miter;stroke-opacity:1"/></g></g></svg>