<svg xmlns="http://www.w3.org/2000/svg" xmlns:svg="http://www.w3.org/2000/svg" xmlns:xlink="http://www.w3.org/1999/xlink" id="svg129" width="24" height="24" version="1.1"><metadata id="metadata133"/><defs id="defs70"><linearGradient id="p" x2="0" y1="27.92" y2="17.2" gradientTransform="matrix(0.5,0,0,0.5,-0.14645,0.4782)" gradientUnits="userSpaceOnUse"><stop id="stop2" offset="0" stop-color="#8f5902" stop-opacity=".19"/><stop id="stop4" offset="1" stop-color="#c17d11"/></linearGradient><linearGradient id="c"><stop id="stop7" offset="0" stop-color="#fce94f"/><stop id="stop9" offset=".5" stop-color="#8f5902"/><stop id="stop11" offset="1" stop-color="#c4a000"/></linearGradient><linearGradient id="a"><stop id="stop14" offset="0"/><stop id="stop16" offset="1" stop-opacity="0"/></linearGradient><linearGradient id="t" x1="40.57" x2="41.69" y1="36.4" y2="35.5" gradientTransform="matrix(0.5,0,0,0.5,-0.14645,0.4782)" gradientUnits="userSpaceOnUse" xlink:href="#a"/><linearGradient id="u" x1="20" x2="21.91" y1="36.3" y2="37.1" gradientTransform="matrix(0.5,0,0,0.5,-0.14645,0.4782)" gradientUnits="userSpaceOnUse" xlink:href="#a"/><linearGradient id="v" x2="0" y1="29.55" y2="35.8" gradientTransform="matrix(0.5,0,0,0.5,-0.14645,0.4782)" gradientUnits="userSpaceOnUse"><stop id="stop21" offset="0" stop-color="#fff"/><stop id="stop23" offset="1" stop-color="#c9c9c9"/></linearGradient><radialGradient id="j" cx="29.38" cy="17.1" r="7.1" gradientTransform="matrix(0.5,0,0,0.5,-0.14645,0.4782)" gradientUnits="userSpaceOnUse"><stop id="stop26" offset="0" stop-color="#f4d9b1"/><stop id="stop28" offset="1" stop-color="#df9725"/></radialGradient><radialGradient id="k" cx="28.1" cy="27.2" r="13.57" gradientTransform="matrix(0.649,0,0,0.4425,-4.3265,2.948)" gradientUnits="userSpaceOnUse"><stop id="stop31" offset="0" stop-color="#3b74bc"/><stop id="stop33" offset="1" stop-color="#2d5990"/></radialGradient><radialGradient id="b" cx="31.1" cy="19" r="8.66" gradientTransform="matrix(0.5,0,0,0.5,-0.21145,2.228)" gradientUnits="userSpaceOnUse" xlink:href="#a"/><radialGradient id="e" cx="5.344" cy="24.84" r="2.883" gradientTransform="matrix(0.31151043,0.11634543,-0.11020369,0.23594073,11.225376,-22.114131)" gradientUnits="userSpaceOnUse"><stop id="stop37" offset="0" stop-color="#fff" stop-opacity=".6"/><stop id="stop39" offset="1" stop-color="#fff" stop-opacity="0"/></radialGradient><radialGradient id="w" cx="31.1" cy="19" r="8.66" gradientTransform="matrix(0.888,0,0,0.4795,-12.245,9.865)" gradientUnits="userSpaceOnUse" xlink:href="#a"/><linearGradient id="l" x1="14.27" x2="49.4" y1="16.21" y2="26.52" gradientTransform="matrix(0.48905,0,0,0.48905,-7.23,-3.9365)" gradientUnits="userSpaceOnUse" xlink:href="#c"/><radialGradient id="o" cx="31.1" cy="19" r="8.66" gradientTransform="matrix(0.888,0,0,0.4795,-18.9,6.465)" gradientUnits="userSpaceOnUse" xlink:href="#a"/><radialGradient id="q" cx="28.1" cy="27.2" r="13.57" gradientTransform="matrix(0.649,0,0,0.4425,-10.955,-0.4507)" gradientUnits="userSpaceOnUse"><stop id="stop45" offset="0" stop-color="#be0000"/><stop id="stop47" offset="1" stop-color="#780000"/></radialGradient><linearGradient id="f" x1="21.68" x2="23.54" y1="39" y2="39.76" gradientTransform="matrix(0.5,0,0,0.5,-7.59,-4.2655)" gradientUnits="userSpaceOnUse" xlink:href="#a"/><linearGradient id="h" x1="42.2" x2="43.3" y1="39.1" y2="38.2" gradientTransform="matrix(0.5,0,0,0.5,-7.59,-4.2655)" gradientUnits="userSpaceOnUse" xlink:href="#a"/><radialGradient id="r" cx="32.75" cy="23.79" r="8.51" gradientTransform="matrix(0.5,0,0,0.5,-7.59,-4.2655)" gradientUnits="userSpaceOnUse" xlink:href="#a"/><radialGradient id="s" cx="32.3" cy="20.23" r="6.64" gradientTransform="matrix(0.5,0,0,0.5,-7.59,-4.2655)" gradientUnits="userSpaceOnUse"><stop id="stop53" offset="0" stop-color="#f5e2c3"/><stop id="stop55" offset="1" stop-color="#df9929"/></radialGradient><linearGradient id="i" x2="0" y1="29.79" y2="21.81" gradientTransform="matrix(0.5,0,0,0.5,-7.59,-4.2655)" gradientUnits="userSpaceOnUse"><stop id="stop58" offset="0" stop-color="#8f5902" stop-opacity="0"/><stop id="stop60" offset="1" stop-color="#653f01"/></linearGradient><linearGradient id="m" x1="35.3" x2="40.7" y1="19.84" y2="15" gradientTransform="matrix(0.8883,0,0,0.9538,-11.57,-7.46)" gradientUnits="userSpaceOnUse" xlink:href="#c"/><linearGradient id="n" x1="27.71" x2="33.66" y1="13.53" y2="23.32" gradientTransform="matrix(0.8883,0,0,0.9538,-11.57,-7.46)" gradientUnits="userSpaceOnUse" xlink:href="#c"/><radialGradient id="g" cx="29.2" cy="17.86" r="8.66" gradientTransform="matrix(0.552,0.115,-0.068,0.348,6.579,17.82)" gradientUnits="userSpaceOnUse"><stop id="stop65" offset="0" stop-color="#f9adad" stop-opacity=".3"/><stop id="stop67" offset="1" stop-color="#868686" stop-opacity="0"/></radialGradient><radialGradient id="radialGradient956" cx="29.2" cy="17.86" r="8.66" gradientTransform="matrix(0.276,0.0575,-0.034,0.174,3.2895,8.91)" gradientUnits="userSpaceOnUse" xlink:href="#g"/></defs><path id="path72" d="M 6.24,12.52 3.4675,11.8355 c 0,0 0.1516,-5.55 1.3055,-7.335 1.154,-1.79 2.5135,-2.22 2.5135,-2.22 0,0 2.225,-0.7825 3.032,0.22985 0.3325,0.4158 1.3155,0.1565 1.956,1.012 0.6405,0.8555 2.0145,5.555 1.8285,8.31 l -4.603,0.748 -3.2615,0.0978 v -0.1614 z" style="fill:url(#l);stroke:#8f5902;stroke-width:.5;stroke-linejoin:round"/><ellipse id="ellipse74" cx="8.72" cy="15.58" rx="7.69" ry="4.155" style="fill:url(#o);stroke-width:.5"/><ellipse id="ellipse76" cx="8.785" cy="6.615" rx="3.94" ry="3.945" style="fill:#8f5902;stroke:#8f5902;stroke-width:.40000001"/><path id="path78" d="m 6.22,17.885 h 5.305 c 1.5,0 2.99,-0.55 3.55,-2.12 0.52,-1.49 0.09,-4.33 -3.27,-6.63 H 5.53 c -3.36,2.12 -3.78,5 -3,6.72 0.79,1.725 2.12,2.035 3.715,2.035 z" style="fill:url(#q);stroke:#c00;stroke-width:.5;stroke-linecap:round;stroke-linejoin:round"/><path id="path80" d="m 6.235,17.385 5.325,-0.01 c 1.42,0 2.555,-0.415 3.07,-1.89 0.4599,-1.33 -0.13,-3.86 -3.125,-5.91 L 5.82,9.445 c -2.995,1.89 -3.57,4.4735 -2.87,6.11 0.7,1.635 1.725,1.81 3.285,1.825 z" style="opacity:.3;fill:none;stroke:#fff;stroke-width:.5;stroke-linecap:round;stroke-linejoin:round"/><path id="path82" d="m 4.148,17.485 c -0.625,-0.275 -0.905,-0.93 -0.905,-0.93 0.42,-2.035 1.86,-3.5 1.86,-3.5 0,0 -1.14,3.205 -0.955,4.45" style="opacity:.23000004;fill:url(#f);stroke-width:.5"/><path id="path84" d="m 13.61,17.035 c 0.615,-0.29 0.9,-1 0.9,-1 -0.48,-2 -1.99,-3.42 -1.99,-3.42 0,0 1.235,3.17 1.085,4.42" style="opacity:.23000004;fill:url(#h);stroke-width:.5"/><circle id="circle86" cx="8.785" cy="7.63" r="4.255" style="fill:url(#r);stroke-width:.5"/><circle id="circle88" cx="8.785" cy="6.615" r="3.81" style="fill:url(#s);stroke:url(#i);stroke-width:.5"/><g id="g96" transform="scale(0.5)" style="stroke-width:.80000001;stroke-linejoin:round"><circle id="circle90" cx="17.57" cy="13.23" r="6.81" style="opacity:.2;fill:none;stroke:#fff"/><path id="path92" d="m 19.9,7.068 c -0.67,-0.153 5.31,6.622 6.71,6.892 0.34,0.06 -1.68,-7.092 -3.52,-7.522 l -1.82,-0.42 z" style="fill:url(#m);stroke:#8f5902"/><path id="path94" d="m 21.27,5.99 c 0.764,0 -8.713,7.899 -11.46,7.06 -2.665,-0.8202 1.155,-6.506 3.35,-7.479 0,0 2.931,-1.317 4.291,-1.364 2.203,-0.06678 3.811,1.784 3.811,1.784 z" style="fill:url(#n);stroke:#8f5902"/></g><path id="path98" d="m 10.685,3.949 c -0.0089,0.01431 1.488,1.989 2.065,2.2895 0.5645,0.29575 -0.11105,-0.954 -0.342,-1.6075 l 0.48825,1.593 c -0.685,-0.44 -1.45,-1.3905 -2.215,-2.273 m -5.92,1.918 c 0.11545,0.2862 0.302,0.3816 0.502,0.3816 0.33755,-4.77e-4 1.5325,-0.56 2.2605,-0.93 0,0 -0.37225,0.3469 -1.247,0.743 -0.42185,0.1908 -1.231,0.703 -1.6665,-0.012975 -0.437,-0.72 1.602,-3.7515 3.762,-3.645 -1.965,0.1695 -3.9095,2.665 -3.611,3.465 z" style="opacity:.5;fill:#fff;stroke-width:.5"/><ellipse id="d" cx="11.15" cy="13.885" rx="2" ry="1.645" style="fill:url(#radialGradient956);stroke-width:.5"/><use id="use101" width="100%" height="100%" x="-8.5" y="0" xlink:href="#d"/><use id="use103" width="100%" height="100%" x="-8.5" y="0" transform="matrix(0.6513,0,0,0.6513,1.3115,1.4005)" xlink:href="#d"/><ellipse id="ellipse105" cx="15.37" cy="18.975" rx="7.69" ry="4.153" style="fill:url(#w);stroke-width:.5"/><path id="path107" d="m 12.85,21.3 h 5.305 c 1.5,0 2.99,-0.55 3.55,-2.12 0.52,-1.49 0.09,-4.33 -3.27,-6.63 H 12.16 c -3.36,2.12 -3.78,5 -3,6.72 0.79,1.725 2.12,2.035 3.715,2.035 z" style="fill:url(#k);stroke:#204a87;stroke-width:.5;stroke-linecap:round;stroke-linejoin:round"/><path id="path109" d="m 13.2,13.345 c 1.59,1.415 2.3,6.55 2.3,6.55 0,0 0.705,-5.125 1.945,-6.63 l -4.24,0.09" style="fill:url(#v);stroke-width:.5"/><path id="path111" d="m 14.34,13.875 c 0,0 -1.075,0.83 -0.985,1.83 -1.02,-0.9 -1.05,-2.625 -1.05,-2.625 l 2.035,0.795" style="fill:#aec8e4;stroke-width:.5"/><path id="path113" d="m 12.81,20.775 5.245,-0.01 c 1.32,0 2.625,-0.485 3.105,-1.865 0.455,-1.31 -0.045,-3.805 -2.995,-5.825 l -5.76,-0.115 c -2.95,1.865 -3.5,4.41 -2.83,6 0.69,1.61 1.695,1.785 3.24,1.795 z" style="opacity:.23000004;fill:none;stroke:#fff;stroke-width:.5;stroke-linecap:round;stroke-linejoin:round"/><path id="path115" d="m 16.56,13.875 c 0,0 1.075,0.83 0.985,1.83 1.02,-0.9 1.05,-2.625 1.05,-2.625 l -2.035,0.795" style="fill:#aec8e4;stroke-width:.5"/><path id="path117" d="m 10.78,20.87 c -0.625,-0.275 -0.905,-0.93 -0.905,-0.93 0.42,-2.035 1.86,-3.5 1.86,-3.5 0,0 -1.14,3.205 -0.955,4.45" style="opacity:.23000004;fill:url(#u);stroke-width:.5"/><path id="path119" d="m 20.235,20.44 c 0.615,-0.29 0.9,-1 0.9,-1 -0.48,-2 -1.99,-3.42 -1.99,-3.42 0,0 1.23,3.17 1.085,4.425" style="opacity:.23000004;fill:url(#t);stroke-width:.5"/><circle id="circle121" cx="15.34" cy="11.73" r="4.33" style="fill:url(#b);stroke-width:.5"/><circle id="circle123" cx="15.405" cy="9.98" r="4.24" style="fill:url(#j);stroke:url(#p);stroke-width:.5"/><circle id="circle125" cx="15.4" cy="9.98" r="3.72" style="opacity:.2;fill:none;stroke:#fff;stroke-width:.5"/><ellipse id="ellipse127" cx="10.15" cy="-15.629" rx=".872" ry=".78" transform="matrix(-0.29958997,0.95406805,-0.96503792,-0.2621103,0,0)" style="opacity:.3;fill:url(#e);stroke-width:.49999854"/></svg>