<svg xmlns="http://www.w3.org/2000/svg" xmlns:svg="http://www.w3.org/2000/svg" id="svg2" width="24" height="24" version="1.1" viewBox="0 0 24 24"><defs id="defs4"><linearGradient id="a" x1="24.2" x2="24.2" y1="1" y2="47.2" gradientTransform="matrix(0.5,0,0,0.5,0,1029.3622)" gradientUnits="userSpaceOnUse"><stop id="stop4" offset="0" stop-color="#28627d"/><stop id="stop6" offset=".7" stop-color="#0c465f"/><stop id="stop8" offset="1" stop-color="#003952"/></linearGradient></defs><metadata id="metadata7"/><g id="layer1" transform="translate(0,-1029.3622)"><path style="fill:url(#a);stroke-width:.5" id="path11" d="m 10.05,1052.9622 a 45.1,45.1 0 0 0 -9.6,-8.6 l 4.5,-3.2 a 17.5,17.5 0 0 1 4.45,5.05 l 0.25,0.45 0.2,-0.45 c 1.45,-3.05 7.65,-12.5 13.2,-16.35 -0.2,2.15 0,4.3 0.65,6.75 -5.8,3.5 -12.45,14.35 -13.65,16.35 z"/><path style="fill:#003952;stroke-width:.5" id="path13" d="m 22.75,1030.4122 c -0.15,1.95 0.1,3.95 0.65,6.1 -5.55,3.45 -11.85,13.45 -13.4,16 a 44.75,44.75 0 0 0 -9.1,-8.15 l 4.05,-2.85 a 17.5,17.5 0 0 1 4.25,4.85 l 0.45,0.85 0.4,-0.9 c 1.45,-2.95 7.3,-11.9 12.7,-15.9 m 0.6,-1.05 c -5.65,3.65 -12.2,13.5 -13.75,16.7 a 18.9,18.9 0 0 0 -4.65,-5.25 l -4.95,3.55 a 46.55,46.55 0 0 1 10.1,9 c 0,0 7.6,-13 13.9,-16.65 a 18,18 0 0 1 -0.65,-7.35 z"/><path style="fill:#2286b3;stroke-width:.5" id="path15" d="m 9.7,1047.1622 a 49.25,49.25 0 0 1 13.05,-16.7 c -3.15,2.05 -10.5,12.4 -13.05,16.7 z m -4.7,-5.7 c -0.3,0.6 -3.15,2.7 -4.1,2.85 0.5,-0.45 3.5,-2.55 4.1,-2.85 z"/></g></svg>