<svg xmlns="http://www.w3.org/2000/svg" xmlns:svg="http://www.w3.org/2000/svg" xmlns:xlink="http://www.w3.org/1999/xlink" id="svg249" width="24" height="24" version="1.1"><defs id="defs3"><linearGradient id="linearGradient3244"><stop style="stop-color:#000;stop-opacity:0" id="stop3246" offset="0"/><stop id="stop3274" offset=".081" style="stop-color:#000;stop-opacity:0"/><stop style="stop-color:#000;stop-opacity:.24705882" id="stop3276" offset=".615"/><stop id="stop3272" offset=".749" style="stop-color:#000;stop-opacity:.49803922"/><stop style="stop-color:#000;stop-opacity:1" id="stop3248" offset="1"/></linearGradient><linearGradient id="linearGradient2843"><stop style="stop-color:#eeeeec;stop-opacity:1" id="stop2845" offset="0"/><stop style="stop-color:white;stop-opacity:1" id="stop2847" offset="1"/></linearGradient><linearGradient id="linearGradient19914"><stop style="stop-color:#000;stop-opacity:1" id="stop19916" offset="0"/><stop style="stop-color:#000;stop-opacity:0" id="stop19918" offset="1"/></linearGradient><linearGradient id="linearGradient19900"><stop style="stop-color:#888a85" id="stop19902" offset="0"/><stop style="stop-color:#d3d7cf" id="stop19904" offset="1"/></linearGradient><linearGradient id="linearGradient11102"><stop style="stop-color:#fff;stop-opacity:1" id="stop11104" offset="0"/><stop style="stop-color:#fff;stop-opacity:0" id="stop11106" offset="1"/></linearGradient><linearGradient id="linearGradient4952"><stop style="stop-color:#fff;stop-opacity:1" id="stop4954" offset="0"/><stop style="stop-color:#fff;stop-opacity:0" id="stop4956" offset="1"/></linearGradient><linearGradient id="linearGradient4931"><stop style="stop-color:#babdb6;stop-opacity:1" id="stop4933" offset="0"/><stop style="stop-color:#888a85" id="stop4935" offset="1"/></linearGradient><linearGradient id="linearGradient4919"><stop style="stop-color:#429eff;stop-opacity:1" id="stop4921" offset="0"/><stop style="stop-color:#0044a7;stop-opacity:1" id="stop4923" offset="1"/></linearGradient><linearGradient id="linearGradient2609"><stop id="stop2611" offset="0" style="stop-color:#fff;stop-opacity:1"/><stop id="stop2613" offset="1" style="stop-color:#eeeeec"/></linearGradient><linearGradient id="linearGradient2617"><stop id="stop2619" offset="0" style="stop-color:#fbfbfa;stop-opacity:1"/><stop id="stop2621" offset="1" style="stop-color:#d3d7cf"/></linearGradient><linearGradient id="linearGradient2690"><stop id="stop2692" offset="0" style="stop-color:#2e3436"/><stop id="stop2694" offset="1" style="stop-color:#555753"/></linearGradient><linearGradient id="linearGradient2698"><stop id="stop2700" offset="0" style="stop-color:#555753"/><stop style="stop-color:#a3a5a2;stop-opacity:1" id="stop2706" offset=".702"/><stop id="stop2702" offset="1" style="stop-color:#888a85"/></linearGradient><radialGradient id="radialGradient1409" cx="45.095" cy="-2.694" r="10.498" fx="45.095" fy="-2.694" gradientTransform="matrix(0,0.94334047,-1.028954,-1.0300793e-6,1.6369068,-14.450603)" gradientUnits="userSpaceOnUse" xlink:href="#linearGradient2609"/><radialGradient id="radialGradient1411" cx="59.787" cy="10.902" r="10.556" fx="59.787" fy="10.902" gradientTransform="matrix(0,-1.3492872,1.330688,0,1.8414798,119.81545)" gradientUnits="userSpaceOnUse" xlink:href="#linearGradient2617"/><linearGradient id="linearGradient1421" x1="81.332" x2="82.92" y1="55.107" y2="53.511" gradientUnits="userSpaceOnUse" xlink:href="#linearGradient2698"/><linearGradient id="linearGradient1423" x1="81.096" x2="83.629" y1="57.148" y2="54.615" gradientUnits="userSpaceOnUse" xlink:href="#linearGradient2690"/><radialGradient id="radialGradient4925" cx="17.062" cy="28.851" r="13.5" fx="17.062" fy="28.851" gradientTransform="matrix(0.86491542,0,0,0.78274312,-4.2393813,17.109242)" gradientUnits="userSpaceOnUse" xlink:href="#linearGradient4919"/><linearGradient id="linearGradient4937" x1="54.113" x2="50.08" y1="12.847" y2="-3.881" gradientTransform="matrix(0.726586,0,0,0.7265875,-27.627738,30.754128)" gradientUnits="userSpaceOnUse" xlink:href="#linearGradient4931"/><radialGradient id="radialGradient4960" cx="16.83" cy="24.744" r="16.925" fx="16.83" fy="24.744" gradientTransform="matrix(1.1156445,-0.298936,0.2651265,0.9895065,-15.356253,15.774953)" gradientUnits="userSpaceOnUse" xlink:href="#linearGradient4952"/><radialGradient id="radialGradient11108" cx="8.04" cy="9.528" r="9.813" fx="8.04" fy="9.528" gradientTransform="matrix(0.62719743,0,0,0.62719743,2.6314818,25.784425)" gradientUnits="userSpaceOnUse" xlink:href="#linearGradient11102"/><linearGradient id="linearGradient19906" x1="40.25" x2="43.063" y1="41" y2="38.435" gradientTransform="matrix(0.5,0,0,0.5,-0.48196817,24.023773)" gradientUnits="userSpaceOnUse" xlink:href="#linearGradient19900"/><linearGradient id="linearGradient19920" x1="33.985" x2="37.211" y1="32.046" y2="35.272" gradientTransform="matrix(0.5,0,0,0.5,-0.48196817,24.023773)" gradientUnits="userSpaceOnUse" xlink:href="#linearGradient19914"/><linearGradient id="linearGradient2849" x1="17.25" x2="21" y1="12.563" y2="28.438" gradientTransform="matrix(0.5,0,0,0.5,3e-8,23.53)" gradientUnits="userSpaceOnUse" xlink:href="#linearGradient2843"/><linearGradient id="linearGradient3250" x1="3.5" x2="46.779" y1="35.743" y2="45.743" gradientUnits="userSpaceOnUse" xlink:href="#linearGradient3244"/><filter id="filter3268" width="1.177" height="1.767" x="-.089" y="-.384"><feGaussianBlur id="feGaussianBlur3270" stdDeviation="1.598"/></filter></defs><metadata id="metadata4"/><g id="layer5" transform="translate(0,-24)" style="display:inline"><path style="display:inline;overflow:visible;visibility:visible;opacity:.6;fill:url(#linearGradient3250);fill-opacity:1;fill-rule:nonzero;stroke:none;stroke-width:.67653471;stroke-linecap:round;stroke-linejoin:round;stroke-miterlimit:4;stroke-dashoffset:0;stroke-opacity:1;marker:none;marker-start:none;marker-mid:none;marker-end:none;filter:url(#filter3268)" id="path2462" d="m 21,35.742942 c -9.66,0 -17.5,1.813013 -17.5,4.046903 0,2.233891 7.84,4.046903 17.5,4.046903 4.496436,0 8.586827,-0.395406 11.6875,-1.040632 L 33.5,43.742802 c 0.02528,0.0212 0.08684,0.04271 0.15625,0.05781 l 7.96875,1.85724 c 0.356813,0.08259 0.882656,0.1013 1.53125,0.07227 0.648594,-0.02903 1.411565,-0.124081 2.21875,-0.310744 0.800523,-0.185122 1.205812,-0.349872 1.34375,-0.498637 0.137937,-0.148764 0.03928,-0.279981 -0.3125,-0.36133 L 38.375,42.716623 c -0.07874,-0.01787 -0.171854,-0.03236 -0.28125,-0.03613 L 34,42.492598 c 2.790145,-0.717035 4.5,-1.662945 4.5,-2.702753 0,-2.23389 -7.84,-4.046903 -17.5,-4.046903 z" transform="matrix(0.5,0,0,0.45,0.76803183,26.689449)"/><ellipse style="color:#000;display:inline;overflow:visible;visibility:visible;opacity:.6;fill:url(#radialGradient4925);fill-opacity:1;fill-rule:nonzero;stroke:none;stroke-width:1.17436159;stroke-linecap:round;stroke-linejoin:round;stroke-miterlimit:4;stroke-dasharray:none;stroke-dashoffset:0;stroke-opacity:1;marker:none;marker-start:none;marker-mid:none;marker-end:none" id="path1425" cx="10.518" cy="34.024" rx="8" ry="8"/><path style="color:#000;display:inline;overflow:visible;visibility:visible;opacity:.5;fill:url(#radialGradient4960);fill-opacity:1;fill-rule:nonzero;stroke:none;stroke-width:1;stroke-linecap:round;stroke-linejoin:round;stroke-miterlimit:4;stroke-dasharray:none;stroke-dashoffset:0;stroke-opacity:1;marker:none;marker-start:none;marker-mid:none;marker-end:none" id="path4939" d="m 10.233433,25.773773 c -4.2580812,0.162021 -7.6644372,3.674678 -7.6644372,7.972187 0,1.208459 0.701559,2.360895 1.245654,3.355938 -0.236035,-2.714092 0.933309,-3.30659 1.709778,-3.065536 2.355752,0.731342 6.4436712,1.396102 10.6435652,-0.796735 1.472333,-0.768731 2.330932,1.114734 2.272102,-0.578119 -0.46972,-3.897294 -3.864986,-6.887735 -7.898912,-6.887735 -0.10314,0 -0.205556,-0.0039 -0.30775,0 z"/><circle id="path2607" cx="10.518" cy="34.024" r="8" style="color:#000;display:inline;overflow:visible;visibility:visible;fill:none;fill-opacity:1;fill-rule:nonzero;stroke:url(#radialGradient1411);stroke-width:1.49999988;stroke-linecap:round;stroke-linejoin:miter;stroke-miterlimit:4;stroke-dasharray:none;stroke-dashoffset:0;stroke-opacity:1;marker:none;marker-start:none;marker-mid:none;marker-end:none"/><g id="g2708" transform="matrix(0.772026,0,0,0.768008,-42.770748,1.8011983)"><path style="color:#000;display:inline;overflow:visible;visibility:visible;fill:url(#linearGradient1421);fill-opacity:1;fill-rule:nonzero;stroke:url(#linearGradient1423);stroke-width:.67653471;stroke-linecap:round;stroke-linejoin:round;stroke-miterlimit:4;stroke-dashoffset:0;stroke-opacity:1;marker:none;marker-start:none;marker-mid:none;marker-end:none" id="path2682" d="m 76.796351,49.768459 0.647647,3.255175 5.181173,5.213494 c 0.192503,0.193704 0.97147,0.320302 1.942939,-0.65625 0.97147,-0.976552 0.895574,-1.70388 0.647647,-1.953105 l -5.181173,-5.208279 z"/><path style="color:#000;display:inline;overflow:visible;visibility:visible;opacity:.19215686;fill:#fff;fill-opacity:1;fill-rule:nonzero;stroke:none;stroke-width:.99999964;stroke-linecap:round;stroke-linejoin:miter;stroke-miterlimit:4;stroke-dashoffset:0;stroke-opacity:1;marker:none;marker-start:none;marker-mid:none;marker-end:none" id="path2687" d="m 79.567301,51.320041 c -0.003,0.0112 0.294101,0.324318 -0.245291,0.864982 -0.539399,0.540663 -1.007144,0.373988 -0.993486,0.360259 l -0.269149,-1.521577 z"/></g><path id="path17267" d="m 17.160354,40.663071 0.311283,1.600609 3.749798,3.774388 c 0.184417,0.185627 0.466925,0.108953 0.933848,-0.357971 0.466925,-0.466924 0.587313,-0.700647 0.355478,-0.933849 l -3.749798,-3.771895 z" style="color:#000;display:inline;overflow:visible;visibility:visible;opacity:1;fill:none;fill-opacity:1;fill-rule:nonzero;stroke:url(#linearGradient19906);stroke-width:.49999967;stroke-linecap:round;stroke-linejoin:miter;stroke-miterlimit:4;stroke-dasharray:none;stroke-dashoffset:0;stroke-opacity:1;marker:none;marker-start:none;marker-mid:none;marker-end:none"/><path style="color:#000;display:inline;overflow:visible;visibility:visible;opacity:.15294118;fill:url(#linearGradient19920);fill-opacity:1;fill-rule:nonzero;stroke:none;stroke-width:.33826736;stroke-linecap:round;stroke-linejoin:round;stroke-miterlimit:4;stroke-dashoffset:0;stroke-opacity:1;marker:none;marker-start:none;marker-mid:none;marker-end:none" id="path19908" d="m 16.433996,39.769594 c -0.129914,0.04375 -0.203673,0.180022 -0.168881,0.312003 l 0.506642,2.496026 c 0.01264,0.04583 0.03767,0.08734 0.07238,0.120001 l 3.980759,4.008042 c 0.178407,0.178581 0.447729,0.230778 0.772026,0.168002 0.324297,-0.06278 0.706195,-0.268414 1.109787,-0.672007 0.400262,-0.400261 0.606554,-0.758361 0.675523,-1.080011 0.06897,-0.321651 0.007,-0.61612 -0.168881,-0.792009 L 19.208467,40.3456 c -0.03937,-0.03864 -0.09006,-0.06385 -0.144755,-0.072 l -2.484959,-0.504005 c -0.04729,-0.01357 -0.09747,-0.01357 -0.144755,0 z"/><circle id="path2605" cx="10.518" cy="34.024" r="8.25" style="color:#000;display:inline;overflow:visible;visibility:visible;fill:none;fill-opacity:1;fill-rule:nonzero;stroke:url(#radialGradient1409);stroke-width:.50000012;stroke-linecap:round;stroke-linejoin:miter;stroke-miterlimit:4;stroke-dasharray:none;stroke-dashoffset:0;stroke-opacity:1;marker:none;marker-start:none;marker-mid:none;marker-end:none"/><circle id="path2599" cx="10.518" cy="34.024" r="8.75" style="color:#000;display:inline;overflow:visible;visibility:visible;fill:none;fill-opacity:1;fill-rule:nonzero;stroke:#4f504d;stroke-width:.4999997;stroke-linecap:round;stroke-linejoin:miter;stroke-miterlimit:4;stroke-dasharray:none;stroke-dashoffset:0;stroke-opacity:1;marker:none;marker-start:none;marker-mid:none;marker-end:none"/><ellipse id="path4927" cx="10.518" cy="34.024" rx="7.266" ry="7.266" style="color:#000;display:inline;overflow:visible;visibility:visible;fill:none;fill-opacity:1;fill-rule:nonzero;stroke:url(#linearGradient4937);stroke-width:.50000024;stroke-linecap:round;stroke-linejoin:miter;stroke-miterlimit:4;stroke-dasharray:none;stroke-dashoffset:0;stroke-opacity:1;marker:none;marker-start:none;marker-mid:none;marker-end:none"/><circle style="color:#000;display:inline;overflow:visible;visibility:visible;opacity:.16078431;fill:url(#radialGradient11108);fill-opacity:1;fill-rule:nonzero;stroke:none;stroke-width:.66242099;stroke-linecap:round;stroke-linejoin:miter;stroke-miterlimit:4;stroke-dasharray:none;stroke-dashoffset:0;stroke-opacity:1;marker:none;marker-start:none;marker-mid:none;marker-end:none" id="path11092" cx="10.518" cy="34.024" r="6.5"/><path style="opacity:.7;fill:url(#linearGradient2849);fill-opacity:1;stroke:#3465a4;stroke-width:1.5;stroke-linecap:round;stroke-linejoin:miter;stroke-miterlimit:4;stroke-dasharray:none;stroke-opacity:1" id="rect1945" d="m 6,28.78 c -0.1387175,0 -0.25,0.111282 -0.25,0.25 v 3.25 h 1.5 v -2 h 2 v -1.5 z m 5.75,0 v 1.5 h 2 v 2 h 1.5 v -3.25 c 0,-0.138718 -0.111282,-0.25 -0.25,-0.25 z m -6,6 v 3.25 c 0,0.138717 0.111282,0.25 0.25,0.25 h 3.25 v -1.5 h -2 v -2 z m 8,0 v 2 h -2 v 1.5 H 15 c 0.138717,0 0.25,-0.111282 0.25,-0.25 v -3.25 z"/><path style="display:inline;opacity:.7;fill:#fff;fill-opacity:1;stroke:#3465a4;stroke-width:.5;stroke-linecap:round;stroke-linejoin:miter;stroke-miterlimit:4;stroke-dasharray:none;stroke-opacity:1" id="rect1945-5" d="m 6.0132182,28.756227 c -0.1387175,0 -0.25,0.111282 -0.25,0.25 v 3.25 h 1.5 v -2 h 2 v -1.5 z m 5.7499998,0 v 1.5 h 2 v 2 h 1.5 v -3.25 c 0,-0.138718 -0.111282,-0.25 -0.25,-0.25 z m -5.9999998,6 v 3.25 c 0,0.138717 0.111282,0.25 0.25,0.25 h 3.25 v -1.5 h -2 v -2 z m 7.9999998,0 v 2 h -2 v 1.5 h 3.25 c 0.138717,0 0.25,-0.111282 0.25,-0.25 v -3.25 z"/></g></svg>