<svg xmlns="http://www.w3.org/2000/svg" xmlns:svg="http://www.w3.org/2000/svg" id="svg18" width="24" height="24" version="1.1"><metadata id="metadata22"/><defs id="defs8"><radialGradient id="rG" cx="11" cy="19" r="8" gradientTransform="matrix(0.65836146,0,0,0.84226359,-1.550424,0.45714238)" gradientUnits="userSpaceOnUse"><stop id="stop5107" offset="0"/><stop id="stop5109" offset="1" stop-opacity="0"/></radialGradient><linearGradient id="lG" x1="17" x2="35" y1="10" y2="40" gradientTransform="matrix(0.22983191,0,0,0.30488038,0.08852099,3.5697176)" gradientUnits="userSpaceOnUse"><stop id="stop5115" offset="0" stop-color="#fff"/><stop id="stop5117" offset="1" stop-color="#fff" stop-opacity="0"/></linearGradient><linearGradient id="lG-5" x1="17" x2="35" y1="10" y2="40" gradientTransform="matrix(-0.25411032,0,0,0.33448586,24.538359,2.8384442)" gradientUnits="userSpaceOnUse"><stop id="stop5115-2" offset="0" stop-color="#fff"/><stop id="stop5117-7" offset="1" stop-color="#fff" stop-opacity="0"/></linearGradient><radialGradient id="rG-6" cx="11" cy="19" r="8" gradientTransform="matrix(-0.65830684,0,0,0.83569586,25.564789,0.58329263)" gradientUnits="userSpaceOnUse"><stop id="stop5107-6" offset="0"/><stop id="stop5109-4" offset="1" stop-opacity="0"/></radialGradient></defs><path id="path10" d="m 10.958453,16.46016 a 5.2668967,1.6845293 0 1 1 -10.53379292,0 5.2668967,1.6845293 0 1 1 10.53379292,0 z" style="opacity:.2;fill:url(#rG);stroke-width:.74465704"/><path id="path12" d="m 5.4018734,5.6861946 5.0035536,5.7905744 -5.0035536,5.790563 v -2.80755 H 1.4517044 V 8.4937411 h 3.950169 z" style="fill:#3465a4;stroke:#204a87;stroke-width:.87645501;stroke-miterlimit:4;stroke-dasharray:none"/><path id="path14" d="M 2.1289191,9.0003844 V 11.539487 H 9.9407085 L 5.749014,6.8738931 v 2.1264913" style="opacity:.4;fill:#729fcf;stroke-width:.27493659"/><path id="path16" d="M 5.6936189,7.1520631 9.468485,11.511863 5.6936189,15.871655 V 13.798466 H 2.2619263 V 9.2252508 h 3.4316926 z" style="opacity:.4;fill:none;stroke:url(#lG);stroke-width:.19698191;stroke-miterlimit:4;stroke-dasharray:none"/><path id="path10-3" d="m 13.056957,16.461516 a 5.2664558,1.6713923 0 1 0 10.532911,0 5.2664558,1.6713923 0 1 0 -10.532911,0 z" style="opacity:.2;fill:url(#rG-6);stroke-width:.7417171"/><path id="path12-2" d="m 18.613069,5.7715715 -5.003134,5.7454115 5.003134,5.74541 v -2.785656 h 3.94984 V 8.5572245 h -3.94984 z" style="fill:#c01d1d;fill-opacity:1;stroke:#872020;stroke-width:.87336981;stroke-miterlimit:4;stroke-dasharray:none;stroke-opacity:1"/><path id="path14-2" d="M 21.929936,8.9518432 V 11.471139 H 14.118799 L 18.31014,6.8419342 v 2.109909" style="opacity:.4;fill:#cf7272;fill-opacity:1;stroke-width:.27385119"/><path id="path16-9" d="m 18.341162,6.7686533 -4.173622,4.7831507 4.173622,4.783147 v -2.274503 h 3.794202 V 9.0431571 h -3.794202 z" style="opacity:.4;fill:none;stroke:url(#lG-5);stroke-width:.21694843;stroke-miterlimit:4;stroke-dasharray:none"/><g id="g907" transform="translate(0,-24)"><path id="path857" d="M 11,32 V 28 H 9 l 3.5,-4 3.5,4 h -2 v 4 z" style="fill:red;stroke:none;stroke-width:1px;stroke-linecap:butt;stroke-linejoin:miter;stroke-opacity:1"/><path id="path857-6" d="m 11,40 v 4 H 9 l 3.5,4 3.5,-4 h -2 v -4 z" style="fill:red;stroke:none;stroke-width:1px;stroke-linecap:butt;stroke-linejoin:miter;stroke-opacity:1"/><path id="path857-0" d="m 16,34 h 4 v -2 l 4,3.5 -4,3.5 v -2 h -4 z" style="fill:red;stroke:none;stroke-width:1px;stroke-linecap:butt;stroke-linejoin:miter;stroke-opacity:1"/><path id="path857-6-7" d="M 8,34 H 4 V 32 L 0,35.5 4,39 v -2 h 4 z" style="fill:red;stroke:none;stroke-width:1px;stroke-linecap:butt;stroke-linejoin:miter;stroke-opacity:1"/></g></svg>