<svg xmlns="http://www.w3.org/2000/svg" xmlns:svg="http://www.w3.org/2000/svg" xmlns:xlink="http://www.w3.org/1999/xlink" id="svg11300" width="24" height="24" version="1.0"><defs id="defs3"><linearGradient id="linearGradient1913"><stop style="stop-color:#73d216;stop-opacity:1" id="stop1915" offset="0"/><stop style="stop-color:#8ae234;stop-opacity:1" id="stop1917" offset="1"/></linearGradient><linearGradient id="linearGradient5891"><stop style="stop-color:#fff;stop-opacity:1" id="stop5893" offset="0"/><stop style="stop-color:#fff;stop-opacity:0" id="stop5895" offset="1"/></linearGradient><linearGradient id="linearGradient5132"><stop style="stop-color:white;stop-opacity:1" id="stop5134" offset="0"/><stop style="stop-color:white;stop-opacity:0" id="stop5136" offset="1"/></linearGradient><linearGradient id="linearGradient8662"><stop style="stop-color:#000;stop-opacity:1" id="stop8664" offset="0"/><stop style="stop-color:#000;stop-opacity:0" id="stop8666" offset="1"/></linearGradient><radialGradient id="radialGradient8668" cx="24.837" cy="36.421" r="15.645" fx="24.837" fy="36.421" gradientTransform="matrix(0.739835,0,0,0.22819489,-6.7758518,-52.801069)" gradientUnits="userSpaceOnUse" xlink:href="#linearGradient8662"/><linearGradient id="linearGradient5138" x1="21.552" x2="18.072" y1="29.205" y2="55.692" gradientTransform="matrix(0.5,0,0,0.48737522,-1.2684021e-4,24.607614)" gradientUnits="userSpaceOnUse" xlink:href="#linearGradient5132"/><linearGradient id="linearGradient5897" x1="15.457" x2="25.561" y1="8.734" y2="13.526" gradientTransform="matrix(-0.71531755,0,0,0.69702289,25.322849,25.755268)" gradientUnits="userSpaceOnUse" xlink:href="#linearGradient5891"/><linearGradient id="linearGradient1919" x1="13.188" x2="17.938" y1="35.938" y2="38.875" gradientTransform="matrix(0.5,0,0,0.48737522,-1.2684021e-4,24.607614)" gradientUnits="userSpaceOnUse" xlink:href="#linearGradient1913"/></defs><metadata id="metadata4"/><g id="layer1" transform="translate(0,-24)"><ellipse id="path8660" cx="11.6" cy="-44.49" rx="11.575" ry="3.57" transform="scale(1,-1)" style="color:#000;display:inline;overflow:visible;visibility:visible;opacity:.12999998;fill:url(#radialGradient8668);fill-opacity:1;fill-rule:evenodd;stroke:none;stroke-width:1.13613141;stroke-linecap:butt;stroke-linejoin:miter;stroke-miterlimit:10;stroke-dasharray:none;stroke-dashoffset:0;stroke-opacity:1;marker:none;marker-start:none;marker-mid:none;marker-end:none"/><path style="color:#000;display:block;overflow:visible;visibility:visible;opacity:1;fill:url(#linearGradient1919);fill-opacity:1;fill-rule:nonzero;stroke:#4e9a06;stroke-width:.99999881;stroke-linecap:butt;stroke-linejoin:miter;stroke-miterlimit:4;stroke-dasharray:none;stroke-dashoffset:0;stroke-opacity:1;marker:none;marker-start:none;marker-mid:none;marker-end:none" id="path1432" d="M 8.7122832,45.025436 C 0.14174516,40.419163 4.9676752,30.655524 13.211058,30.73221 v -3.931408 l 8.038815,6.851608 -8.038815,7.185554 c 0,0 0,-4.254314 0,-4.254314 -5.1173078,-0.202341 -7.3708358,3.541765 -2.886163,6.513013 1.283547,0.850395 0.394389,3.007445 -1.6126118,1.928773 z"/><path style="color:#000;display:block;overflow:visible;visibility:visible;opacity:.61797755;fill:none;fill-opacity:1;fill-rule:nonzero;stroke:url(#linearGradient5138);stroke-width:.99999893;stroke-linecap:butt;stroke-linejoin:miter;stroke-miterlimit:4;stroke-dashoffset:0;stroke-opacity:1;marker:none;marker-start:none;marker-mid:none;marker-end:none" id="path4247" d="m 13.718623,27.866936 v 2.863329 c -0.0042,0.267449 -0.225623,0.483265 -0.5,0.487375 -3.9149198,-0.03642 -6.9911878,2.281611 -8.0781248,5.086979 -1.086937,2.805368 -0.28888,6.087908 3.828125,8.300609 0.425089,0.228466 0.732912,0.251354 0.9375,0.213227 0.2045878,-0.03813 0.3338028,-0.144782 0.4218748,-0.289379 0.176143,-0.289194 0.15009,-0.734664 -0.28125,-1.020442 -1.1786218,-0.780877 -1.9544658,-1.633202 -2.3437498,-2.513028 -0.389284,-0.879827 -0.369912,-1.789806 0.01563,-2.55872 0.771075,-1.537828 2.8270148,-2.451802 5.5156248,-2.345493 0.268258,0.01208 0.480503,0.225639 0.484375,0.487375 0,0 0,1.917383 0,3.137478 l 6.78125,-6.061729 z"/><path style="opacity:.45;fill:url(#linearGradient5897);fill-opacity:1;fill-rule:evenodd;stroke:none;stroke-width:1px;stroke-linecap:butt;stroke-linejoin:miter;stroke-opacity:1" id="path4920" d="M 20.829986,33.675394 C 11.554937,32.149905 6.3824562,34.723007 4.4324152,38.761512 4.3555352,32.599689 10.914118,30.807604 13.47734,30.996381 l -0.0078,-3.658475 z"/><g id="g907"><path id="path857" d="M 11,32 V 28 H 9 l 3.5,-4 3.5,4 h -2 v 4 z" style="fill:red;stroke:none;stroke-width:1px;stroke-linecap:butt;stroke-linejoin:miter;stroke-opacity:1"/><path id="path857-6" d="m 11,40 v 4 H 9 l 3.5,4 3.5,-4 h -2 v -4 z" style="fill:red;stroke:none;stroke-width:1px;stroke-linecap:butt;stroke-linejoin:miter;stroke-opacity:1"/><path id="path857-0" d="m 16,34 h 4 v -2 l 4,3.5 -4,3.5 v -2 h -4 z" style="fill:red;stroke:none;stroke-width:1px;stroke-linecap:butt;stroke-linejoin:miter;stroke-opacity:1"/><path id="path857-6-7" d="M 8,34 H 4 V 32 L 0,35.5 4,39 v -2 h 4 z" style="fill:red;stroke:none;stroke-width:1px;stroke-linecap:butt;stroke-linejoin:miter;stroke-opacity:1"/></g></g></svg>