<svg xmlns="http://www.w3.org/2000/svg" xmlns:svg="http://www.w3.org/2000/svg" xmlns:xlink="http://www.w3.org/1999/xlink" id="svg11300" width="24" height="24" version="1.0"><defs id="defs3"><linearGradient id="linearGradient2790"><stop id="stop2792" offset="0" style="stop-color:#edd400;stop-opacity:1"/><stop id="stop2794" offset="1" style="stop-color:#fce94f;stop-opacity:1"/></linearGradient><linearGradient id="linearGradient5891"><stop style="stop-color:#fff;stop-opacity:1" id="stop5893" offset="0"/><stop style="stop-color:#fff;stop-opacity:0" id="stop5895" offset="1"/></linearGradient><linearGradient id="linearGradient5132"><stop style="stop-color:white;stop-opacity:1" id="stop5134" offset="0"/><stop style="stop-color:white;stop-opacity:0" id="stop5136" offset="1"/></linearGradient><linearGradient id="linearGradient8662"><stop style="stop-color:#000;stop-opacity:1" id="stop8664" offset="0"/><stop style="stop-color:#000;stop-opacity:0" id="stop8666" offset="1"/></linearGradient><radialGradient id="radialGradient2782" cx="24.837" cy="36.421" r="15.645" fx="24.837" fy="36.421" gradientTransform="matrix(1,0,0,0.536723,0,16.87306)" gradientUnits="userSpaceOnUse" xlink:href="#linearGradient8662"/><linearGradient id="linearGradient2784" x1="25.446" x2="25.446" y1="20.688" y2="16.375" gradientUnits="userSpaceOnUse" xlink:href="#linearGradient2790"/><linearGradient id="linearGradient2786" x1="21.677" x2="18.072" y1="29.705" y2="55.692" gradientUnits="userSpaceOnUse" xlink:href="#linearGradient5132"/><linearGradient id="linearGradient2788" x1="15.457" x2="25.561" y1="8.734" y2="13.526" gradientTransform="matrix(-1.430635,0,0,1.430157,50.64595,2.354766)" gradientUnits="userSpaceOnUse" xlink:href="#linearGradient5891"/></defs><metadata id="metadata4"/><g id="layer1" transform="translate(0,-24)"><g id="g2776" transform="matrix(-0.5,0,0,0.48737522,22.980174,24.607614)" style="stroke-width:2.025738"><ellipse style="color:#000;display:inline;overflow:visible;visibility:visible;opacity:.12999998;fill:url(#radialGradient2782);fill-opacity:1;fill-rule:evenodd;stroke:none;stroke-width:2.025738;stroke-linecap:butt;stroke-linejoin:miter;stroke-miterlimit:10;stroke-dasharray:none;stroke-dashoffset:0;stroke-opacity:1;marker:none;marker-start:none;marker-mid:none;marker-end:none" id="path8660" cx="24.837" cy="36.421" rx="15.645" ry="8.397" transform="matrix(1.47967,0,0,-0.872353,-13.55145,72.5668)"/><path id="path1432" d="M 17.424821,41.893434 C 0.283744,32.442251 9.935604,12.409146 26.422371,12.56649 V 4.4999994 L 42.5,18.558177 26.422371,33.301549 c 0,0 0,-8.729032 0,-8.729032 -10.234617,-0.415164 -14.741673,7.26702 -5.772326,13.363448 2.567094,1.744847 0.788778,6.170696 -3.225224,3.957469 z" style="color:#000;display:block;overflow:visible;visibility:visible;opacity:1;fill:url(#linearGradient2784);fill-opacity:1;fill-rule:nonzero;stroke:#c4a000;stroke-width:2.02573562;stroke-linecap:butt;stroke-linejoin:miter;stroke-miterlimit:4;stroke-dasharray:none;stroke-dashoffset:0;stroke-opacity:1;marker:none;marker-start:none;marker-mid:none;marker-end:none"/><path id="path4247" d="m 27.4375,6.6875 v 5.875 c -0.0084,0.548754 -0.451246,0.991567 -1,1 C 18.60766,13.487775 12.455124,18.243926 10.28125,24 8.1073762,29.756074 9.7034903,36.491213 17.9375,41.03125 c 0.850178,0.468768 1.465824,0.515729 1.875,0.4375 0.409176,-0.07823 0.667607,-0.297065 0.84375,-0.59375 0.352286,-0.593371 0.30018,-1.507389 -0.5625,-2.09375 -2.357244,-1.602209 -3.908933,-3.351016 -4.6875,-5.15625 -0.778567,-1.805234 -0.739824,-3.672336 0.03125,-5.25 1.542149,-3.155327 5.65403,-5.030625 11.03125,-4.8125 0.536516,0.02478 0.961006,0.462968 0.96875,1 0,0 0,3.934101 0,6.4375 L 41,18.5625 Z" style="color:#000;display:block;overflow:visible;visibility:visible;opacity:.61797755;fill:none;fill-opacity:1;fill-rule:nonzero;stroke:url(#linearGradient2786);stroke-width:2.02573586;stroke-linecap:butt;stroke-linejoin:miter;stroke-miterlimit:4;stroke-dashoffset:0;stroke-opacity:1;marker:none;marker-start:none;marker-mid:none;marker-end:none"/><path id="path4920" d="M 41.660227,18.605336 C 23.110128,15.475328 12.765166,20.754837 8.865084,29.04107 8.711319,16.398198 21.828491,12.721185 26.954933,13.108518 l -0.01563,-7.5064859 z" style="opacity:.45;fill:url(#linearGradient2788);fill-opacity:1;fill-rule:evenodd;stroke:none;stroke-width:2.025738px;stroke-linecap:butt;stroke-linejoin:miter;stroke-opacity:1"/></g><g id="g907"><path id="path857" d="M 11,32 V 28 H 9 l 3.5,-4 3.5,4 h -2 v 4 z" style="fill:red;stroke:none;stroke-width:1px;stroke-linecap:butt;stroke-linejoin:miter;stroke-opacity:1"/><path id="path857-6" d="m 11,40 v 4 H 9 l 3.5,4 3.5,-4 h -2 v -4 z" style="fill:red;stroke:none;stroke-width:1px;stroke-linecap:butt;stroke-linejoin:miter;stroke-opacity:1"/><path id="path857-0" d="m 16,34 h 4 v -2 l 4,3.5 -4,3.5 v -2 h -4 z" style="fill:red;stroke:none;stroke-width:1px;stroke-linecap:butt;stroke-linejoin:miter;stroke-opacity:1"/><path id="path857-6-7" d="M 8,34 H 4 V 32 L 0,35.5 4,39 v -2 h 4 z" style="fill:red;stroke:none;stroke-width:1px;stroke-linecap:butt;stroke-linejoin:miter;stroke-opacity:1"/></g></g></svg>