<svg xmlns="http://www.w3.org/2000/svg" xmlns:svg="http://www.w3.org/2000/svg" id="svg2390" width="24" height="24" version="1.0" viewBox="0 0 24 24"><g id="layer1" transform="translate(-21.913,-72.984)"><g id="g2387" transform="matrix(0.08190221,0,0,0.08190221,27.998185,78.461656)" style="fill:#ffb93f;fill-opacity:1"><path id="path2389" d="m 12.473,121.08 c -0.914,1.76 -1.991,3.41 -1.991,5.34 l 0.009,0.81 c 0,4.17 3.266,6.69 7.02,6.69 h 121.32 c 3.76,0 6.99,-3.12 6.99,-7.29 l -0.04,-0.81 c 0,-1.94 -0.95,-3.62 -1.99,-5.35 L 83.707,12.69 C 81.052,9.7442 76.748,9.7442 74.093,12.694 l -61.619,108.39 z" style="fill:#ffb93f;fill-opacity:1;stroke:#000;stroke-width:6.83139992"/></g><circle id="path2393" cx="34.422" cy="87.592" r=".709" style="fill:#000;stroke-width:.08817398"/><path id="path2395" d="m 34.441006,82.129517 c 0.292973,0 0.747568,0.208134 0.747568,0.466586 l -0.218746,2.685922 c 0,0.258452 -0.235849,0.466587 -0.528822,0.466587 -0.292972,0 -0.528649,-0.208135 -0.528649,-0.466587 L 33.65701,82.596103 c 0,-0.258452 0.491024,-0.466586 0.783996,-0.466586 z" style="fill:#000;stroke-width:.1614878"/><g id="g907" transform="translate(21.913,48.984)"><path id="path857" d="M 11,32 V 28 H 9 l 3.5,-4 3.5,4 h -2 v 4 z" style="fill:red;stroke:none;stroke-width:1px;stroke-linecap:butt;stroke-linejoin:miter;stroke-opacity:1"/><path id="path857-6" d="m 11,40 v 4 H 9 l 3.5,4 3.5,-4 h -2 v -4 z" style="fill:red;stroke:none;stroke-width:1px;stroke-linecap:butt;stroke-linejoin:miter;stroke-opacity:1"/><path id="path857-0" d="m 16,34 h 4 v -2 l 4,3.5 -4,3.5 v -2 h -4 z" style="fill:red;stroke:none;stroke-width:1px;stroke-linecap:butt;stroke-linejoin:miter;stroke-opacity:1"/><path id="path857-6-7" d="M 8,34 H 4 V 32 L 0,35.5 4,39 v -2 h 4 z" style="fill:red;stroke:none;stroke-width:1px;stroke-linecap:butt;stroke-linejoin:miter;stroke-opacity:1"/></g></g><metadata id="metadata8"/></svg>