<svg xmlns="http://www.w3.org/2000/svg" xmlns:svg="http://www.w3.org/2000/svg" id="svg2" width="16" height="16" version="1.1" viewBox="0 0 16 16"><metadata id="metadata7"/><g id="layer1" transform="translate(0,-1037.3622)"><path id="path848" d="M 3,1049.3622 H 0 v 3 h 8 c -1.66665,-0.5236 -3.3332798,-0.4657 -5,-3 z" style="fill:#006885;fill-opacity:1;stroke:none;stroke-width:1px;stroke-linecap:butt;stroke-linejoin:miter;stroke-opacity:1"/><path style="fill:#006885;fill-opacity:1;stroke:none;stroke-width:1px;stroke-linecap:butt;stroke-linejoin:miter;stroke-opacity:1" id="path848-4" d="m 13,1041.3622 h 3 v -3 H 8 c 1.66665,0.5236 3.33328,0.4657 5,3 z"/><circle id="path831" cx="8" cy="1045.362" r="6.571" style="fill:#c1cfd7;stroke:#006885;stroke-width:.857142;stroke-linecap:round;stroke-linejoin:round;stroke-miterlimit:4;stroke-dasharray:none;stroke-opacity:1;fill-opacity:1"/><circle style="fill:none;stroke:#006885;stroke-width:.857141;stroke-linecap:round;stroke-linejoin:round;stroke-miterlimit:4;stroke-dasharray:none;stroke-opacity:1" id="path831-3" cx="8" cy="1045.362" r="1.571"/><path id="path874" d="m 8.8674175,1048.3843 c -0.3784809,0.8095 -0.9035585,1.3955 -1.3977476,1.9006" style="fill:none;stroke:#006885;stroke-width:1px;stroke-linecap:round;stroke-linejoin:miter;stroke-opacity:1"/><path style="fill:none;stroke:#006885;stroke-width:1px;stroke-linecap:round;stroke-linejoin:miter;stroke-opacity:1" id="path874-3" d="m 7.4770221,1042.3784 c 0.3785,-0.8095 0.9036,-1.3955 1.3978,-1.9006"/><path style="fill:none;stroke:#006885;stroke-width:1px;stroke-linecap:round;stroke-linejoin:miter;stroke-opacity:1" id="path874-7" d="m 5.9610293,1047.7379 c -0.8834931,0.1341 -1.6623311,0.022 -2.3567217,-0.1088"/><path id="path874-3-2" d="m 10.228755,1042.9585 c 0.883503,-0.1341 1.662354,-0.022 2.35675,0.1088" style="fill:none;stroke:#006885;stroke-width:1px;stroke-linecap:round;stroke-linejoin:miter;stroke-opacity:1"/><path style="fill:none;stroke:#006885;stroke-width:1px;stroke-linecap:round;stroke-linejoin:miter;stroke-opacity:1" id="path874-37" d="m 5.0060584,1044.4704 c -0.531066,-0.7187 -0.7957745,-1.4597 -1.0041018,-2.1349"/><path id="path874-3-23" d="m 10.940711,1046.1155 c 0.531057,0.7187 0.795755,1.4597 1.004077,2.1349" style="fill:none;stroke:#006885;stroke-width:1px;stroke-linecap:round;stroke-linejoin:miter;stroke-opacity:1"/><path style="fill:#c1cfd7;fill-opacity:1;stroke:none;stroke-width:1px;stroke-linecap:butt;stroke-linejoin:miter;stroke-opacity:1" id="path841" d="m 16,1039.3622 h -4.394531 c 0.666248,0.4135 0.809516,0.5721 1.296875,1 H 16 Z"/><path id="path841-7" d="m 0,1051.3622 h 4.3946 c -0.6663,-0.4135 -0.8096,-0.5721 -1.2969,-1 H 0 Z" style="fill:#c1cfd7;fill-opacity:1;stroke:none;stroke-width:1px;stroke-linecap:butt;stroke-linejoin:miter;stroke-opacity:1"/></g></svg>