<svg xmlns="http://www.w3.org/2000/svg" xmlns:svg="http://www.w3.org/2000/svg" id="svg2" width="1000" height="1000" version="1.1"><path id="path3172" d="M 563.20227,25.983147 A 14.747191,25.983147 0 0 1 577.94946,0 14.747191,25.983147 0 0 1 592.69665,25.983147" transform="matrix(2.1904762,0,0,1.7567568,-413.45641,54.77528)" style="fill:#00f;fill-opacity:1;stroke:none;stroke-width:20;stroke-miterlimit:4;stroke-dasharray:none;stroke-opacity:1"/><circle id="circle10" cx="748" cy="412" r="77" transform="matrix(-1,0,0,1,1000.5636,0)" style="fill:#333;stroke:none"/><metadata id="metadata15"/><path id="path4" d="m 704.78238,86.8125 179.71875,12.40625 c 30.47969,2.30812 21.17696,-5.964782 54.875,83.46875 32.75021,83.89734 27.22785,54.69534 26.875,98.9375 v 99 c -0.27094,25.8873 -4.14714,32.25908 -32.25,32.46875 -4.06576,-130.67211 -191.17929,-131.13315 -194.90625,0.75 l -389.0625,0.25 c 0.18769,-33.99395 -14.18774,-59.89665 -37.1875,-78.6875 l 391.9375,-0.3125 v -101.9375 h 41.5625 V 127.8125 h -41.5625 z m 76.28125,40.90625 1.5625,105.46875 132.625,15.53125 c 23.51693,3.05984 24.87949,-3.12824 16.28125,-24.0625 l -25.59375,-68.25 c -6.42718,-21.15547 -6.57284,-21.24684 -24.8125,-22.46875 z M 192.12613,335.5625 c -23.83155,19.10818 -37.29341,46.28246 -37.0625,78.625 l -56.718748,0.0625 -64.59375,-22.875 0.1875,-55.78125 z" style="fill:#d40000;fill-rule:evenodd;stroke:none"/><path id="rect6" d="M 705.46988,86.59375 V 127.8125 H 590.43863 V 233.15625 H 705.46988 V 337.75 H 34.813632 V 86.59375 H 546.90738 v 228 h 18.25 v -228 z" style="fill:#d40000;stroke:none"/><circle id="circle8" cx="164" cy="412" r="77" transform="matrix(-1,0,0,1,1000.5636,0)" style="fill:#333;stroke:none"/><rect id="rect3160" width="223.315" height="203.652" x="58.989" y="112.36" style="fill:#333;fill-opacity:1;stroke:none;stroke-width:20;stroke-miterlimit:4;stroke-dasharray:none;stroke-opacity:1"/><rect style="fill:gray;fill-opacity:1;stroke:none;stroke-width:20;stroke-miterlimit:4;stroke-dasharray:none;stroke-opacity:1" id="rect3162" width="223.315" height="203.652" x="58.989" y="112.36"/><rect id="rect3166" width="223.315" height="203.652" x="296.348" y="110.955" style="fill:gray;fill-opacity:1;stroke:none;stroke-width:20;stroke-miterlimit:4;stroke-dasharray:none;stroke-opacity:1"/><path id="path3174" d="M 853.93264,48.318081 V 7.7252111" style="fill:none;fill-opacity:1;fill-rule:evenodd;stroke:#00f;stroke-width:10.7645;stroke-linecap:butt;stroke-linejoin:miter;stroke-miterlimit:4;stroke-dasharray:none;stroke-opacity:1"/><path style="fill:none;fill-opacity:1;fill-rule:evenodd;stroke:#00f;stroke-width:10.7645;stroke-linecap:butt;stroke-linejoin:miter;stroke-miterlimit:4;stroke-dasharray:none;stroke-opacity:1" id="path5118" d="M 871.91661,52.531564 894.93735,19.097648"/><path id="path5120" d="M 835.94859,51.12707 812.92785,17.693154" style="fill:none;fill-opacity:1;fill-rule:evenodd;stroke:#00f;stroke-width:10.7645;stroke-linecap:butt;stroke-linejoin:miter;stroke-miterlimit:4;stroke-dasharray:none;stroke-opacity:1"/><path id="path842" d="M 960,740 C 960,670 840,540 620,540 450,530 314.84051,563.74509 240,640 c -50,70 -81.91752,183.4708 -60,220 30,50 231.24257,188.7978 620,60 98.77591,-44.86061 161.61857,-101.69254 160,-180 z" style="fill:#2090cf;fill-opacity:1;stroke:none;stroke-width:1px;stroke-linecap:butt;stroke-linejoin:miter;stroke-opacity:1"/><path id="path846" d="M 300,780 C 260,780 80,800 80,700 79.11735,620.84571 140,640 160,580 180,500 80,500 100,380" style="fill:none;stroke:#f60;stroke-width:70;stroke-linecap:round;stroke-linejoin:miter;stroke-miterlimit:4;stroke-dasharray:none;stroke-opacity:1"/></svg>