<svg xmlns="http://www.w3.org/2000/svg" xmlns:svg="http://www.w3.org/2000/svg" id="svg4138" width="14" height="14" version="1.1" viewBox="0 0 14 14"><metadata id="metadata4146"/><rect style="fill:none;stroke:none;visibility:hidden" id="canvas" width="14" height="14" x="0" y="0"/><path id="tower-freestanding-communication" d="M 4,0.40625 C 2.23276,1.1855669 0.96875,2.9521023 0.96875,5 0.96875,7.047898 2.23276,8.814433 4,9.59375 V 8.4375 C 2.80447,7.746709 2,6.4881502 2,5 2,3.5118498 2.80447,2.2532914 4,1.5625 Z m 6,0 V 1.5625 C 11.19553,2.2532914 12,3.5118498 12,5 12,6.4881502 11.19553,7.746709 10,8.4375 V 9.59375 C 11.76724,8.814433 13.03125,7.047898 13.03125,5 13.03125,2.9521023 11.76724,1.1855669 10,0.40625 Z M 5,2.1875 C 3.842954,2.6043642 3,3.7033306 3,5 3,6.2966694 3.842954,7.395636 5,7.8125 V 6.71875 C 4.403081,6.3740292 4,5.7435697 4,5 4,4.2564303 4.403081,3.6259708 5,3.28125 Z m 4,0 V 3.28125 C 9.596919,3.6259708 10,4.2564303 10,5 10,5.7435697 9.596919,6.3740292 9,6.71875 V 7.8125 C 10.157046,7.395636 11,6.2966694 11,5 11,3.7033306 10.157046,2.6043642 9,2.1875 Z M 7,4 C 6.4022075,4 6,4.469217 6,5 v 9 H 8 V 5 C 8,4.503906 7.597793,4 7,4 Z" style="fill:#666;fill-opacity:1;stroke:none"/></svg>