<svg xmlns="http://www.w3.org/2000/svg" xmlns:svg="http://www.w3.org/2000/svg" xmlns:xlink="http://www.w3.org/1999/xlink" id="svg2" width="24" height="24" version="1.0"><defs id="defs4"><linearGradient id="linearGradient4131"><stop id="stop4133" offset="0" stop-color="#fff"/><stop id="stop4135" offset="1" stop-color="#fff" stop-opacity="0"/></linearGradient><linearGradient id="linearGradient4478"><stop id="stop4480" offset="0"/><stop id="stop4482" offset="1" stop-opacity="0"/></linearGradient><linearGradient id="linearGradient3147"><stop id="stop3149" offset="0"/><stop id="stop3151" offset="1" stop-color="#fff"/></linearGradient><linearGradient id="linearGradient3218" x1="36.649" x2="-4.368" y1="18.572" y2="16.28" gradientTransform="scale(0.5)" gradientUnits="userSpaceOnUse"><stop id="stop3214" offset="0" stop-color="#555753"/><stop id="stop3233" offset=".99" stop-color="#d5d9d2"/><stop id="stop3216" offset="1" stop-color="#888a85"/></linearGradient><linearGradient id="linearGradient3323" x1="20.54" x2="7.596" y1="15.398" y2="12.481" gradientTransform="scale(0.5)" gradientUnits="userSpaceOnUse"><stop id="stop3327" offset="0" stop-color="#6d6f6a"/><stop id="stop3329" offset=".801" stop-color="#e7e8e5"/><stop id="stop3331" offset="1" stop-color="#999b96"/></linearGradient><radialGradient id="radialGradient3341" cx="18.034" cy="27.858" r="15.447" fx="18.034" fy="27.858" gradientTransform="matrix(0.53824235,-0.11198048,0.02809328,0.1350343,-0.6540293,6.931801)" gradientUnits="userSpaceOnUse" xlink:href="#linearGradient4131"/><linearGradient id="linearGradient3359" x1="20.147" x2="15.96" y1="17.062" y2="20.609" gradientTransform="matrix(0.48387,0,0,0.416665,0.387095,0.79165)" gradientUnits="userSpaceOnUse"><stop id="stop3355" offset="0" stop-color="#babdb6"/><stop id="stop3357" offset="1" stop-color="#fff"/></linearGradient><radialGradient id="radialGradient3454" cx="23.969" cy="12.219" r="14.969" gradientTransform="matrix(0.64232595,0,0,0.2238811,-3.3952552,17.35939)" gradientUnits="userSpaceOnUse"><stop id="stop3450" offset="0"/><stop id="stop3452" offset="1" stop-opacity="0"/></radialGradient><linearGradient id="linearGradient3505" x1="6.25" x2="6.25" y1="9.037" y2="10.94" gradientTransform="matrix(0.5,0,0,0.5,9,0)" gradientUnits="userSpaceOnUse"><stop id="stop3501" offset="0" stop-opacity=".323"/><stop id="stop3503" offset="1" stop-opacity="0"/></linearGradient><radialGradient id="radialGradient3517" cx="24" cy="12.5" r="15.5" gradientTransform="matrix(0.27003,0,0,0.09001043,5.5195,4.124894)" gradientUnits="userSpaceOnUse"><stop id="stop3513" offset="0"/><stop id="stop3515" offset="1" stop-opacity="0"/></radialGradient><linearGradient id="linearGradient3524" x1="29" x2="19" y1="7.75" y2="7.75" gradientUnits="userSpaceOnUse"><stop id="stop3489" offset="0" stop-color="#95998e"/><stop id="stop3526" offset=".595" stop-color="#fff"/><stop id="stop3491" offset="1" stop-color="#dfdfdb"/></linearGradient><linearGradient id="linearGradient3554" x1="26.464" x2="26.127" y1="9.528" y2="10.809" gradientTransform="scale(0.5,0.49999847)" gradientUnits="userSpaceOnUse"><stop id="stop3550" offset="0" stop-color="#888a85"/><stop id="stop3552" offset="1" stop-color="#d3d7cf"/></linearGradient><linearGradient id="linearGradient3563" x1="21.084" x2="21.674" y1="-8.572" y2="-10.483" gradientTransform="matrix(0.5,0,0.154375,-0.47557,0,0)" gradientUnits="userSpaceOnUse"><stop id="stop3559" offset="0" stop-color="#d3d7cf"/><stop id="stop3561" offset="1" stop-color="#eeeeec"/></linearGradient><radialGradient id="radialGradient4484" cx="18.75" cy="10.75" r="2.75" gradientTransform="matrix(0.454545,0,0,0.27272481,0.72725,2.318173)" gradientUnits="userSpaceOnUse" xlink:href="#linearGradient4478"/><radialGradient id="radialGradient4488" cx="18.75" cy="10.75" r="2.75" gradientTransform="matrix(0.454545,0,0,0.27272481,6.2275,2.318173)" gradientUnits="userSpaceOnUse" xlink:href="#linearGradient4478"/><radialGradient id="radialGradient2277" cx="24" cy="18.468" r="14" gradientTransform="matrix(0.5,0,0,0.151815,0,7.071)" gradientUnits="userSpaceOnUse"><stop id="stop2273" offset="0"/><stop id="stop2275" offset="1" stop-opacity="0"/></radialGradient><radialGradient id="radialGradient2275" cx="12.143" cy="17.987" r="15.447" gradientTransform="matrix(0.44967406,-0.01137542,0.00192965,0.0762822,3.2486293,5.797803)" gradientUnits="userSpaceOnUse" xlink:href="#linearGradient4131"/><linearGradient id="linearGradient3221" x1="11.871" x2="39.457" y1="38.688" y2="39.438" gradientTransform="scale(0.5)" gradientUnits="userSpaceOnUse" xlink:href="#linearGradient4095"><stop id="stop3215" offset="0" stop-color="#fff"/><stop id="stop3217" offset="1" stop-color="#fff" stop-opacity="0"/></linearGradient><linearGradient id="linearGradient3229" x1="18.247" x2="39.522" y1="16.375" y2="15.447" gradientTransform="scale(0.5)" gradientUnits="userSpaceOnUse"><stop id="stop3225" offset="0" stop-color="#fff"/><stop id="stop3227" offset="1" stop-color="#fff" stop-opacity="0"/></linearGradient><linearGradient id="linearGradient2297" x1="12.02" x2="20.114" y1="25.62" y2="25.562" gradientTransform="matrix(0.57145,0,0,0.5,-1.5,0.5)" gradientUnits="userSpaceOnUse" xlink:href="#linearGradient3147"/><linearGradient id="linearGradient2300" x1="6.874" x2="15.672" y1="24.827" y2="25" gradientTransform="matrix(0.416665,0,0,0.5,1.125,0.5)" gradientUnits="userSpaceOnUse" xlink:href="#linearGradient3147"/><linearGradient id="linearGradient2305" x1="33.274" x2="37.535" y1="24.788" y2="24.5" gradientTransform="matrix(0.625,0,0,0.5,-4.4375,0.5)" gradientUnits="userSpaceOnUse" xlink:href="#linearGradient3147"/><linearGradient id="linearGradient2308" x1="28.444" x2="31.362" y1="25.188" y2="25.276" gradientTransform="matrix(0.57145,0,0,0.5,-1.92855,0.5)" gradientUnits="userSpaceOnUse" xlink:href="#linearGradient3147"/><linearGradient id="linearGradient2311" x1="21.096" x2="25.977" y1="26.125" y2="26.125" gradientTransform="matrix(0.416665,0,0,0.5,1.83335,0.5)" gradientUnits="userSpaceOnUse" xlink:href="#linearGradient3147"/><linearGradient id="linearGradient4087" x1="20.002" x2="16.62" y1="39.688" y2="38.461" gradientTransform="matrix(0.5,0,0,0.5,0.5026,-3e-6)" gradientUnits="userSpaceOnUse" xlink:href="#linearGradient4131"/><linearGradient id="linearGradient4095" x1="27.006" x2="21.97" y1="41" y2="39.023" gradientTransform="matrix(0.61028,0,0,1,9.3454,0)" gradientUnits="userSpaceOnUse"><stop id="stop4091" offset="0" stop-color="#fff"/><stop id="stop4093" offset="1" stop-color="#fff" stop-opacity="0"/></linearGradient><linearGradient id="linearGradient4103" x1="33.399" x2="30" y1="41.207" y2="37.973" gradientTransform="matrix(0.5,0,0,0.5,-0.49852,2.5e-4)" gradientUnits="userSpaceOnUse" xlink:href="#linearGradient4131"/><linearGradient id="linearGradient4137" x1="36.562" x2="36.562" y1="40.76" y2="32.848" gradientTransform="scale(0.5)" gradientUnits="userSpaceOnUse" xlink:href="#linearGradient4131"/><linearGradient id="linearGradient4139" x1="11.5" x2="11.5" y1="38.062" y2="29.922" gradientTransform="scale(0.5)" gradientUnits="userSpaceOnUse" xlink:href="#linearGradient4131"/><linearGradient id="linearGradient1434" x1="21.445" x2="17.216" y1="38.813" y2="38.211" gradientTransform="matrix(0.34648,0,0,0.5,1.03495,-0.488875)" gradientUnits="userSpaceOnUse" xlink:href="#linearGradient4131"/><linearGradient id="linearGradient1438" x1="33.399" x2="30" y1="41.207" y2="37.973" gradientTransform="matrix(0.32321,0,0,0.5,7.0355,-0.49975)" gradientUnits="userSpaceOnUse" xlink:href="#linearGradient4131"/><linearGradient id="linearGradient956" x1="29" x2="19" y1="7.75" y2="7.75" gradientTransform="scale(0.5)" gradientUnits="userSpaceOnUse" xlink:href="#linearGradient3524"/><linearGradient id="linearGradient958" x1="25.685" x2="19" y1="7.706" y2="7.75" gradientTransform="scale(0.5)" gradientUnits="userSpaceOnUse" xlink:href="#linearGradient3524"/><linearGradient id="linearGradient912" x1="27.006" x2="21.97" y1="41" y2="39.023" gradientTransform="matrix(0.30514,0,0,0.5,4.6727,0)" gradientUnits="userSpaceOnUse" xlink:href="#linearGradient4095"/></defs><metadata id="metadata7"/><path style="fill:none;stroke:#000;stroke-width:1px;stroke-linecap:butt;stroke-linejoin:miter;stroke-opacity:1" id="path984" d="M 3,7 12,5 V 5 5"/><path style="fill:none;stroke:#d6d6d6;stroke-width:1px;stroke-linecap:butt;stroke-linejoin:miter;stroke-opacity:1" id="path986" d="M 21,3 12,5"/><rect style="opacity:1;fill:#fff;fill-opacity:1;fill-rule:nonzero;stroke:#df421e;stroke-width:1;stroke-linecap:round;stroke-linejoin:miter;stroke-miterlimit:4;stroke-dasharray:none;stroke-dashoffset:1;stroke-opacity:1;paint-order:normal" id="rect900" width="3" height="3" x="1.5" y="5.5"/><rect style="opacity:1;fill:#fff;fill-opacity:1;fill-rule:nonzero;stroke:#df421e;stroke-width:1;stroke-linecap:round;stroke-linejoin:miter;stroke-miterlimit:4;stroke-dasharray:none;stroke-dashoffset:1;stroke-opacity:1;paint-order:normal" id="rect900-3" width="3" height="3" x="10.5" y="3.5"/><rect style="opacity:1;fill:#f4f4f4;fill-opacity:1;fill-rule:nonzero;stroke:#f6bfb2;stroke-width:1;stroke-linecap:round;stroke-linejoin:miter;stroke-miterlimit:4;stroke-dasharray:none;stroke-dashoffset:1;stroke-opacity:1;paint-order:normal" id="rect900-1" width="3" height="3" x="19.5" y="1.5"/><g id="g955" transform="matrix(0.81428421,0,0,0.81572289,6.717015,4.7035913)" style="stroke-width:1.22698915"><path id="path3445" d="m 22.168386,20.095119 a 10.167694,3.5438562 0 1 1 -20.335386,0 10.167693,3.5438564 0 1 1 20.335386,0 z" style="color:#000;opacity:.8;fill:url(#radialGradient3454);stroke-width:.83835632"/><path id="path3089" d="m 11.25,3.75 c -3.3785,0.117 -6.5,1.1275 -6.5,2.5 v 13.5 c 0,1.383 3.2205,2.5 7.2345,2.5 4.014,0 7.2655,-1.117 7.2655,-2.5 V 6.25 c 0,-1.3828 -3.2515,-2.5 -7.2655,-2.5 -0.1885,0 -0.378,-0.0049 -0.5625,0 -0.059,0.0016 -0.114,-0.002 -0.172,0 z" style="color:#000;fill:url(#linearGradient3218);stroke:#131313;stroke-width:.63140863;stroke-linecap:round;stroke-opacity:1"/><path id="path3226" d="M 11.469,4.25 C 8.1785,4.3292 5.5505,5.222 5.259,6.258 5.251,6.2895 5.25,19.7175 5.25,19.75 c 0,1 3.2055,2 6.7345,2 3.6455,0 6.7655,-1 6.7655,-2 0,-0.023 0.0025,-13.4145 0,-13.4375 C 18.6125,5.171 15.63,4.25 11.9845,4.25 c -0.175,0 -0.344,-0.0041 -0.5155,0 z" style="color:#000;opacity:.70980003;fill:none;stroke:url(#linearGradient3221);stroke-width:.61349458;stroke-linecap:round"/><rect id="rect3235" width="2" height="11" x="11" y="9.5" rx="1" ry="1" style="color:#000;opacity:.3;fill:url(#linearGradient2311);stroke-width:.61349458"/><rect id="rect3237" width="2" height="11" x="13.5" y="9.25" rx="1.143" ry="1" style="color:#000;opacity:.3;fill:url(#linearGradient2308);stroke-width:.61349458"/><rect id="rect3239" width="1.5" height="11" x="16" y="8.75" rx=".75" ry=".75" style="color:#000;opacity:.3;fill:url(#linearGradient2305);stroke-width:.61349458"/><rect id="rect3241" width=".5" height="11" x="18" y="7.75" rx=".25" ry="1" style="color:#000;opacity:.3;stroke-width:.61349458"/><rect id="rect3243" width=".5" height="11" x="5.5" y="8" rx=".25" ry="1" style="color:#000;opacity:.3;fill:#fff;stroke-width:.61349458"/><rect id="rect3245" width="1.5" height="11" x="6.5" y="8.75" rx=".75" ry=".75" style="color:#000;opacity:.5;fill:url(#linearGradient2300);stroke-width:.61349458"/><rect id="rect3247" width="2" height="11" x="8.5" y="9.25" rx="1.143" ry="1" style="color:#000;opacity:.5;fill:url(#linearGradient2297);stroke-width:.61349458"/><rect id="rect2315" width="1.531" height="10.511" x="11.229" y="9.739" rx=".766" ry=".766" style="color:#000;fill:none;stroke:url(#linearGradient912);stroke-width:.61349458;stroke-linecap:round"/><rect id="rect2317" width="1.503" height="10.501" x="13.75" y="9.5" rx=".752" ry=".746" style="color:#000;opacity:.49412004;fill:none;stroke:url(#linearGradient4103);stroke-width:.61349458;stroke-linecap:round"/><rect id="rect2325" width="1.504" height="10.511" x="8.75" y="9.489" rx=".859" ry=".768" style="color:#000;fill:none;stroke:url(#linearGradient4087);stroke-width:.61349458;stroke-linecap:round"/><rect id="rect4127" width=".5" height="11" x="18" y="7.75" rx=".25" ry="1" style="color:#000;opacity:.4;fill:url(#linearGradient4137);stroke-width:.61349458"/><rect id="rect4129" width=".5" height="11" x="5.5" y="8" rx=".25" ry="1" style="color:#000;opacity:.3;fill:url(#linearGradient4139);stroke-width:.61349458"/><rect id="rect1432" width="1.042" height="10.511" x="6.75" y="9" rx=".859" ry=".768" style="color:#000;fill:none;stroke:url(#linearGradient1434);stroke-width:.61349458;stroke-linecap:round"/><rect id="rect1436" width=".972" height="10.501" x="16.246" y="9" rx=".486" ry=".486" style="color:#000;opacity:.49412004;fill:none;stroke:url(#linearGradient1438);stroke-width:.61349458;stroke-linecap:round"/><path id="rect2268" d="M 11.594,7.75 C 8.7525,7.7885 6.301,8.2285 5,8.8535 v 2.043 C 6.3635,11.5515 8.985,12 12,12 c 3.015,0 5.6365,-0.4485 7,-1.1035 V 8.8535 C 17.6365,8.1985 15.015,7.75 12,7.75 c -0.138,0 -0.27,-0.002 -0.406,0 z" style="color:#000;opacity:.55294004;fill:url(#radialGradient2277);stroke-width:.61349458"/><path id="path3119" d="M 11.2095,3.25455 C 7.3025,3.40825 4.249,4.69035 4.249,6.243 v 1.502 c 0,1.6555 3.4635,3.0035 7.7425,3.0035 4.279,0 7.7585,-1.348 7.7585,-3.0035 V 6.243 c 0,-1.65615 -3.4795,-2.98845 -7.7585,-2.98845 -0.2675,0 -0.5215,-0.01025 -0.782,0 z" style="color:#000;fill:url(#linearGradient3323);stroke:#000;stroke-width:.61349458;stroke-linecap:round;stroke-opacity:1"/><path id="path3567" d="M 9.75,4.5 9.5,5.5 H 10 c 0,-0.75 1.1505,-1.9982 2,-1.9982 0.8495,0 2,1.2482 2,1.9982 h 0.5 l -0.25,-1 C 14.1145,3.58455 13.5,2.25 12,2.2518 10.5,2.2536 9.879,3.6275 9.75,4.5 Z" style="color:#000;fill:url(#linearGradient956);stroke:#000;stroke-width:1.22698915;stroke-linecap:round;stroke-opacity:1"/><path id="path3343" d="m 19.49996,6.088296 c 0,1.379994 -3.359994,2.411657 -7.499985,2.411657 -4.1399915,0 -7.499985,-1.119996 -7.499985,-2.49999 0,-1.379995 3.3599935,-2.49999 7.499985,-2.49999 4.139992,0 7.499985,1.51666 7.499985,2.588323 z" style="color:#000;fill:url(#linearGradient3359);stroke-width:.55093277"/><path id="path3507" d="m 16.185685,5.250013 a 4.185465,1.39515 0 1 1 -8.37093,0 4.185465,1.39515 0 1 1 8.37093,0 z" style="color:#000;opacity:.3;fill:url(#radialGradient3517);stroke-width:.307455"/><path id="path3321" d="M 11.265,3.75 C 7.608,3.8837 4.75,4.9987 4.75,6.349 v 1.306 c 0,1.4405 3.242,2.6125 7.247,2.6125 4.005,0 7.2615,-1.172 7.2615,-2.6125 V 6.349 c 0,-1.4403 -3.2565,-2.599 -7.2615,-2.599 -0.2505,0 -0.4885,-0.0089 -0.732,0 z" style="color:#000;opacity:.56471001;fill:none;stroke:url(#linearGradient3229);stroke-width:.61349458;stroke-linecap:round"/><path id="path3333" d="m 19.266095,5.83725 a 7.25805,2.5872 0 1 1 -14.5161,0 7.25805,2.5872 0 1 1 14.5161,0 z" style="color:#000;fill:none;stroke:url(#radialGradient3341);stroke-width:.61349493;stroke-linecap:round"/><path style="color:#000;opacity:.55686005;fill:url(#radialGradient4488);stroke-width:.54155189" id="path4486" d="m 16.000218,5.249978 a 1.249999,0.7499977 0 1 1 -2.499998,0 1.249999,0.7499977 0 1 1 2.499998,0 z"/><path style="color:#000;opacity:.55686005;fill:url(#radialGradient4484);stroke-width:.54155189" id="path4476" d="m 10.499968,5.249978 a 1.249999,0.7499977 0 1 1 -2.499998,0 1.249999,0.7499976 0 1 1 2.499998,0 z"/><rect id="rect3528" width="1.271" height="1.019" x="12.479" y="4.731" rx=".209" ry=".195" transform="matrix(1,0,0.30875095,0.95114292,0,0)" style="color:#000;fill:url(#linearGradient3554);stroke-width:.61349356"/><path id="rect3530" d="m 8.6836875,5.469055 h 0.853 c 0.116,0 0.235861,-0.08275 0.2693605,-0.185948 L 9.999912,4.685886 c 0.033423,-0.102961 -0.032654,-0.1859 -0.1486545,-0.1859 h -0.853 c -0.116,0 -0.235923,0.08294 -0.2693455,0.1859 L 8.535048,5.283107 c -0.0335,0.103199 0.03264,0.185948 0.1486395,0.185948 z" style="color:#000;fill:url(#linearGradient3563);stroke-width:.59831911"/><path id="path3461" d="M 9.75,4.5 9.5,5.5 H 10 c 0,-0.75 1.1505,-1.9982 2,-1.9982 0.8495,0 2,1.2482 2,1.9982 h 0.5 l -0.25,-1 C 14.1145,3.58455 13.5,2.25 12,2.2518 10.5,2.2536 9.879,3.6275 9.75,4.5 Z" style="color:#000;fill:url(#linearGradient958);stroke-width:.61349458"/><path id="path3366" d="m 8.75,5.5 h 1 C 9.75,5.5 10,3.75 12,3.7518 14.001,3.7536 14.25,5.5 14.25,5.5 h 0.9855" style="color:#000;fill:url(#linearGradient3505);stroke:#fff;stroke-width:.61349458;stroke-linecap:round"/><path id="path2273" d="m 16.023757,5.837165 a 4.015425,1.43132 0 1 1 -8.0308495,0 4.015425,1.43132 0 1 1 8.0308495,0 z" style="color:#000;fill:none;stroke:url(#radialGradient2275);stroke-width:.61348808;stroke-linecap:round"/></g></svg>