<svg xmlns="http://www.w3.org/2000/svg" xmlns:svg="http://www.w3.org/2000/svg" id="svg6" width="24" height="24" enable-background="new 0 0 24 24" version="1.1" viewBox="0 0 24 24"><metadata id="metadata12"/><path id="path2" d="M 8.1,22 C 8,22 7.8,22 7.7,21.9 7.3,21.8 7,21.4 7,21 V 3 C 7,2.6 7.3,2.2 7.7,2.1 8.1,2 8.6,2.1 8.9,2.4 l 8.8,9 c 0.4,0.4 0.4,0.9 0,1.2 L 9,21.7 C 8.7,21.9 8.4,22 8.1,22 Z" style="fill:#c8c8c8"/><path id="path4" d="m 8.6,21.5 c -0.1,0 -0.3,0 -0.4,-0.1 C 7.8,21.3 7.5,20.9 7.5,20.5 v -18 c 0,-0.4 0.3,-0.8 0.7,-0.9 0.4,-0.1 0.9,0 1.2,0.3 l 8.8,9 c 0.4,0.4 0.4,0.9 0,1.2 l -8.8,9.1 c -0.2,0.2 -0.5,0.3 -0.8,0.3 z" style="fill:navy"/></svg>