<svg xmlns="http://www.w3.org/2000/svg" xmlns:svg="http://www.w3.org/2000/svg" id="svg6" width="24" height="24" enable-background="new 0 0 24 24" version="1.1" viewBox="0 0 24 24"><metadata id="metadata12"/><path id="path2" d="M 1.8,6.9 C 1.8,6.8 1.8,6.6 1.9,6.5 2,6.1 2.4,5.8 2.8,5.8 h 18.1 c 0.4,0 0.8,0.3 0.9,0.7 0.1,0.4 0,0.9 -0.3,1.2 l -9,8.8 c -0.4,0.4 -0.9,0.4 -1.2,0 L 2.2,7.7 C 1.9,7.5 1.8,7.2 1.8,6.9 Z" style="fill:#c8c8c8"/><path id="path4" d="M 2.2,7.4 C 2.2,7.3 2.2,7.1 2.3,7 2.4,6.6 2.8,6.3 3.2,6.3 h 18.1 c 0.4,0 0.8,0.3 0.9,0.7 0.1,0.4 0,0.9 -0.3,1.2 l -9,8.8 c -0.4,0.4 -0.9,0.4 -1.2,0 L 2.6,8.2 C 2.4,8 2.2,7.7 2.2,7.4 Z" style="fill:navy"/></svg>