<svg xmlns="http://www.w3.org/2000/svg" xmlns:cc="http://web.resource.org/cc/" xmlns:svg="http://www.w3.org/2000/svg" xmlns:xlink="http://www.w3.org/1999/xlink" id="svg3304" width="48" height="48"><defs id="defs3306"><linearGradient id="linearGradient3186"><stop style="stop-color:#555753;stop-opacity:1" id="stop3188" offset="0"/><stop style="stop-color:#888a85;stop-opacity:1" id="stop3190" offset="1"/></linearGradient><linearGradient id="linearGradient3178"><stop style="stop-color:#babdb6;stop-opacity:1" id="stop3180" offset="0"/><stop style="stop-color:#d3d7cf;stop-opacity:1" id="stop3182" offset="1"/></linearGradient><linearGradient id="linearGradient3170"><stop id="stop3172" offset="0" style="stop-color:#2e3436;stop-opacity:1"/><stop id="stop3174" offset="1" style="stop-color:#888a85;stop-opacity:1"/></linearGradient><linearGradient id="linearGradient3096"><stop style="stop-color:white;stop-opacity:1" id="stop3098" offset="0"/><stop style="stop-color:white;stop-opacity:0" id="stop3100" offset="1"/></linearGradient><linearGradient id="linearGradient3080"><stop style="stop-color:#a40000;stop-opacity:1" id="stop3082" offset="0"/><stop style="stop-color:#ef2929;stop-opacity:1" id="stop3084" offset="1"/></linearGradient><linearGradient id="linearGradient3014"><stop style="stop-color:white;stop-opacity:1" id="stop3016" offset="0"/><stop style="stop-color:white;stop-opacity:0" id="stop3018" offset="1"/></linearGradient><linearGradient id="linearGradient2986"><stop style="stop-color:#babdb6;stop-opacity:1" id="stop2988" offset="0"/><stop id="stop2994" offset=".349" style="stop-color:#eeeeec;stop-opacity:1"/><stop style="stop-color:#888a85;stop-opacity:1" id="stop2990" offset="1"/></linearGradient><linearGradient id="linearGradient2976"><stop style="stop-color:black;stop-opacity:1" id="stop2978" offset="0"/><stop id="stop2984" offset=".663" style="stop-color:#565855;stop-opacity:1"/><stop style="stop-color:#2e3436;stop-opacity:1" id="stop2980" offset="1"/></linearGradient><linearGradient id="linearGradient2951"><stop style="stop-color:white;stop-opacity:1" id="stop2953" offset="0"/><stop style="stop-color:white;stop-opacity:0" id="stop2955" offset="1"/></linearGradient><linearGradient id="linearGradient2931"><stop style="stop-color:white;stop-opacity:1" id="stop2933" offset="0"/><stop style="stop-color:white;stop-opacity:0" id="stop2935" offset="1"/></linearGradient><linearGradient id="linearGradient2915"><stop style="stop-color:#e9b96e;stop-opacity:1" id="stop2917" offset="0"/><stop style="stop-color:#c17d11;stop-opacity:1" id="stop2919" offset="1"/></linearGradient><linearGradient id="linearGradient2907"><stop style="stop-color:#c17d11;stop-opacity:1" id="stop2909" offset="0"/><stop style="stop-color:#e9b96e;stop-opacity:1" id="stop2911" offset="1"/></linearGradient><linearGradient id="linearGradient2899"><stop style="stop-color:#8f5902;stop-opacity:1" id="stop2901" offset="0"/><stop style="stop-color:#633d00;stop-opacity:1" id="stop2903" offset="1"/></linearGradient><linearGradient id="linearGradient2875"><stop style="stop-color:#ef2929;stop-opacity:1" id="stop2877" offset="0"/><stop style="stop-color:#c00;stop-opacity:1" id="stop2879" offset="1"/></linearGradient><linearGradient id="linearGradient2872"><stop style="stop-color:black;stop-opacity:1" id="stop2874" offset="0"/><stop style="stop-color:#d42828;stop-opacity:1" id="stop2876" offset="1"/></linearGradient><linearGradient id="linearGradient2848"><stop style="stop-color:black;stop-opacity:1" id="stop2850" offset="0"/><stop style="stop-color:black;stop-opacity:0" id="stop2852" offset="1"/></linearGradient><linearGradient id="linearGradient7099"><stop style="stop-color:#495356;stop-opacity:1" id="stop7101" offset="0"/><stop style="stop-color:#1e2224;stop-opacity:1" id="stop7103" offset="1"/></linearGradient><linearGradient id="linearGradient5233"><stop style="stop-color:#888a85;stop-opacity:1" id="stop5235" offset="0"/><stop style="stop-color:#888a85;stop-opacity:1" id="stop5237" offset="1"/></linearGradient><linearGradient id="linearGradient5225"><stop style="stop-color:black;stop-opacity:1" id="stop5227" offset="0"/><stop style="stop-color:black;stop-opacity:0" id="stop5229" offset="1"/></linearGradient><linearGradient id="linearGradient5137"><stop style="stop-color:#eeeeec;stop-opacity:1" id="stop5139" offset="0"/><stop style="stop-color:#e6e6e3;stop-opacity:1" id="stop5141" offset="1"/></linearGradient><linearGradient id="linearGradient6240"><stop style="stop-color:#fff;stop-opacity:1" id="stop6242" offset="0"/><stop style="stop-color:#fff;stop-opacity:0" id="stop6244" offset="1"/></linearGradient><linearGradient id="linearGradient11400"><stop style="stop-color:#000;stop-opacity:1" id="stop11402" offset="0"/><stop style="stop-color:#000;stop-opacity:0" id="stop11404" offset="1"/></linearGradient><linearGradient id="linearGradient11406" x1="23.155" x2="23.529" y1="34.573" y2="40.22" gradientTransform="matrix(1,0,0,1.004717,1,-3.193457)" gradientUnits="userSpaceOnUse" xlink:href="#linearGradient11400"/><linearGradient id="linearGradient6246" x1="20.157" x2="20.157" y1="5.1" y2="26.039" gradientTransform="translate(1,-3)" gradientUnits="userSpaceOnUse" xlink:href="#linearGradient6240"/><linearGradient id="linearGradient5147" x1="17.248" x2="39.904" y1="6.376" y2="38.876" gradientTransform="translate(1,-3)" gradientUnits="userSpaceOnUse" xlink:href="#linearGradient5137"/><linearGradient id="linearGradient5223" x1="31.743" x2="31.861" y1="37.842" y2="43.826" gradientTransform="translate(1,-3)" gradientUnits="userSpaceOnUse" xlink:href="#linearGradient5137"/><radialGradient id="radialGradient5231" cx="23.938" cy="42.688" r="23.76" fx="23.938" fy="42.688" gradientTransform="matrix(1,0,0,0.24763,0,32.1168)" gradientUnits="userSpaceOnUse" xlink:href="#linearGradient5225"/><radialGradient id="radialGradient5239" cx="24.006" cy="32.997" r="19" fx="24.006" fy="32.997" gradientTransform="matrix(1.232634,0,0,0.778392,-4.584638,-0.845623)" gradientUnits="userSpaceOnUse" xlink:href="#linearGradient5233"/><linearGradient id="linearGradient2881" x1="25.313" x2="25.313" y1="10.664" y2="17.75" gradientUnits="userSpaceOnUse" xlink:href="#linearGradient2875"/><radialGradient id="radialGradient3122" cx="23.938" cy="42.688" r="23.76" fx="23.938" fy="42.688" gradientTransform="matrix(1,0,0,0.24763,0,32.1168)" gradientUnits="userSpaceOnUse" xlink:href="#linearGradient5225"/><linearGradient id="linearGradient3124" x1="47.999" x2="63.938" y1="47.27" y2="47.27" gradientTransform="matrix(1.004118,0,0,1.023458,-47.19974,-10.87967)" gradientUnits="userSpaceOnUse" xlink:href="#linearGradient2986"/><linearGradient id="linearGradient3126" x1="62.96" x2="76.702" y1="31" y2="31" gradientUnits="userSpaceOnUse" xlink:href="#linearGradient2976"/><linearGradient id="linearGradient3130" x1="47.52" x2="51.531" y1="53.989" y2="40.391" gradientTransform="translate(-47,-10)" gradientUnits="userSpaceOnUse" xlink:href="#linearGradient3014"/><linearGradient id="linearGradient3132" x1="11.27" x2="10.562" y1="37.857" y2="32.488" gradientTransform="translate(-2,0)" gradientUnits="userSpaceOnUse" xlink:href="#linearGradient3080"/><linearGradient id="linearGradient3134" x1="11.297" x2="10.297" y1="37.5" y2="32.891" gradientTransform="translate(-2,0)" gradientUnits="userSpaceOnUse" xlink:href="#linearGradient3096"/><radialGradient id="radialGradient3146" cx="23.938" cy="42.688" r="23.76" fx="23.938" fy="42.688" gradientTransform="matrix(1,0,0,0.24763,0,32.1168)" gradientUnits="userSpaceOnUse" xlink:href="#linearGradient5225"/><linearGradient id="linearGradient3148" x1="27.656" x2="32.469" y1="40.438" y2="40.438" gradientTransform="translate(0,1)" gradientUnits="userSpaceOnUse" xlink:href="#linearGradient2915"/><linearGradient id="linearGradient3150" x1="32" x2="32" y1="37.25" y2="34.271" gradientTransform="translate(0,1)" gradientUnits="userSpaceOnUse" xlink:href="#linearGradient2899"/><linearGradient id="linearGradient3152" x1="29.41" x2="30.096" y1="20.647" y2="25.904" gradientUnits="userSpaceOnUse" xlink:href="#linearGradient7099"/><linearGradient id="linearGradient3154" x1="27.511" x2="28.029" y1="25.361" y2="20.058" gradientUnits="userSpaceOnUse" xlink:href="#linearGradient2872"/><linearGradient id="linearGradient3156" x1="28.5" x2="28" y1="44" y2="30.375" gradientUnits="userSpaceOnUse" xlink:href="#linearGradient2951"/><linearGradient id="linearGradient3158" x1="28.748" x2="28.748" y1="28.779" y2="32.069" gradientTransform="translate(0,1)" gradientUnits="userSpaceOnUse" xlink:href="#linearGradient2907"/><linearGradient id="linearGradient3160" x1="29.258" x2="29.151" y1="33.981" y2="35.607" gradientTransform="matrix(-1,0,0,1,58.98437,1)" gradientUnits="userSpaceOnUse" xlink:href="#linearGradient2848"/><linearGradient id="linearGradient3162" x1="26.282" x2="26.23" y1="28" y2="34.545" gradientUnits="userSpaceOnUse" xlink:href="#linearGradient2931"/><linearGradient id="linearGradient3168" x1="5.313" x2="5.625" y1="26.999" y2="39" gradientUnits="userSpaceOnUse" xlink:href="#linearGradient3170"/><linearGradient id="linearGradient3184" x1="38.5" x2="26.5" y1="26.719" y2="24" gradientUnits="userSpaceOnUse" xlink:href="#linearGradient3178"/><linearGradient id="linearGradient3192" x1="26.084" x2="26.084" y1="25.423" y2="28" gradientUnits="userSpaceOnUse" xlink:href="#linearGradient3186"/></defs><metadata id="metadata3309"/><g id="layer1"><path style="fill:none;fill-opacity:.75;fill-rule:evenodd;stroke:none;stroke-width:1px;stroke-linecap:butt;stroke-linejoin:miter;stroke-opacity:1" id="rect4784" d="M 1,-1 L 49,-1 L 49,47 L 1,47 L 1,-1 z"/><path style="opacity:.3;fill:url(#radialGradient5231);fill-opacity:1;fill-rule:evenodd;stroke:none;stroke-width:1px;stroke-linecap:butt;stroke-linejoin:miter;stroke-opacity:1" id="path13582" d="M 47.69706,42.6875 C 47.69706,45.935235 37.052777,48.571078 23.9375,48.571078 C 10.822223,48.571078 0.17794037,45.935235 0.17794037,42.6875 C 0.17794037,39.439765 10.822223,36.803922 23.9375,36.803922 C 37.052777,36.803922 47.69706,39.439765 47.69706,42.6875 z" transform="matrix(0.968245,0,0,1.006514,2.447631,-3.040111)"/><path style="color:#000;fill:url(#linearGradient5223);fill-opacity:1;fill-rule:evenodd;stroke:#888a85;stroke-width:1;stroke-linecap:butt;stroke-linejoin:miter;stroke-miterlimit:4;stroke-dashoffset:0;stroke-opacity:1;marker:none;marker-start:none;marker-mid:none;marker-end:none;visibility:visible;display:inline;overflow:visible" id="path9222" d="M 15.375479,32.533351 C 15.375479,32.533351 16.592355,37.467951 11.51915,37.514275 C 9.0888743,37.53618 9.5866723,41.549426 9.5866723,41.549426 L 40.433139,41.518053 C 40.433139,41.518053 40.851577,37.62269 38.410922,37.577021 C 33.423455,37.484882 34.600393,32.470606 34.600393,32.470606 L 15.375479,32.533351 z"/><path style="fill:url(#linearGradient5147);fill-opacity:1;fill-rule:evenodd;stroke:#888a85;stroke-width:1;stroke-linecap:butt;stroke-linejoin:miter;stroke-miterlimit:4;stroke-opacity:1" id="rect5040" d="M 5.8886262,0.4784362 L 44.01746,0.4784362 C 46.042579,0.4784362 47.518438,1.9060907 47.518438,4.104577 L 47.529388,30.308416 C 47.529388,32.000483 47.001041,32.523645 45.494732,32.523645 L 4.5320635,32.50471 C 3.3527922,32.475917 2.513468,32.010049 2.4976345,30.485407 L 2.5128113,3.9168325 C 2.5128113,2.1430066 4.0522187,0.4784362 5.8886262,0.4784362 z"/><path style="fill:url(#radialGradient5239);fill-opacity:1;fill-rule:evenodd;stroke:#555753;stroke-width:1px;stroke-linecap:butt;stroke-linejoin:miter;stroke-opacity:1" id="rect9208" d="M 6.5059438,4.5018229 L 43.506264,4.5018229 L 43.506264,27.498514 L 6.5059438,27.498514 L 6.5059438,4.5018229 z"/><path style="fill:none;fill-opacity:1;fill-rule:evenodd;stroke:#fff;stroke-width:1.00847661;stroke-linecap:butt;stroke-linejoin:miter;stroke-miterlimit:4;stroke-opacity:1" id="path5145" d="M 5.875,1.34375 C 4.5670572,1.34375 3.3750001,2.6383996 3.375,3.90625 L 3.375,30.5 C 3.3812651,31.103278 3.5206964,31.290591 3.65625,31.40625 C 3.7918036,31.521909 4.0781685,31.613174 4.5625,31.625 L 45.5,31.65625 C 46.151173,31.65625 46.356981,31.555231 46.4375,31.46875 C 46.518019,31.382269 46.65625,31.068048 46.65625,30.3125 L 46.65625,4.09375 C 46.65625,2.2865999 45.645463,1.34375 44.03125,1.34375 L 5.875,1.34375 z" transform="matrix(0.993502,0,0,0.989691,0.140433,0.201029)"/><path style="opacity:.6;fill:url(#linearGradient11406);fill-opacity:1;fill-rule:evenodd;stroke:none;stroke-width:1px;stroke-linecap:butt;stroke-linejoin:miter;stroke-opacity:1" id="path10672" d="M 14.992156,33.01576 C 15.075817,35.198557 14.708803,35.940937 13.358532,36.708327 L 36.973934,38.011765 C 36.024915,36.837624 34.644523,35.064594 35.020993,33 L 14.992156,33.01576 z"/><path style="opacity:.55;fill:url(#linearGradient6246);fill-opacity:1;fill-rule:evenodd;stroke:none;stroke-width:1px;stroke-linecap:butt;stroke-linejoin:miter;stroke-opacity:1" id="path4073" d="M 7.0235294,5.0313725 L 7.0235294,23.039216 C 23.467974,21.684967 29.622222,12.926797 42.992156,12.011764 L 42.992157,5 L 7.0235294,5.0313725 z"/><g id="g3051" transform="translate(3,-3)"><path id="path5267" d="M 33,7.0625 L 13,7.0625 L 13.03125,19.094991 C 13.03125,20.089473 13.992033,20.080329 13.984375,19.023696 C 13.538907,11.780799 15.49838,12.749696 15.484375,9.1684603 C 15.482241,8.6870091 16,8.7150938 16,9.0514625 L 16,26.191639 C 16,27.18612 17,27.18612 17,26.191639 C 17.03125,20.261313 18.4375,23.624237 18.5,18.169978 C 18.506892,17.564924 18.875,17.742205 19,18.001794 L 23,23.968681 L 36,24.963162 C 36,16.012831 35,7.0625 33,7.0625 z" style="opacity:1;fill:url(#linearGradient2881);fill-opacity:1;fill-rule:evenodd;stroke:none;stroke-width:1px;stroke-linecap:butt;stroke-linejoin:miter;stroke-opacity:1"/><path id="path2865" d="M 13.5,7.5 L 33.5,7.5" style="fill:none;fill-rule:evenodd;stroke:#a40000;stroke-width:1px;stroke-linecap:round;stroke-linejoin:miter;stroke-opacity:1"/><rect id="rect2867" width=".219" height="9.875" x="13.281" y="8.438" rx=".109" ry=".109" style="opacity:.3;fill:#fff;fill-opacity:1;stroke:none;stroke-width:1.00199997;stroke-linecap:round;stroke-linejoin:miter;stroke-miterlimit:4;stroke-dasharray:none;stroke-dashoffset:1.20000057;stroke-opacity:1"/><rect id="rect2869" width=".219" height="16.563" x="16.266" y="9" rx=".109" ry=".109" style="opacity:.3;fill:#fff;fill-opacity:1;stroke:none;stroke-width:1.00199997;stroke-linecap:round;stroke-linejoin:miter;stroke-miterlimit:4;stroke-dasharray:none;stroke-dashoffset:1.20000057;stroke-opacity:1"/><path id="path2871" d="M 13.695312 19.007812 A 0.2265625 0.2421875 0 1 1 13.242188,19.007812 A 0.2265625 0.2421875 0 1 1 13.695312 19.007812 z" transform="translate(-0.125,-0.242188)" style="opacity:.3;fill:#fff;fill-opacity:1;stroke:none;stroke-width:1.00199997;stroke-linecap:round;stroke-linejoin:miter;stroke-miterlimit:4;stroke-dasharray:none;stroke-dashoffset:1.20000057;stroke-opacity:1"/><path id="path2873" d="M 13.695312 19.007812 A 0.2265625 0.2421875 0 1 1 13.242188,19.007812 A 0.2265625 0.2421875 0 1 1 13.695312 19.007812 z" transform="translate(2.859375,7.078124)" style="opacity:.3;fill:#fff;fill-opacity:1;stroke:none;stroke-width:1.00199997;stroke-linecap:round;stroke-linejoin:miter;stroke-miterlimit:4;stroke-dasharray:none;stroke-dashoffset:1.20000057;stroke-opacity:1"/></g><path style="fill:none;fill-opacity:1;fill-rule:evenodd;stroke:#8d8d8f;stroke-width:1px;stroke-linecap:round;stroke-linejoin:miter;stroke-opacity:.43902438" id="path6575" d="M 10.992126,38.496063 C 17.698819,38.498032 38.78891,38.496063 38.78891,38.496063"/><path style="fill:none;fill-opacity:1;fill-rule:evenodd;stroke:#fff;stroke-width:1px;stroke-linecap:round;stroke-linejoin:miter;stroke-opacity:1" id="path8029" d="M 10.647928,39.503937 C 17.354621,39.505906 39.367789,39.503937 39.367789,39.503937"/><g id="g3136" transform="translate(3,-3)"><path id="path11126" d="M 47.69706 42.6875 A 23.75956 5.8835783 0 1 1 0.17794037,42.6875 A 23.75956 5.8835783 0 1 1 47.69706 42.6875 z" transform="matrix(0.230912,0,0,0.424911,23.95891,27.3616)" style="opacity:.3;fill:url(#radialGradient3146);fill-opacity:1;fill-rule:evenodd;stroke:none;stroke-width:1px;stroke-linecap:butt;stroke-linejoin:miter;stroke-opacity:1"/><path id="path5257" d="M 31.011062,32.499991 C 31.011062,32.499991 32.52857,40.253124 32.500001,42.424072 C 32.4719,44.559431 31.819658,46.437487 29.469382,46.437487 C 27.15003,46.437487 26.531536,44.704422 26.500612,42.424072 C 26.469691,40.144014 27.95765,32.562491 27.95765,32.562491 L 31.011062,32.499991 z" style="fill:url(#linearGradient3148);fill-opacity:1;fill-rule:evenodd;stroke:url(#linearGradient3150);stroke-width:.99999982px;stroke-linecap:butt;stroke-linejoin:miter;stroke-opacity:1"/><path id="path5265" d="M 22.5,27.5 C 22.458495,23.0625 20.416991,19.4375 20.5,19.5 C 21.994165,20.8125 23.986385,21 24.982495,23.4375 C 24.982495,23.5 26.974715,22 26.538916,20.4375 C 27.970825,21 28.157595,22.145833 28.966935,23 L 29.963045,20 L 32.450519,23 L 35.509438,20 C 35.509438,20 36.437744,24.9375 36.5,27.5 L 22.5,27.5 z" style="fill:url(#linearGradient3152);fill-opacity:1;fill-rule:evenodd;stroke:url(#linearGradient3154);stroke-width:1.00000012px;stroke-linecap:butt;stroke-linejoin:miter;stroke-opacity:1"/><path id="path2945" d="M 28.78125,32.53125 C 28.676459,33.071127 28.516065,34.062725 28.21875,35.8125 C 27.850299,37.980933 27.487719,40.531913 27.5,41.4375 C 27.514282,42.490626 27.68577,43.298803 27.96875,43.75 C 28.25173,44.201197 28.556434,44.437499 29.46875,44.4375 C 30.379201,44.4375 30.69847,44.198746 31,43.71875 C 31.30153,43.238754 31.487242,42.407035 31.5,41.4375 C 31.510987,40.602572 31.157352,38.011071 30.78125,35.8125 C 30.482124,34.063903 30.298448,33.104627 30.1875,32.53125 L 28.78125,32.53125 z" transform="translate(0,1)" style="opacity:.6;fill:none;fill-opacity:1;fill-rule:evenodd;stroke:url(#linearGradient3156);stroke-width:.99999982px;stroke-linecap:butt;stroke-linejoin:miter;stroke-opacity:1"/><path id="path5259" d="M 22.504711,32.995289 L 22.5,28.5 L 36.5,28.5 L 36.504711,32.995289 C 36.504711,33.995289 36,34.520833 35,34.5 L 24,34.5 C 23,34.5 22.5,34 22.504711,32.995289 z" style="fill:url(#linearGradient3158);fill-opacity:1;fill-rule:evenodd;stroke:#8f5902;stroke-width:1px;stroke-linecap:butt;stroke-linejoin:miter;stroke-opacity:1"/><path id="path2846" d="M 27.984375,35 L 30.96875,34.992187 C 31.21286,36.318049 31.160522,35.96877 31.363445,37.315226 C 30.723043,35.335164 28.484375,35 27.984375,35 z" style="opacity:.3608247;color:#000;fill:url(#linearGradient3160);fill-opacity:1;fill-rule:nonzero;stroke:none;stroke-width:1;stroke-linecap:butt;stroke-linejoin:miter;marker:none;marker-start:none;marker-mid:none;marker-end:none;stroke-miterlimit:10;stroke-dasharray:none;stroke-dashoffset:0;stroke-opacity:1;visibility:visible;display:inline;overflow:visible"/><path id="path2870" d="M 21.743534,20.953166 L 22.804194,25.107418 L 22.936776,22.698835 C 23.934673,22.956944 24.241107,24.509592 24.925514,25.39468 C 25.679363,24.879639 26.703509,24.284899 27.400388,23.428039 L 29.389125,24.886447 L 30.847533,22.986098 L 32.968854,25.01903 L 35.708893,23.162874 L 35.266951,21.041554 L 32.438524,23.781593 L 30.140427,20.99736 C 29.805307,22.035884 29.448576,23.117631 29.168155,24.046758 C 28.405318,23.250464 27.937128,22.159537 27.046835,21.328816 C 26.696201,22.181225 26.418604,23.131424 24.704543,24.046758 C 24.091263,22.707788 23.345703,21.477756 21.743534,20.953166 z" style="opacity:1;color:#000;fill:#ef2929;fill-opacity:1;fill-rule:nonzero;stroke:none;stroke-width:1;stroke-linecap:butt;stroke-linejoin:miter;marker:none;marker-start:none;marker-mid:none;marker-end:none;stroke-miterlimit:10;stroke-dasharray:none;stroke-dashoffset:0;stroke-opacity:1;visibility:visible;display:inline;overflow:visible"/><path id="path2929" d="M 23.5,28.5 L 23.5,32 C 23.498427,32.335457 23.547425,32.422496 23.5625,32.4375 C 23.577575,32.452504 23.663807,32.5 24,32.5 L 35,32.5 C 35.010416,32.499836 35.020834,32.499836 35.03125,32.5 C 35.355665,32.506759 35.390083,32.453836 35.40625,32.4375 C 35.422417,32.421164 35.5,32.334635 35.5,32 L 35.5,28.5 L 23.5,28.5 z" transform="translate(0,1)" style="opacity:.6;fill:none;fill-opacity:1;fill-rule:evenodd;stroke:url(#linearGradient3162);stroke-width:1px;stroke-linecap:butt;stroke-linejoin:miter;stroke-opacity:1"/></g><g id="g3108" transform="translate(4,-1)"><path id="path3059" d="M 47.69706 42.6875 A 23.75956 5.8835783 0 1 1 0.17794037,42.6875 A 23.75956 5.8835783 0 1 1 47.69706 42.6875 z" transform="matrix(0.410361,0,0,0.679858,-7.302e-2,15.97855)" style="opacity:.3;fill:url(#radialGradient3122);fill-opacity:1;fill-rule:evenodd;stroke:none;stroke-width:1px;stroke-linecap:butt;stroke-linejoin:miter;stroke-opacity:1"/><path id="path3022" d="M 17.5,34.5 L 14.5,31.5" style="fill:none;fill-opacity:.75;fill-rule:evenodd;stroke:#000;stroke-width:.99999982px;stroke-linecap:round;stroke-linejoin:round;stroke-opacity:1"/><path id="path2960" d="M 8.999472,27.50001 C 4.859746,27.50001 1.499968,28.744393 1.499968,30.277649 L 1.499968,43.721374 C 1.499968,45.254631 4.859746,46.499014 8.999472,46.499014 C 13.139199,46.499014 16.49898,45.254631 16.49898,43.721374 L 16.49898,30.277649 C 16.49898,28.744393 13.139199,27.50001 8.999472,27.50001 z" style="opacity:1;fill:url(#linearGradient3124);fill-opacity:1;stroke:url(#linearGradient3168);stroke-width:1.00199974;stroke-linecap:round;stroke-linejoin:miter;stroke-miterlimit:4;stroke-dasharray:none;stroke-dashoffset:1.20000057;stroke-opacity:1"/><path id="path3012" d="M 9,28.5 C 7.031106,28.5 5.264027,28.804224 4.0625,29.25 C 3.461736,29.472888 2.993416,29.755525 2.75,29.96875 C 2.506584,30.181975 2.5,30.264948 2.5,30.28125 L 2.5,43.71875 C 2.5,43.735051 2.506584,43.818025 2.75,44.03125 C 2.993416,44.244475 3.461736,44.527112 4.0625,44.75 C 5.264028,45.195776 7.031107,45.5 9,45.5 C 10.968893,45.499999 12.735972,45.195775 13.9375,44.75 C 14.538264,44.527112 15.006584,44.244475 15.25,44.03125 C 15.493416,43.818025 15.5,43.735052 15.5,43.71875 L 15.5,30.28125 C 15.5,30.264948 15.493416,30.181975 15.25,29.96875 C 15.006584,29.755525 14.538264,29.472888 13.9375,29.25 C 12.735973,28.804224 10.968894,28.5 9,28.5 z" style="fill:none;fill-opacity:1;stroke:url(#linearGradient3130);stroke-width:1.00199974;stroke-linecap:round;stroke-linejoin:miter;stroke-miterlimit:4;stroke-dashoffset:1.20000057;stroke-opacity:1"/><path id="path2966" d="M 77.5 31 A 7 2.5 0 1 1 63.5,31 A 7 2.5 0 1 1 77.5 31 z" transform="matrix(0.92857,0,0,0.7996,-56.46419,5.7124)" style="opacity:1;fill:url(#linearGradient3126);fill-opacity:1;stroke:#fff;stroke-width:1.16285086;stroke-linecap:round;stroke-linejoin:miter;stroke-miterlimit:4;stroke-dasharray:none;stroke-dashoffset:1.20000057;stroke-opacity:1"/><path id="path3106" d="M 9.345005,42.713128 C 9.204923,33.22204 5.5778229,33.856805 7.3345971,32.244313 C 12.218053,32.564721 14.649587,31.727633 15.3125,30.84375 C 17.886277,34.05394 10.425369,32.933485 11.326364,42.68907 C 11.311035,44.320128 9.306448,44.764338 9.345005,42.713128 z" style="opacity:.1;fill:#000;fill-opacity:1;fill-rule:evenodd;stroke:none;stroke-width:1px;stroke-linecap:butt;stroke-linejoin:miter;stroke-opacity:1"/><path id="path3030" d="M 7 35.747044 A 2 1.7470434 0 1 1 3,35.747044 A 2 1.7470434 0 1 1 7 35.747044 z" transform="matrix(0.75,0.125,0,0.858593,1.75,4.182838)" style="opacity:.6;fill:#888a85;fill-opacity:1;stroke:none;stroke-width:1;stroke-linecap:round;stroke-linejoin:round;stroke-miterlimit:4;stroke-dasharray:none;stroke-opacity:1"/><path id="path3068" d="M 9.032505,42.369378 C 9.283048,30.94079 3.6246979,33.71618 5.7095971,31.728688 C 11.354185,32.403616 14.372165,31.395576 15,30.5 C 17.573777,33.71019 10.112869,32.589735 11.013864,42.34532 C 10.998535,43.976378 8.993948,44.420588 9.032505,42.369378 z" style="opacity:1;fill:url(#linearGradient3132);fill-opacity:1;fill-rule:evenodd;stroke:none;stroke-width:1px;stroke-linecap:butt;stroke-linejoin:miter;stroke-opacity:1"/><path id="path3088" d="M 7.718751,33.531255 C 8.311668,34.522063 9.518863,36.400453 9.593751,41.734382" style="opacity:.3;fill:none;fill-opacity:1;fill-rule:evenodd;stroke:url(#linearGradient3134);stroke-width:.40000001;stroke-linecap:round;stroke-linejoin:miter;stroke-miterlimit:4;stroke-dasharray:none;stroke-opacity:1"/><path id="path3028" d="M 5.5,35.5 C 5.5,35.5 10.361634,41.443248 13.611814,41.498777 C 16.861994,41.554307 18.47873,39.728474 18.5,37.42227 C 18.52129,35.116178 17.5,34.500009 17.5,34.500009" style="fill:none;fill-opacity:.75;fill-rule:evenodd;stroke:#000;stroke-width:1.00000012px;stroke-linecap:round;stroke-linejoin:round;stroke-opacity:1"/><path id="path3070" d="M 6.0386501,32.310689 C 10.705693,32.898531 14.322287,32.215648 14.955822,31.212724" style="opacity:.6;fill:none;fill-opacity:1;fill-rule:evenodd;stroke:#fff;stroke-width:.30000001;stroke-linecap:round;stroke-linejoin:miter;stroke-miterlimit:4;stroke-dasharray:none;stroke-opacity:1"/><path id="path3104" d="M 12.140624 42.710938 A 0.4140625 0.3671875 0 1 1 11.312499,42.710938 A 0.4140625 0.3671875 0 1 1 12.140624 42.710938 z" transform="matrix(0.773585,0,0,1.191489,0.561321,-8.249003)" style="opacity:.3;fill:#fff;fill-opacity:1;stroke:none;stroke-width:.40000001;stroke-linecap:round;stroke-linejoin:miter;stroke-miterlimit:4;stroke-dasharray:none;stroke-dashoffset:1.20000057;stroke-opacity:1"/></g><path style="fill:url(#linearGradient3184);fill-opacity:1;stroke:url(#linearGradient3192);stroke-width:.9999997;stroke-linecap:round;stroke-linejoin:miter;stroke-miterlimit:4;stroke-dashoffset:1.20000057;stroke-opacity:1" id="rect3176" d="M 39.5,25.525888 L 39.5,26.474112 C 39.5,27.042454 39.042454,27.5 38.474112,27.5 L 26.525888,27.5 C 25.957546,27.5 25.5,27.042454 25.5,26.474112 L 25.5,25.525888 L 39.5,25.525888 z"/></g></svg>