<svg xmlns="http://www.w3.org/2000/svg" xmlns:svg="http://www.w3.org/2000/svg" xmlns:xlink="http://www.w3.org/1999/xlink" id="Ebene_1" width="48" height="48" x="0" y="0" version="1.1" viewBox="0 0 48 48" xml:space="preserve"><metadata id="metadata68"/><defs id="defs66"><defs id="defs5"><rect id="SVGID_1_" width="925" height="2208" x="146" y="0"/></defs><clipPath id="SVGID_2_"><use style="overflow:visible" id="use7" width="100%" height="100%" x="0" y="0" xlink:href="#SVGID_1_"/></clipPath><defs id="defs11"><rect id="SVGID_3_" width="925" height="2208" x="146" y="0"/></defs><clipPath id="SVGID_4_"><use id="use13" width="100%" height="100%" x="0" y="0" xlink:href="#SVGID_3_" style="overflow:visible"/></clipPath></defs><rect style="opacity:1;fill:#727272;fill-opacity:1;fill-rule:nonzero;stroke:none;stroke-width:1.62044501;stroke-linecap:round;stroke-miterlimit:4;stroke-dasharray:none;stroke-dashoffset:.83990926;stroke-opacity:1;paint-order:normal" id="rect1028" width="12" height="29" x="18.009" y="16.009" ry=".991"/><path style="fill:#bc1e1e" id="path20" d="m 726.3,141.5 c 0,62.6 -52.8,113.3 -117.8,113.3 -65,0 -117.8,-50.7 -117.8,-113.3 0,-62.6 52.8,-113.3 117.8,-113.3 65,0 117.8,50.7 117.8,113.3" class="st3" clip-path="url(#SVGID_4_)" transform="matrix(0.01299256,0,0,0.01314239,16.094029,16.069275)"/><rect style="fill:#4bd113" id="rect22" width="212.1" height="68" x="833.9" y="688.1" class="st4" clip-path="url(#SVGID_4_)" transform="matrix(0.01205092,0,0,0.01314239,16.481514,17.037708)"/><rect style="fill:#c2c61e" id="rect24" width="212.1" height="68" x="220.1" y="688.1" class="st5" clip-path="url(#SVGID_4_)" transform="matrix(0.01205092,0,0,0.01314239,16.257089,17.037708)"/><rect style="fill:#1c50b7" id="rect26" width="212.1" height="68" x="515.6" y="681.7" class="st6" clip-path="url(#SVGID_4_)" transform="matrix(0.01205092,0,0,0.01314239,16.513245,17.126096)"/><path style="fill:#4d4d4d" id="path28" d="m 993.8,900.2 c 0,44.2 -37.2,80 -83.2,80 -45.9,0 -83.2,-35.8 -83.2,-80 0,-44.2 37.2,-80 83.2,-80 46,0.1 83.2,35.9 83.2,80" class="st7" clip-path="url(#SVGID_4_)" transform="matrix(0.01299256,0,0,0.01314239,16.16032,17.148193)"/><path style="fill:#4d4d4d" id="path30" d="m 409.3,900.2 c 0,44.2 -37.2,80 -83.2,80 -46,0 -83.2,-35.8 -83.2,-80 0,-44.2 37.2,-80 83.2,-80 46,0 83.2,35.9 83.2,80" class="st7" clip-path="url(#SVGID_4_)" transform="matrix(0.01299256,0,0,0.01314239,15.828865,17.148193)"/><path style="fill:#4d4d4d" id="path32" d="m 691.7,900.2 c 0,44.2 -37.2,80 -83.2,80 -46,0 -83.2,-35.8 -83.2,-80 0,-44.2 37.2,-80 83.2,-80 46,0 83.2,35.9 83.2,80" class="st7" clip-path="url(#SVGID_4_)" transform="matrix(0.01299256,0,0,0.01314239,16.094029,17.148193)"/><path style="fill:#4d4d4d" id="path34" d="M 946.6,2108.6 H 290.5 c -16.2,0 -29.4,-13 -29.4,-28.9 V 1053.6 c 0,-15.9 13.2,-28.9 29.4,-28.9 h 656.1 c 16.2,0 29.4,13 29.4,28.9 v 1026.1 c 0,15.9 -13.2,28.9 -29.4,28.9" class="st7" clip-path="url(#SVGID_4_)" transform="matrix(0.0113512,0,0,0.01018744,17.045195,21.518772)"/><ellipse style="fill:none;stroke:#fff;stroke-width:2;stroke-miterlimit:10" id="ellipse36" cx="608.5" cy="139.6" class="st8" clip-path="url(#SVGID_4_)" rx="66.2" ry="63.6" transform="matrix(0.01299256,0,0,0.01314239,16.094029,16.069275)"/><line style="fill:none;stroke:#fff;stroke-width:2;stroke-miterlimit:10" id="line38" x1="608.5" x2="608.5" y1="134.4" y2="38.8" class="st8" clip-path="url(#SVGID_4_)" transform="matrix(0.01299256,0,0,0.01314239,16.094029,16.069275)"/><rect style="fill:#4d4d4d" id="rect40" width="153.5" height="45" x="220.1" y="318.4" class="st7" clip-path="url(#SVGID_4_)" transform="matrix(0.01299256,0,0,0.01314239,16.094029,15.990833)"/><rect style="fill:#4d4d4d" id="rect42" width="153.5" height="45" x="531.8" y="318.4" class="st7" clip-path="url(#SVGID_4_)" transform="matrix(0.01299256,0,0,0.01314239,16.094029,15.990833)"/><rect style="fill:#4d4d4d" id="rect44" width="153.5" height="45" x="833.9" y="318.4" class="st7" clip-path="url(#SVGID_4_)" transform="matrix(0.01299256,0,0,0.01314239,16.094029,15.990833)"/><rect style="fill:#4d4d4d" id="rect46" width="153.5" height="45" x="220.1" y="420" class="st7" clip-path="url(#SVGID_4_)" transform="matrix(0.01299256,0,0,0.01314239,16.094029,16.678333)"/><rect style="fill:#4d4d4d" id="rect48" width="153.5" height="45" x="531.8" y="420" class="st7" clip-path="url(#SVGID_4_)" transform="matrix(0.01299256,0,0,0.01314239,16.094029,16.678333)"/><rect style="fill:#4d4d4d" id="rect50" width="153.5" height="45" x="833.9" y="420" class="st7" clip-path="url(#SVGID_4_)" transform="matrix(0.01299256,0,0,0.01314239,16.094029,16.678333)"/><rect style="fill:#4d4d4d" id="rect52" width="153.5" height="45" x="220.1" y="523.8" class="st7" clip-path="url(#SVGID_4_)" transform="matrix(0.01299256,0,0,0.01314239,16.094029,17.287708)"/><rect style="fill:#4d4d4d" id="rect54" width="153.5" height="45" x="531.8" y="523.8" class="st7" clip-path="url(#SVGID_4_)" transform="matrix(0.01299256,0,0,0.01314239,16.094029,17.287708)"/><rect style="fill:#4d4d4d" id="rect56" width="153.5" height="45" x="833.9" y="523.8" class="st7" clip-path="url(#SVGID_4_)" transform="matrix(0.01299256,0,0,0.01314239,16.094029,17.287708)"/><path style="opacity:1;fill:none;fill-opacity:1;fill-rule:nonzero;stroke:#bc1e1e;stroke-width:2.19968009;stroke-linecap:round;stroke-miterlimit:4;stroke-dasharray:none;stroke-dashoffset:.83990926;stroke-opacity:1;paint-order:stroke fill markers" id="path876" d="m -11.664879,18.800892 a 5.9980631,7.0002241 0 0 1 1.7991978,5.067434 5.9980631,7.0002241 0 0 1 -1.8834568,5.025558" transform="rotate(-90)"/><path style="opacity:1;fill:none;fill-opacity:1;fill-rule:nonzero;stroke:#bc1e1e;stroke-width:2.19968009;stroke-linecap:round;stroke-miterlimit:4;stroke-dasharray:none;stroke-dashoffset:.83990926;stroke-opacity:1;paint-order:stroke fill markers" id="path876-7" d="m -6.8595507,14.918745 a 9.9980001,12.6 0 0 1 2.9990317,9.121088 9.9980001,12.6 0 0 1 -3.1394807,9.045716" transform="rotate(-90)"/></svg>