<svg xmlns="http://www.w3.org/2000/svg" xmlns:svg="http://www.w3.org/2000/svg" id="svg2" width="48" height="48" version="1.1" viewBox="0 0 48 48"><defs id="defs4"><linearGradient id="a" x1="24.2" x2="24.2" y1="1" y2="47.2" gradientTransform="translate(0,1005.3622)" gradientUnits="userSpaceOnUse"><stop id="stop4" offset="0" stop-color="#28627d"/><stop id="stop6" offset=".7" stop-color="#0c465f"/><stop id="stop8" offset="1" stop-color="#003952"/></linearGradient></defs><metadata id="metadata7"/><g id="layer1" transform="translate(0,-1005.3622)"><path style="fill:url(#a)" id="path11" d="m 20.1,1052.5622 a 90.2,90.2 0 0 0 -19.2,-17.2 l 9,-6.4 a 35,35 0 0 1 8.9,10.1 l 0.5,0.9 0.4,-0.9 c 2.9,-6.1 15.3,-25 26.4,-32.7 -0.4,4.3 0,8.6 1.3,13.5 -11.6,7 -24.9,28.7 -27.3,32.7 z"/><path style="fill:#003952" id="path13" d="m 45.5,1007.4622 c -0.3,3.9 0.2,7.9 1.3,12.2 -11.1,6.9 -23.7,26.9 -26.8,32 a 89.5,89.5 0 0 0 -18.2,-16.3 l 8.1,-5.7 a 35,35 0 0 1 8.5,9.7 l 0.9,1.7 0.8,-1.8 c 2.9,-5.9 14.6,-23.8 25.4,-31.8 m 1.2,-2.1 c -11.3,7.3 -24.4,27 -27.5,33.4 a 37.8,37.8 0 0 0 -9.3,-10.5 l -9.9,7.1 a 93.1,93.1 0 0 1 20.2,18 c 0,0 15.2,-26 27.8,-33.3 a 36,36 0 0 1 -1.3,-14.7 z"/><path style="fill:#2286b3" id="path15" d="m 19.4,1040.9622 a 98.5,98.5 0 0 1 26.1,-33.4 c -6.3,4.1 -21,24.8 -26.1,33.4 z m -9.4,-11.4 c -0.6,1.2 -6.3,5.4 -8.2,5.7 1,-0.9 7,-5.1 8.2,-5.7 z"/></g></svg>