<svg xmlns="http://www.w3.org/2000/svg" xmlns:svg="http://www.w3.org/2000/svg" id="svg2" width="16" height="16" version="1.0"><metadata id="metadata2975"/><g id="g1327" transform="matrix(0.02775633,0,0,0.02770795,-0.04729925,-0.04722701)" style="fill:#fff;stroke:none"><path style="fill:#fff;stroke:none;stroke-width:3.40799999" id="path1329" d="M 66.275,1.768 C 24.94,1.768 1.704,23.139 1.704,66.804 v 450.123 c 0,40.844 20.895,62.229 62.192,62.229 H 515.92 c 41.307,0 62.229,-20.315 62.229,-62.229 V 66.804 c 0,-42.601 -20.922,-65.036 -63.521,-65.036 -0.004,0 -448.495,-0.143 -448.353,0 z"/></g><path id="path5473" d="m 1.3789109,12.8596 c 0,-1.032368 2.8734485,-1.869274 6.418079,-1.869274" style="opacity:.64426874;fill:none;stroke:gray;stroke-width:.61538541;stroke-opacity:1"/><polygon id="polygon5475" points="328.149 185.931 519.152 120.931 519.152 442.928 328.149 507.928" transform="matrix(0.02649345,0,0,0.02952936,0.8458697,-0.25760864)" style="fill:none;stroke:#4d4d4d;stroke-width:30;stroke-linecap:round;stroke-linejoin:round"/><path id="path5477" d="m 1.3789109,10.026476 c 0,-1.0323689 2.8734485,-1.869317 6.418079,-1.869317" style="opacity:.64426874;fill:none;stroke:gray;stroke-width:.61538541;stroke-opacity:1"/><path id="path5479" d="m 1.3789109,7.2225004 c 0,-1.0323796 2.8734485,-1.8692853 6.418079,-1.8692853" style="opacity:.64426874;fill:none;stroke:gray;stroke-width:.61538541;stroke-opacity:1"/><path id="path5481" d="m 7.7969899,14.728727 c -3.5446305,0 -6.418079,-0.836906 -6.418079,-1.869275" style="fill:none;stroke:#4d4d4d;stroke-width:.92307806;stroke-linecap:round"/><line id="line5483" x1="1.379" x2="1.379" y1="3.396" y2="12.889" style="fill:none;stroke:#4d4d4d;stroke-width:.92307806;stroke-linecap:round"/><line id="line5485" x1="7.765" x2="7.765" y1="5.353" y2="14.729" style="fill:none;stroke:#4d4d4d;stroke-width:.92307806;stroke-linecap:round"/><line id="line5487" x1="7.765" x2="7.765" y1="1.556" y2="5.353" style="opacity:.64426874;fill:none;stroke:gray;stroke-width:.92307806;stroke-opacity:1"/><path id="path5489" d="m 7.7645673,11.399225 c -3.5446187,0 -6.418079,-0.836916 -6.418079,-1.8692747" style="fill:none;stroke:#4d4d4d;stroke-width:.61538541"/><path id="path5491" d="m 7.8294006,8.3908263 c -3.5446187,0 -6.4180789,-0.8369376 -6.4180789,-1.8692854" style="fill:none;stroke:#4d4d4d;stroke-width:.61538541"/><path id="path5493" d="m 7.7969899,5.2655991 c -3.5446305,0 -6.418079,-0.8369163 -6.418079,-1.8692852 0,-1.032369 2.8734485,-1.8692747 6.418079,-1.8692747" style="fill:none;stroke:#4d4d4d;stroke-width:.92307806;stroke-linecap:round"/><line id="line5495" x1="9.54" x2="14.6" y1="8.393" y2="6.473" style="fill:none;stroke:#4d4d4d;stroke-width:.83910739;stroke-linecap:round;stroke-linejoin:round"/><line id="line5497" x1="9.54" x2="14.6" y1="11.464" y2="9.544" style="fill:none;stroke:#4d4d4d;stroke-width:.83910739;stroke-linecap:round;stroke-linejoin:round"/><line id="line5499" x1="9.566" x2="14.494" y1="14.623" y2="3.372" style="fill:none;stroke:#4d4d4d;stroke-width:.55940491;stroke-linecap:round;stroke-linejoin:round"/></svg>