<svg xmlns="http://www.w3.org/2000/svg" xmlns:svg="http://www.w3.org/2000/svg" id="svg2" width="14" height="14" version="1.1" viewBox="0 0 14 14"><metadata id="metadata8"/><rect id="canvas" width="14" height="14" x="0" y="0" style="fill:none;stroke:none;visibility:hidden"/><path id="city-gate" d="M 0,1 0,4 14,4 14,1 12,1 12,3 10,3 10,1 8,1 8,3 6,3 6,1 4,1 4,3 2,3 2,1 0,1 z m 0,4 0,8 2.5,0 C 2.5,10 3.487647,6.5 7,6.5 10.404489,6.473034 11.5,10 11.5,13 L 14,13 14,5 0,5 z M 7,8 C 5,8 4,10 4,13 l 6,0 C 10,10 9,8 7,8 z" style="fill:#734a08;fill-opacity:1;stroke:none"/></svg>