<svg xmlns="http://www.w3.org/2000/svg" xmlns:svg="http://www.w3.org/2000/svg" id="svg2" width="16" height="16" version="1.1" viewBox="0 0 16 16"><defs id="defs4"><linearGradient id="id4" x1="1723.29" x2="1642.93" y1="447.685" y2="4301.68" gradientTransform="matrix(0.00294799,0,0,0.00294799,5.0382354,1038.3342)" gradientUnits="userSpaceOnUse"><stop style="stop-opacity:1;stop-color:#48b4ff" id="stop20" offset="0"/><stop style="stop-opacity:1;stop-color:#0f91ec" id="stop22" offset="1"/></linearGradient><mask id="id0"><linearGradient id="id1" x1="1680.31" x2="1680.31" y1="435.362" y2="1639.57" gradientUnits="userSpaceOnUse"><stop style="stop-opacity:1;stop-color:white" id="stop4" offset="0"/><stop style="stop-opacity:0;stop-color:white" id="stop6" offset="1"/></linearGradient><rect style="fill:url(#id1)" id="rect9" width="3213" height="1950" x="74" y="63"/></mask><linearGradient id="linearGradient973" x1="1680.31" x2="1680.31" y1="435.362" y2="1639.57" gradientUnits="userSpaceOnUse"><stop style="stop-opacity:1;stop-color:white" id="stop969" offset="0"/><stop style="stop-opacity:0;stop-color:white" id="stop971" offset="1"/></linearGradient><linearGradient id="id5" x1="486.006" x2="2880.19" y1="2331.72" y2="1010.44" gradientTransform="matrix(0.00201217,0,0,0.00201217,6.6132304,1039.9957)" gradientUnits="userSpaceOnUse"><stop style="stop-opacity:1;stop-color:#9cd6ff" id="stop25" offset="0"/><stop style="stop-opacity:1;stop-color:#62b8f4" id="stop27" offset=".671"/><stop style="stop-opacity:1;stop-color:#2799e9" id="stop29" offset="1"/></linearGradient><mask id="id2"><linearGradient id="id3" x1="1683.09" x2="1683.09" y1="773.806" y2="1471.39" gradientUnits="userSpaceOnUse"><stop style="stop-opacity:1;stop-color:white" id="stop12" offset="0"/><stop style="stop-opacity:0;stop-color:white" id="stop14" offset="1"/></linearGradient><rect style="fill:url(#id3)" id="rect17" width="1645" height="1133" x="861" y="556"/></mask><linearGradient id="linearGradient988" x1="1683.09" x2="1683.09" y1="773.806" y2="1471.39" gradientUnits="userSpaceOnUse"><stop style="stop-opacity:1;stop-color:white" id="stop984" offset="0"/><stop style="stop-opacity:0;stop-color:white" id="stop986" offset="1"/></linearGradient></defs><metadata id="metadata7"/><g id="layer1" transform="translate(0,-1037.3622)"><path style="clip-rule:evenodd;fill:url(#id4);fill-rule:evenodd;stroke-width:.00294799;image-rendering:optimizeQuality;shape-rendering:geometricPrecision;text-rendering:geometricPrecision" id="path35" d="m 9.9997028,1052.3342 c 0.047169,0 -5.1383467,-5.9697 -4.9555712,-9.5869 0.291851,-5.8841 9.6192944,-5.8841 9.9140934,0 0.179828,3.6172 -5.0056901,9.5869 -4.9585222,9.5869 z" class="fil0"/><circle style="clip-rule:evenodd;fill:#e6e6e6;fill-rule:evenodd;stroke-width:.00224739;image-rendering:optimizeQuality;shape-rendering:geometricPrecision;text-rendering:geometricPrecision" id="circle39" cx="10" cy="1043.358" r="2.348" class="fil2"/><path style="clip-rule:evenodd;fill:url(#id5);fill-rule:evenodd;stroke-width:.00224739;image-rendering:optimizeQuality;shape-rendering:geometricPrecision;text-rendering:geometricPrecision" id="path41" d="m 9.9997028,1041.0743 c 1.2616322,0 2.2838072,1.0219 2.2838072,2.2835 0,1.2617 -1.022175,2.2836 -2.2838072,2.2836 -1.2616266,0 -2.283806,-1.0219 -2.283806,-2.2836 0,-1.2616 1.0221794,-2.2835 2.283806,-2.2835 z m 0,-0.248 c 1.3984582,0 2.5313072,1.1332 2.5313072,2.5315 0,1.3982 -1.13285,2.5315 -2.5313072,2.5315 -1.3984539,0 -2.5313024,-1.1333 -2.5313024,-2.5315 0,-1.3983 1.1328485,-2.5315 2.5313024,-2.5315 z" class="fil3"/><path id="path43" d="m 1683,560 c 452,0 819,252 819,563 0,310 -367,562 -819,562 -452,0 -818,-252 -818,-562 0,-311 366,-563 818,-563 z" class="fil1" mask="url(#id2)" transform="matrix(0.00201217,0,0,0.00201217,6.6132307,1039.9957)" style="clip-rule:evenodd;fill:#fff;fill-opacity:.85924369;fill-rule:evenodd;stroke-width:1.11689615;image-rendering:optimizeQuality;shape-rendering:geometricPrecision;text-rendering:geometricPrecision"/><path style="fill:none;stroke:#1e9af1;stroke-width:1.20000005;stroke-linecap:butt;stroke-linejoin:miter;stroke-miterlimit:4;stroke-dasharray:.6,.59999999999999998;stroke-dashoffset:1.08000004;stroke-opacity:1" id="path912" d="M 8.7802012,1051.881 C 2,1052.3622 7,1047.3622 0.72018591,1045.6819"/></g></svg>