<svg xmlns="http://www.w3.org/2000/svg" xmlns:svg="http://www.w3.org/2000/svg" id="svg2" width="16" height="16" version="1.1" viewBox="0 0 16 16"><defs id="defs4"><linearGradient id="a" x1="24.2" x2="24.2" y1="1" y2="47.2" gradientTransform="matrix(0.33333333,0,0,0.33333333,0,1037.3622)" gradientUnits="userSpaceOnUse"><stop id="stop4" offset="0" stop-color="#28627d"/><stop id="stop6" offset=".7" stop-color="#0c465f"/><stop id="stop8" offset="1" stop-color="#003952"/></linearGradient></defs><metadata id="metadata7"/><g id="layer1" transform="translate(0,-1037.3622)"><path style="fill:url(#a);stroke-width:.33333334" id="path11" d="m 6.7,1053.0955 a 30.066667,30.066667 0 0 0 -6.4,-5.7333 l 3,-2.1333 a 11.666667,11.666667 0 0 1 2.966667,3.3666 l 0.166666,0.3 0.133334,-0.3 c 0.966666,-2.0333 5.1,-8.3333 8.8,-10.9 -0.133334,1.4334 0,2.8667 0.433333,4.5 -3.866667,2.3334 -8.3,9.5667 -9.1,10.9 z"/><path style="fill:#003952;stroke-width:.33333334" id="path13" d="m 15.166667,1038.0622 c -0.1,1.3 0.06667,2.6333 0.433333,4.0667 -3.7,2.3 -7.9,8.9666 -8.933333,10.6666 A 29.833333,29.833333 0 0 0 0.6,1047.3622 l 2.7,-1.9 a 11.666667,11.666667 0 0 1 2.833333,3.2333 l 0.3,0.5667 0.266667,-0.6 c 0.966667,-1.9667 4.866667,-7.9333 8.466667,-10.6 m 0.4,-0.7 c -3.766667,2.4333 -8.133334,9 -9.166667,11.1333 a 12.6,12.6 0 0 0 -3.1,-3.5 l -3.3,2.3667 a 31.033333,31.033333 0 0 1 6.733333,6 c 0,0 5.066667,-8.6667 9.266667,-11.1 a 12,12 0 0 1 -0.433333,-4.9 z"/><path style="fill:#2286b3;stroke-width:.33333334" id="path15" d="m 6.466667,1049.2289 a 32.833333,32.833333 0 0 1 8.7,-11.1334 c -2.1,1.3667 -7,8.2667 -8.7,11.1334 z m -3.133334,-3.8 c -0.2,0.4 -2.1,1.8 -2.733333,1.9 0.333333,-0.3 2.333333,-1.7 2.733333,-1.9 z"/></g></svg>