<svg xmlns="http://www.w3.org/2000/svg" xmlns:svg="http://www.w3.org/2000/svg" id="svg4264" width="16" height="16" version="1.1" viewBox="0 0 16 16"><defs id="defs4266"><marker id="EmptyTriangleInL" orient="auto" refX="0" refY="0" style="overflow:visible"><path id="path4298" d="m 5.77,0 -8.65,5 0,-10 8.65,5 z" transform="matrix(-0.8,0,0,-0.8,4.8,0)" style="fill:#fff;fill-rule:evenodd;stroke:#000;stroke-width:1pt;stroke-opacity:1"/></marker><marker id="marker4778" orient="auto" refX="0" refY="0" style="overflow:visible"><path id="path4780" d="M 0,0 5,-5 -12.5,0 5,5 0,0 Z" transform="matrix(0.8,0,0,0.8,10,0)" style="fill:#000;fill-opacity:1;fill-rule:evenodd;stroke:#000;stroke-width:1pt;stroke-opacity:1"/></marker><marker id="marker4657" orient="auto" refX="0" refY="0" style="overflow:visible"><path id="path4659" d="M 0,0 5,-5 -12.5,0 5,5 0,0 Z" transform="matrix(0.8,0,0,0.8,10,0)" style="fill:#000;fill-opacity:1;fill-rule:evenodd;stroke:#000;stroke-width:1pt;stroke-opacity:1"/></marker><marker style="overflow:visible" id="InfiniteLineStart" orient="auto" refX="0" refY="0"><g id="g4391" transform="translate(-13,0)" style="fill:#000;fill-opacity:1;stroke:#000;stroke-opacity:1"><circle id="circle4393" cx="3" cy="0" r=".8" style="fill:#000;fill-opacity:1;stroke:#000;stroke-opacity:1"/><circle id="circle4395" cx="6.5" cy="0" r=".8" style="fill:#000;fill-opacity:1;stroke:#000;stroke-opacity:1"/><circle id="circle4397" cx="10" cy="0" r=".8" style="fill:#000;fill-opacity:1;stroke:#000;stroke-opacity:1"/></g></marker><marker id="Arrow2Lstart" orient="auto" refX="0" refY="0" style="overflow:visible"><path id="path4165" d="M 8.7185878,4.0337352 -2.2072895,0.01601326 8.7185884,-4.0017078 c -1.7454984,2.3720609 -1.7354408,5.6174519 -6e-7,8.035443 z" transform="matrix(1.1,0,0,1.1,1.1,0)" style="fill:#000;fill-opacity:1;fill-rule:evenodd;stroke:#000;stroke-width:.625;stroke-linejoin:round;stroke-opacity:1"/></marker><marker id="Arrow1Mstart" orient="auto" refX="0" refY="0" style="overflow:visible"><path id="path4153" d="M 0,0 5,-5 -12.5,0 5,5 0,0 Z" transform="matrix(0.4,0,0,0.4,4,0)" style="fill:#000;fill-opacity:1;fill-rule:evenodd;stroke:#000;stroke-width:1pt;stroke-opacity:1"/></marker><marker id="Arrow1Lstart" orient="auto" refX="0" refY="0" style="overflow:visible"><path id="path4147" d="M 0,0 5,-5 -12.5,0 5,5 0,0 Z" transform="matrix(0.8,0,0,0.8,10,0)" style="fill:#000;fill-opacity:1;fill-rule:evenodd;stroke:#000;stroke-width:1pt;stroke-opacity:1"/></marker></defs><metadata id="metadata4269"/><g id="layer1" transform="translate(0,-1036.3621)"><rect style="opacity:1;fill:#fff;fill-opacity:1;stroke:none;stroke-width:.5;stroke-linecap:butt;stroke-linejoin:miter;stroke-miterlimit:4;stroke-dasharray:none;stroke-opacity:1" id="rect4254-5" width="16" height="16" x="0" y="1036.362" rx="2" ry="2"/><rect style="opacity:1;fill:#00f;fill-opacity:1;stroke:none;stroke-width:1.3;stroke-linecap:round;stroke-linejoin:round;stroke-miterlimit:4;stroke-dasharray:none;stroke-opacity:1" id="rect4322" width="15" height="15" x=".492" y="1036.854" rx="1.624" ry="1.624"/><g id="g4330"><path style="fill:#fff;fill-opacity:1" id="polyline3053" d="m 6,1049.3621 2,0 0,1.4864 1,0 -1e-7,-1.4864 2,0 0,-1 -5,0 z"/><path style="fill:#fff;fill-opacity:1" id="path3055" d="m 12,1047.3621 -2,0 1.500001,-2 -1,0 1.5,-2 -1,0 1.5,-2 1.5,2 -1,0 1.5,2 -1,0 1.5,2 -2,0 0,3.4864 -1,0 z"/><path id="text5426" d="m 3.5321082,1039.7267 0,3.9634 2.7658333,0 c 0.6914515,0 1.2072343,-0.2081 1.5473488,-0.6243 0.3400995,-0.4159 0.5101528,-0.8683 0.5101609,-1.3575 -8.1e-6,-0.742 -0.2670341,-1.2873 -0.8010792,-1.6358 -0.3429254,-0.2305 -0.7842216,-0.3458 -1.3238898,-0.3458 z m -1.8635646,11.1218 0,-12.8841 4.4607497,0 c 0.4778305,0 0.9373973,0.05 1.3787005,0.1517 0.4412888,0.102 0.9008549,0.3373 1.3786994,0.7082 0.3710183,0.287 0.6858284,0.6818 0.9444307,1.185 0.2585851,0.5031 0.3878821,1.0864 0.3878911,1.7497 -9e-6,0.8769 -0.3274679,1.7116 -0.9823758,2.5043 -0.6549262,0.7928 -1.6120047,1.1891 -2.8712384,1.1891 l -2.8332926,0 0,5.3961 z" style="font-style:normal;font-variant:normal;font-weight:400;font-stretch:normal;font-size:458.69091797px;line-height:100%;font-family:'DIN 1451 Mittelschrift';text-align:center;writing-mode:lr-tb;text-anchor:middle;fill:#fff;fill-opacity:1;stroke:none;stroke-width:1px;stroke-linecap:butt;stroke-linejoin:miter;stroke-opacity:1"/></g></g></svg>