<svg xmlns="http://www.w3.org/2000/svg" xmlns:svg="http://www.w3.org/2000/svg" id="svg27" width="24" height="24" version="1.1" viewBox="0 0 24 24"><metadata id="metadata31"/><radialGradient id="a" cx="34" cy="-2220.5" r="18.1" gradientTransform="matrix(0.66438858,0,0,-0.07774789,-10.56,-150.04633)" gradientUnits="userSpaceOnUse"><stop id="stop4" offset="0"/><stop id="stop6" offset="1" stop-opacity="0"/></radialGradient><linearGradient id="b" x1="38.9" x2="28.8" y1="-11" y2="30.7" gradientTransform="matrix(0.6857143,0,0,-0.51386575,-8.9142853,24.462479)" gradientUnits="userSpaceOnUse"><stop id="stop9" offset="0" stop-color="#c4a000"/><stop id="stop11" offset="1" stop-color="#fce94f"/></linearGradient><linearGradient id="c" x1="26.1" x2="49.4" y1="34.9" y2="-23.3" gradientTransform="matrix(0.6857143,0,0,-0.51386575,-8.9142853,24.462479)" gradientUnits="userSpaceOnUse"><stop id="stop14" offset="0" stop-color="#fff"/><stop id="stop16" offset="1" stop-color="#fff" stop-opacity="0"/></linearGradient><path id="path19" d="M 24,22.612563 C 24,23.383361 18.651429,24 12,24 5.348572,24 0,23.383361 0,22.612563 c 0,-0.770799 5.348572,-1.387438 12,-1.387438 6.651429,0 12,0.616639 12,1.387438 z" style="clip-rule:evenodd;opacity:.3;fill:url(#a);fill-rule:evenodd;stroke-width:.59360349"/><path id="path21" d="M 21.6,1.749613 2.4,22.715336 h 19.2 z m -4.114285,10.174542 v 7.194121 h -6.171429 z" style="clip-rule:evenodd;fill:url(#b);fill-rule:evenodd;stroke:#c4a000;stroke-width:.59360349"/><path id="path23" d="M 20.914286,22.20147 V 3.342597 L 3.702857,22.150084 Z" style="opacity:.6;fill:none;stroke:url(#c);stroke-width:.59360349"/><path id="path25" d="m 20.914286,20.711259 h -0.548571 m 0.548571,-2.055463 h -0.548571 m 0.548571,-2.055463 h -0.548571 m 0.548571,-2.055463 h -0.548571 m 0.548571,-2.055463 h -0.548571 m 0.548571,-2.055463 h -0.548571 m 0.548571,-2.055463 h -0.548571 m 0.548571,-2.055463 h -0.548571" style="clip-rule:evenodd;fill:#2e3436;fill-opacity:.8;fill-rule:evenodd;stroke:#c4a000;stroke-width:.59360349;stroke-linecap:square"/></svg>